<?xml version="1.0" encoding="UTF-8" standalone="no"?>
<!-- Generator: Adobe Illustrator 17.0.0, SVG Export Plug-In . SVG Version: 6.00 Build 0)  -->

<svg
   version="1.1"
   id="图层_1"
   x="0px"
   y="0px"
   width="809.17603"
   height="809.33801"
   viewBox="0 0 809.17603 809.33801"
   enable-background="new 0 0 1000 1000"
   xml:space="preserve"
   sodipodi:docname="seu-logo.svg"
   xmlns:inkscape="http://www.inkscape.org/namespaces/inkscape"
   xmlns:sodipodi="http://sodipodi.sourceforge.net/DTD/sodipodi-0.dtd"
   xmlns="http://www.w3.org/2000/svg"
   xmlns:svg="http://www.w3.org/2000/svg"><defs
   id="defs25" /><sodipodi:namedview
   id="namedview25"
   pagecolor="#ffffff"
   bordercolor="#000000"
   borderopacity="0.25"
   inkscape:showpageshadow="2"
   inkscape:pageopacity="0.0"
   inkscape:pagecheckerboard="0"
   inkscape:deskcolor="#d1d1d1" />&#10;<g
   id="g25"
   inkscape:export-filename="g25.svg"
   inkscape:export-xdpi="96"
   inkscape:export-ydpi="96"
   transform="translate(-91.135986,-100.076)">&#10;	<path
   id="外粗线_4_"
   fill="#ffffff"
   d="m 495.724,895.034 c 215.009,0 390.372,-175.362 390.372,-390.371 0,-215.009 -175.363,-390.371 -390.372,-390.371 -215.009,0 -390.372,175.362 -390.372,390.371 0,215.009 175.363,390.371 390.372,390.371 z m 0,14.216 c -222.84,0 -404.588,-181.748 -404.588,-404.587 0,-222.839 181.748,-404.587 404.588,-404.587 222.84,0 404.588,181.748 404.588,404.587 0,222.839 -181.749,404.587 -404.588,404.587 z" />&#10;	<path
   id="外细线_4_"
   fill="#ffffff"
   stroke="#f2f2f2"
   stroke-width="4"
   stroke-miterlimit="10"
   d="m 495.724,880.903 c 205.954,0 373.93,-168.941 373.93,-376.077 0,-207.136 -167.976,-376.077 -373.93,-376.077 -205.954,0 -373.93,168.941 -373.93,376.077 0,207.136 167.976,376.077 373.93,376.077 z m 0,2.758 c -207.464,0 -376.672,-170.18 -376.672,-378.835 0,-208.655 169.208,-378.835 376.672,-378.835 207.464,0 376.672,170.18 376.672,378.835 0,208.655 -169.208,378.835 -376.672,378.835 z" />&#10;	<circle
   fill-rule="evenodd"
   clip-rule="evenodd"
   fill="none"
   cx="495.724"
   cy="504.82599"
   r="404.58801"
   id="circle1" />&#10;	<circle
   fill-rule="evenodd"
   clip-rule="evenodd"
   fill="none"
   cx="495.724"
   cy="502.66299"
   r="286.465"
   id="circle2" />&#10;	<polygon
   fill-rule="evenodd"
   clip-rule="evenodd"
   fill="none"
   stroke="#ffffff"
   stroke-miterlimit="10"
   points="496.378,794.209 267.424,393.747 727.585,393.747 "
   id="polygon2" />&#10;	<path
   fill-rule="evenodd"
   clip-rule="evenodd"
   fill="none"
   d="m 492.59,404.603 v 8.419 l -21.76,5.83 v 11.691 l 4.625,2.67 V 437 c 0,0 -63.171,7.755 -77.419,76.404 l -12.953,1.295 v 9.067 l -35.62,1.295 -3.886,5.829 77.068,132.764 150.898,1.295 79.011,-132.764 -5.829,-7.124 h -34.324 l -0.648,-9.714 h -11.657 c 0,0 -12.953,-66.058 -80.306,-78.363 v -5.829 h 7.772 l -1.943,-11.01 -20.077,-6.476 -1.295,-7.124 -5.181,-5.181 z"
   id="path2" />&#10;	<path
   fill-rule="evenodd"
   clip-rule="evenodd"
   d="M 439.801,338.088"
   id="path3" />&#10;	<path
   fill-rule="evenodd"
   clip-rule="evenodd"
   d="M 439.801,338.088"
   id="path4" />&#10;	<path
   id="止于至善_4_"
   fill-rule="evenodd"
   clip-rule="evenodd"
   fill="#f2f2f2"
   d="m 617.036,773.67 c 2.364,0.074 8.783,4.414 7.433,7.789 -1.069,2.485 -3.415,4.675 -5.914,5.616 0.113,1.209 0.019,1.189 -0.505,1.993 -0.452,0.122 -0.903,0.243 -1.351,0.362 -0.282,-0.24 -0.564,-0.482 -0.846,-0.724 0,-0.121 0,-0.241 0,-0.363 -0.612,-2.651 1.556,-3.449 1.351,-5.436 -0.166,-1.615 -2.061,-6.972 -2.026,-7.247 0.338,-1.228 1.017,-1.344 1.858,-1.99 z m -9.977,12.959 c 0.394,0.122 0.786,0.243 1.18,0.362 -0.056,2.176 -0.11,4.35 -0.167,6.523 -0.676,0.785 -1.351,1.571 -2.028,2.356 -3.964,0.049 -5.564,-3.273 -7.263,-5.616 0.126,-0.808 0.211,-0.762 0.505,-1.27 0.056,0 0.113,0 0.169,0 2.181,0.104 2.827,1.259 5.069,1.449 0.312,-1.778 1.586,-2.694 2.535,-3.804 z m 17.053,2.342 c 0.506,0 1.014,0 1.519,0 0.509,0.483 1.014,0.964 1.522,1.449 -0.057,0.484 -0.114,0.966 -0.17,1.448 -0.718,1.489 -6.908,4.14 -8.952,4.712 -0.113,0.24 -0.227,0.484 -0.338,0.724 0.219,1.283 0.774,2.363 1.352,3.259 2.535,0.172 5.051,-1.86 6.757,-3.259 1.557,0.092 2.765,1 1.858,2.535 -2.133,3.608 -7.642,2.718 -8.278,8.334 0.71,1.896 1.27,2.159 2.363,3.442 -0.498,2.858 -11.267,9.478 -13.853,12.141 -2.197,0.043 -3.354,-0.672 -4.56,-1.632 0.057,-0.484 0.114,-0.968 0.168,-1.449 0.394,-0.304 0.789,-0.606 1.183,-0.907 1.35,-0.373 1.917,0.386 3.043,0.724 1.305,-3.865 7.531,-2.46 7.771,-7.609 -0.577,-1.24 -1.258,-1.884 -2.196,-2.718 -2.746,0.496 -4.92,4.51 -8.108,3.263 -0.338,-0.243 -0.676,-0.484 -1.014,-0.725 0.036,-0.82 0.117,-0.979 0.338,-1.452 1.888,-0.067 9.099,-5.486 9.797,-6.884 -0.221,-1.487 -0.991,-1.622 -1.688,-2.536 -0.508,-0.06 -1.013,-0.121 -1.522,-0.179 -1.786,1.424 -3.588,2.958 -5.068,4.708 -1.952,0.05 -2.92,-0.502 -4.053,-1.266 -0.092,-2.674 3.562,-3.04 5.236,-4.348 1.436,-1.124 3.388,-1.737 4.898,-2.899 3.085,-2.374 5.733,-6.166 9.125,-8.153 0.956,-0.24 1.911,-0.484 2.87,-0.723 z m -285.776,-5.669 c 0.419,0.108 0.839,0.217 1.258,0.325 0.668,1.885 3.053,2.56 3.373,4.705 1.492,10.076 -8.851,10.91 -10.266,16.618 0.122,0.013 3.21,1.223 3.326,1.255 3.465,0.965 3.389,0.753 6.213,1.443 4.102,1.003 12.642,5.754 16.505,5.46 2.543,-0.195 3.7,-0.946 6.398,-0.869 2.04,1.198 7.95,7.154 6.281,10.305 -1.419,2.569 -4.834,1.352 -6.832,0.025 -5.933,-3.942 -14.563,-7.149 -21.915,-10.847 -4.336,-2.179 -14.85,-0.131 -16.67,-1.216 -1.886,-0.954 -2.664,-4.434 -1.084,-7.107 2.194,-2.094 4.387,-4.187 6.58,-6.282 1.367,-1.497 1.681,-3.139 2.932,-4.976 1.051,-1.21 2.105,-2.418 3.155,-3.629 -0.171,-1.278 -0.34,-2.556 -0.51,-3.832 0.419,-0.459 0.837,-0.918 1.256,-1.378 z m 48.237,8.622 c 4.853,0.668 4.608,4.226 5.635,8.135 0.299,1.14 1.33,2.344 0.756,3.65 -2.42,4.322 -11.235,0.68 -11.095,-3.568 1.02,-1.212 2.043,-2.422 3.066,-3.633 0.733,-2.131 0.028,-2.99 1.238,-4.426 0.135,-0.052 0.266,-0.105 0.4,-0.158 z m 38.22,38.185 c -5.789,1.139 -13.398,15.598 -20.225,14.577 -0.329,-0.115 -0.662,-0.232 -0.991,-0.348 -0.025,-0.468 -0.049,-0.939 -0.074,-1.409 1.357,-2.347 4.72,-2.643 7.144,-4.342 1.895,-1.326 11.758,-13.629 12.273,-15.589 -0.074,-0.401 -0.149,-0.802 -0.223,-1.203 -0.329,-0.115 -0.658,-0.233 -0.987,-0.348 -4.889,0.922 -5.98,2.956 -7.141,3.709 -0.381,0.247 -3.727,1.956 -3.169,1.632 -1.799,1.046 -2.178,0.963 -3.431,1.82 -1.59,1.088 -2.053,0.79 -3.114,0.59 -0.362,-0.068 -1.623,0.49 -1.99,0.498 -0.9,1.357 -1.097,1.252 -3.18,1.883 -0.492,-0.323 -0.889,-0.513 -1.381,-0.837 -0.302,-2.446 1.351,-5.31 3.012,-6.694 1.506,-1.255 2.093,-1.501 3.389,-1.506 1.663,-0.006 1.816,-1.003 2.698,-1.462 1.443,-0.753 2.121,0.523 5.461,0.123 1.443,-0.173 2.521,-0.564 3.724,-1.381 1.155,-0.385 1.553,-0.064 2.205,-0.143 4.535,-0.552 7.121,-5.831 8.771,-8.55 -0.397,-2.352 -0.877,-10.088 -0.28,-11.489 0.006,-0.15 0.073,-0.743 -0.266,-0.749 -1.658,-0.031 -3.032,-1.428 -2.807,-1.876 0.028,-3.871 7.241,-1.655 8.215,0.432 2.478,5.326 -0.816,10.021 -0.644,14.499 1.077,1.184 1.947,1.563 2.372,3.823 -0.391,1.439 -0.894,2.339 -3.015,2.688 0.596,0.794 0.999,2.045 2.233,2.071 2.288,-1.568 11.173,-14.387 10.82,-17.449 -1.593,-1.737 -1.494,-2.278 -0.407,-4.188 0.06,-0.011 0.121,-0.022 0.181,-0.034 3.544,-0.557 9.358,4.683 7.646,8.35 -2.46,5.279 -6.144,10.483 -10.644,14.402 -2.352,2.047 -6.726,2.57 -7.961,5.913 -0.835,2.249 -0.711,4.132 -1.212,6.438 -0.284,1.305 -1.792,2.849 -2.04,3.985 -0.551,2.525 -0.12,1.085 -0.572,4.805 -0.084,0.69 -0.186,1.844 -0.101,2.3 0.112,0.497 0.014,0.288 0.1,0.759 0.232,3.318 -0.48,6.116 -2.844,7.756 -3.349,2.325 -6.658,-0.627 -8.017,-1.777 0.544,0.46 -0.299,-0.377 -0.79,-0.859 -0.113,-0.274 -0.327,-0.771 -0.439,-1.046 0.205,-0.747 0.37,-0.64 0.987,-1.13 1.558,-0.858 3.491,-0.459 4.667,-1.752 1.315,-1.448 2.666,-13.686 2.047,-16.892 z m 208.271,-29.922 c 1.246,0 1.504,0.251 2.196,0.724 0.057,0.606 0.114,1.208 0.171,1.812 -1.469,3.103 -6.482,2.954 -8.616,6.704 -1.127,-0.061 -2.254,-0.122 -3.38,-0.183 -0.225,-0.118 -0.449,-0.24 -0.676,-0.362 0.056,-0.362 0.113,-0.724 0.171,-1.087 0.925,-2.135 7.673,-6.1 10.134,-7.608 z M 356.965,789.64 c 0.703,0.142 1.405,0.283 2.106,0.425 1.105,1.293 1.374,1.605 2.61,3.055 3.111,1.581 4.915,-0.715 7.292,1.378 -0.007,0.066 -0.014,0.131 -0.021,0.194 -0.176,1.089 -0.32,1.126 -0.768,1.703 -3.187,1.056 -4.436,5.29 -7.49,5.942 -2.802,0.597 -7.27,-6.972 -5.723,-10.528 0.663,-0.723 1.33,-1.447 1.994,-2.169 z m 203.598,6.966 c 1.966,0.102 2.95,0.994 3.775,2.171 -0.064,0.481 -0.127,0.962 -0.19,1.446 -3.451,1.772 -19.026,4.114 -20.187,6.148 0.504,1.384 1.008,2.773 1.509,4.158 -4.679,5.542 -14.154,7.98 -16.789,15.188 0.063,0.061 0.123,0.121 0.187,0.181 5.123,0.044 8.19,-2.369 12.831,-3.074 0.063,0.058 0.127,0.119 0.187,0.18 0,0.3 0,0.604 0,0.905 -3.996,2.861 -13.185,6.26 -19.055,6.871 -0.557,-0.68 -1.276,-1.004 -2.073,-1.447 -0.261,-1.123 -0.792,-2.973 -0.377,-3.978 0.941,-1.763 3.56,-1.714 5.093,-2.892 3.151,-2.419 9.702,-7.303 11.319,-10.85 -0.103,-0.895 -0.163,-1.047 -0.754,-1.445 -1.642,-0.985 -3.746,-0.146 -5.661,0 -3.109,0.233 -5.498,-1.07 -7.547,-2.532 0.042,-0.817 0.134,-0.977 0.378,-1.448 4.394,-0.502 7.781,-1.611 11.51,-2.35 1.006,0 2.011,0 3.019,0 1.278,-0.303 1.897,-1.088 3.585,-1.264 0.606,-0.136 0.711,0.067 1.077,-0.066 0.202,-0.074 0.354,-0.095 0.532,-0.245 3.364,-2.834 13.703,-3.871 17.631,-5.657 z m 88.195,8.013 c 2.449,-0.053 3.737,1.46 4.391,3.259 0,0.424 0,0.846 0,1.269 -0.785,1.24 -1.421,2.314 -3.379,2.356 -4.737,-1.835 -11.62,2.285 -13.684,1.449 0,-0.301 0,-0.603 0,-0.907 2.704,-4.229 9,-4.284 12.672,-7.426 z m -20.094,6.175 c 1.701,-0.149 2.954,0.216 2.702,1.631 0.168,1.207 0.338,2.413 0.507,3.622 -0.748,2.277 -3.356,4.48 -5.405,4.891 -0.057,0.606 -0.114,1.208 -0.171,1.815 -0.338,-0.122 -0.675,-0.244 -1.013,-0.363 -0.057,-0.121 -0.113,-0.243 -0.168,-0.363 0.145,-3.384 2.508,-5.422 3.209,-8.153 0.38,-1.473 -0.243,-2.007 0.339,-3.08 z m -9.471,9.965 c 0.337,0.061 0.675,0.121 1.013,0.179 0.337,0.304 0.675,0.606 1.013,0.907 -0.056,0.484 -0.11,0.966 -0.167,1.449 -1.849,0.512 -1.876,3.596 -3.548,4.35 -0.959,-0.061 -1.916,-0.122 -2.872,-0.183 -0.614,0.19 -1.19,0.736 -2.196,0.907 0.641,1.734 -0.183,2.504 -1.184,3.442 -1.237,0 -4.446,-0.896 -4.728,-0.724 -0.216,0.129 -0.555,1.559 -0.846,1.811 -1.239,0.907 -2.478,1.81 -3.718,2.718 -0.449,0 -0.9,0 -1.351,0 -3.535,2.516 -7.347,9.447 -13.177,5.253 -0.056,-0.424 -0.111,-0.846 -0.167,-1.269 2.822,-3.137 3.027,-0.86 6.082,-1.266 1.053,-3.221 3.336,-2.65 6.082,-3.987 5.631,-2.743 9.294,-8.394 14.528,-11.413 0.505,0.183 1.014,0.362 1.519,0.545 0.959,-1.209 2.728,-1.487 3.717,-2.719 z m 18.584,-0.198 c 0.618,0.061 1.237,0.122 1.857,0.183 0.398,0.05 0.557,0.427 1.226,0.412 0.462,-0.01 0.909,-0.034 1.645,0.491 0,1.932 0,3.865 0,5.798 -0.562,0.663 -1.124,1.33 -1.69,1.994 0,1.932 0,3.865 0,5.798 -1.173,2.953 -2.528,1.075 -3.547,1.628 -1.344,0.73 -3.486,2.638 -5.068,3.08 -1.013,0.061 -2.027,0.122 -3.04,0.183 -1.625,0.589 -2.033,2.185 -4.056,2.356 -3.088,-1.736 -4.766,-6.436 -6.924,-9.241 -0.932,-1.208 -2.679,-0.533 -3.719,-1.632 0,-1.146 0.147,-1.374 0.509,-1.993 8.822,-0.222 7.641,3.927 11.993,8.516 3.731,-0.036 7.507,-3.221 9.462,-5.436 -0.169,-0.785 -0.34,-1.57 -0.507,-2.355 -0.189,-1.824 0.637,-3.04 0.168,-4.892 -0.449,-0.118 -0.9,-0.24 -1.352,-0.363 -1.718,0.785 -2.678,2.398 -4.39,2.901 -0.057,-0.06 -0.113,-0.121 -0.171,-0.182 -0.177,-1.822 -0.081,-2.362 0.676,-3.442 2.529,-0.872 1.35,-1.804 2.872,-2.897 1.351,-0.303 2.704,-0.606 4.056,-0.907 z m -84.694,-4.165 c 7.341,-0.043 10.863,0.564 14.716,4.52 -0.063,0.483 -0.126,0.963 -0.186,1.446 -0.378,0.76 -0.748,0.9 -1.512,1.267 -3.511,-0.6 -6.174,-3.263 -9.243,-4.158 -1.729,-0.505 -3.954,-0.153 -5.284,-0.906 0,-0.061 0,-0.12 0,-0.179 0.154,-1.364 0.634,-1.396 1.509,-1.99 z m -90.31,-4.093 c 3.885,-0.877 10.116,1.411 8.907,6.161 -0.166,0.801 -0.289,1.001 -1.03,1.435 -2.069,1.34 -7.454,-0.118 -11.554,-0.286 -3.851,-0.157 -7.571,0.654 -10.2,-1.367 -0.042,-0.228 -0.085,-0.459 -0.127,-0.686 0.344,-0.478 0.687,-0.957 1.031,-1.436 1.86,-0.308 11.253,-1.25 12.238,-2.797 0.243,-0.342 0.489,-0.683 0.735,-1.024 z m 85.717,14.198 c 4.148,0.318 2.458,5.254 5.093,6.872 2.242,1.781 4.646,-1.257 7.17,-0.723 0.298,0.066 0.494,-0.047 0.769,-0.013 0.124,-0.061 0.492,-0.121 0.618,-0.18 0.176,-0.106 0.357,-0.136 0.498,-0.169 0.504,0.06 1.008,0.12 1.508,0.179 0.44,0.362 0.881,0.724 1.321,1.087 -0.031,1.247 -0.255,1.314 -0.754,1.988 -3.911,1.45 -11.047,2.124 -11.886,6.509 -0.332,1.733 -0.007,3.57 -0.568,5.426 -0.486,1.61 -1.744,2.295 -1.886,4.34 0.251,0.42 0.504,0.842 0.754,1.264 6.914,1.843 16.333,-7.62 23.394,-0.54 -0.062,0.479 -0.122,0.962 -0.186,1.446 -0.377,0.24 -0.754,0.483 -1.132,0.723 -1.047,0.508 -3.169,0.477 -4.152,0 -0.274,-0.274 -0.595,-0.493 -0.937,-0.444 -3.545,0.516 -5.327,0.066 -8.873,0.082 -0.811,0.002 -2.46,1.364 -3.585,1.629 -2.427,0.565 -4.913,-0.022 -7.36,0.54 -1.758,0.784 -3.522,1.568 -5.28,2.352 -3.775,1.39 -8.593,2.726 -12.076,3.797 -3.291,1.011 -6.485,-1.045 -7.736,-3.074 0.062,-0.179 0.125,-0.362 0.19,-0.541 0.338,-0.744 0.741,-1.113 1.508,-1.448 2.229,-1.073 4.237,0.94 6.605,0.723 4.628,-0.42 9.932,-2.183 13.204,-4.159 0.734,-2.219 1.245,-8.958 -0.564,-10.485 -3.629,-1.678 -9.7,1.919 -14.152,-0.906 0.056,-1.011 0.193,-1.055 0.568,-1.625 4.403,-0.86 13.27,-1.637 15.47,-5.246 1.831,-2.999 0.006,-7.077 2.457,-9.404 z m -100.916,1.578 c 4.043,-0.901 9.464,0.688 10.493,3.738 0.938,2.777 -5.774,10.205 -8.37,9.718 -2.701,-0.783 0.616,-5.028 1.244,-6.267 -1.225,-2.186 -2.721,-2.246 -4.37,-3.629 -0.286,-1.182 -0.526,-1.779 -0.299,-2.608 0.436,-0.318 0.87,-0.633 1.302,-0.952 z m -1.991,18.186 c 0.487,-0.03 0.976,-0.062 1.464,-0.094 0.786,1.232 1.979,2.642 3.086,3.689 1.651,1.563 6.83,1.098 5.972,5.286 -0.2,1 -0.734,1.85 -1.585,2.423 -1.114,0.574 -3.323,1.456 -4.436,1.002 -1.354,-0.554 -0.701,-1.904 -1.468,-2.925 -1.863,-2.477 -6.678,-5.308 -3.033,-9.381 z" />&#10;	<path
   id="大礼堂轮廓_4_"
   fill="#ffffff"
   d="m 493.911,409.477 -0.047,8.504 -3.514,0.377 -19.52,7.217 v 4.268 l 4.407,0.088 -0.158,11.627 -2.427,0.335 c -2.05,0.213 -56.357,4.017 -75.31,64.39 l -0.628,2.887 -26.066,-0.502 -0.084,27.446 -24.427,0.013 1.768,2.938 72.686,122.607 74.786,-0.132 73.419,0.426 77.151,-124.978 -4.184,-1.041 -20.501,0.084 v -26.484 l -25.857,-0.565 -0.439,-1.945 c -17.384,-58.868 -73.876,-65.18 -74.055,-65.206 l -3.452,-0.251 -0.251,-11.924 4.268,0.063 -0.188,-3.577 -19.256,-7.419 -3.462,-0.677 0.146,-16.234 -2.594,-4.268 -2.212,4.184 v 7.749 z m -5.486,-2.192 0.084,-7.525 1.339,-0.711 6.276,-4.184 4.77,3.096 2.72,1.423 -0.067,6.778 -0.076,7.552 12.422,5.303 10.962,5.868 -0.073,3.012 0.067,6.741 -5.475,0.016 -0.008,2.631 c 16.663,2.428 57.557,9.628 77.807,67.542 h 27.739 l -0.125,25.576 19.079,0.042 7.468,0.063 1.381,2.134 -1.019,1.857 -1.244,2.089 -78.716,135.505 -0.853,1.433 -1.668,0.013 -75.812,0.592 h -0.047 l -75.812,-0.592 -1.669,-0.013 -0.853,-1.433 -78.716,-135.505 -1.244,-2.089 1.799,-1.625 3.588,-1.362 3.582,0.162 19.555,0.006 v -26.526 l 27.488,-0.326 c 17.572,-59.044 65.249,-63.922 77.319,-66.407 l 0.084,-3.933 -5.104,-0.126 -0.126,-9.1 v -2.134 l 1.284,-0.727 21.616,-8.148 0.258,-5.998 z m -21.895,15.114 21.968,-8.435 -0.22,1.412" />&#10;	<path
   id="内三角_4_"
   fill="#ffffff"
   stroke="#f2f2f2"
   stroke-miterlimit="10"
   d="m 754.261,381.617 -11.222,19.251 -235.926,404.718 -11.08,19.006 -11.08,-19.006 -235.925,-404.718 -11.223,-19.251 z m -31.36,20.778 -451.771,-1.03 225.136,391.472 217.625,-374.836 z" />&#10;	<path
   fill-rule="evenodd"
   clip-rule="evenodd"
   fill="#ffffff"
   d="m 255.382,571.802 -0.063,36.902 h -5.46 l 0.102,-29.379 -9.269,6.661 v -5.146 c 6.213,-4.662 7.212,-5.454 10.706,-8.981 h 3.608 z m 9.614,28.292 h 4.292 c 0.391,4.168 2.408,6.257 6.058,6.257 4.426,0.283 7.228,-4.527 8.403,-14.448 h -0.201 c -1.432,2.872 -4.099,4.382 -8.009,4.53 -7.027,-0.296 -10.677,-4.464 -10.936,-12.517 0.393,-8.484 4.169,-12.938 11.327,-13.369 7.945,0.148 12.053,6.109 12.312,17.906 -0.525,14.09 -4.817,21.274 -12.895,21.56 -6.511,-0.287 -9.96,-3.589 -10.351,-9.919 z m 11.327,-7.977 c 4.3,-0.148 6.508,-3.092 6.642,-8.846 -0.257,-5.316 -2.609,-8.05 -7.035,-8.198 -4.426,0.296 -6.7,3.165 -6.834,8.632 -0.135,5.751 2.276,8.557 7.227,8.412 z m 33.324,-1.51 c -0.134,-10.205 -2.656,-15.386 -7.56,-15.534 -5.04,0 -7.492,5.181 -7.356,15.534 0,10.353 2.452,15.524 7.356,15.524 4.904,0 7.427,-5.172 7.56,-15.524 z m 4.854,0 c -0.401,12.652 -4.541,19.12 -12.426,19.406 -8.149,-0.286 -12.289,-6.754 -12.426,-19.406 0.137,-13.086 4.278,-19.774 12.426,-20.06 7.885,0.286 12.025,6.974 12.426,20.06 z m 6.526,-8.011 -5.188,-0.125 c 0.293,-8.995 4.383,-11.895 12.51,-12.175 6.944,0.567 10.58,4.617 11.107,11.653 0.261,5.352 -3.285,8.69 -8.764,13.366 l -3.473,2.971 c -3.389,2.893 -3.791,3.14 -4.184,5.816 l 16.421,0.015 v 4.431 h -23.701 c 0.293,-7.039 3.075,-9.29 8.368,-13.859 l 5.021,-4.142 c 4.007,-3.096 5.859,-5.29 5.592,-8.812 -0.388,-4.36 -1.901,-6.105 -6.22,-6.25 -4.588,-10e-4 -7.07,0.71 -7.489,7.111 z"
   id="path5" />&#10;	<path
   id="东南大学_4_"
   fill-rule="evenodd"
   clip-rule="evenodd"
   fill="#ffffff"
   d="m 591.485,317.394 c -0.099,-0.974 -0.12,-1.293 -0.188,-3.954 -0.045,-1.767 -0.01,-2.842 -0.241,-4.508 -0.672,-4.862 -0.326,-3.409 -1.396,-7.08 -0.142,-0.487 -0.744,-4.156 -0.796,-4.661 -0.167,-1.632 0.566,-2.871 1.213,-3.222 1.004,-0.544 2.356,0.918 2.948,1.687 1.695,2.203 2.445,4.255 2.675,5.578 0.17,0.977 0.705,5.565 0.711,5.648 0.165,2.349 0.435,4.8 0.669,6.987 0.251,2.343 -0.46,2.678 0.709,4.032 0.575,0.667 1.369,0.365 1.607,0.365 1.541,-0.344 1.809,-2.345 1.595,-4.073 -0.611,-4.94 -1.412,-5.713 -1.945,-8.734 -0.377,-2.134 -0.316,-2.41 -0.471,-3.473 -0.121,-0.832 -0.379,-2.057 -0.575,-6.108 -0.126,-2.594 -0.031,-2.665 0.45,-4.78 0.38,-1.669 1.039,-2.677 1.766,-2.962 1.968,-0.772 3.214,-0.472 3.317,0.389 0.578,4.804 0.656,5.262 0.743,8.519 0.089,3.333 0.427,4.011 0.513,5.946 0.088,2 0.67,4.927 0.784,7.845 0.133,3.389 0.802,7.701 3.235,4.46 0.875,-1.166 0.123,-2.56 0.31,-4.084 0.217,-1.761 -0.064,-2.115 0.157,-4.048 0.376,-3.283 -0.125,-4.205 0.126,-8.661 0.078,-1.385 1.237,-2.143 1.192,-2.458 -0.084,-0.586 -0.074,-0.42 -0.92,-2.636 -0.879,-2.301 0.544,-11.788 0.669,-16.118 0.045,-1.569 -0.29,-4.742 1.098,-6.307 0.822,-0.927 2.197,-0.385 3.556,0.302 l 0.837,0.703 c 0.094,1.318 -2.385,4.111 4.079,1.098 1.316,-0.613 3.86,-2.165 5.805,-1.349 1.611,0.675 0.502,4.022 0.502,4.079 -0.059,0.448 -4.165,1.782 -5.681,2.714 -3.198,1.966 -7.69,0.556 -7.341,8.865 -0.037,0.836 -0.031,2.604 -0.094,4.33 -0.046,1.265 2.078,-0.942 3.358,-0.941 0.636,0 1.825,1.153 1.93,1.224 0.452,0.307 1.318,1.192 1.02,0.863 0.411,0.454 0.685,0.818 0.722,1.083 0.173,1.255 0.204,4.114 1.945,3.467 2.425,-0.9 1.272,-0.463 2.887,-1.192 0.773,-0.349 2.636,0.031 3.922,-0.22 1.67,-0.326 2.138,-3.191 2.228,-4.676 0.167,-2.761 -0.044,-3.489 -1.067,-4.33 -1.435,-1.18 -3.618,-0.816 -6.433,0 -3.358,0.973 -4.389,4.017 -6.135,3.891 -0.134,-0.01 -1.368,-0.277 -1.506,-0.298 -0.061,-0.504 0.031,-0.643 0.379,-1.388 1.982,-4.24 14.74,-11.906 19.28,-5.735 2.479,3.37 1.598,6.748 0.941,9.811 -0.628,2.929 -1.579,5.138 -2.134,7.322 -0.487,1.916 -0.31,2.049 -0.669,4.142 -0.339,1.977 -0.287,1.419 -0.627,3.113 -0.24,1.195 -1.207,4.184 -0.335,4.56 1.975,0.802 5.129,-0.013 6.841,-0.408 3.126,-0.723 8.851,0.946 10.146,2.353 1.541,1.674 -2.27,5.786 -3.598,6.527 -1.377,0.281 -5.484,3.904 -6.862,4.184 -2.935,1.683 -2.839,1.497 -5.774,3.18 -3.195,1.202 -7.594,-1.213 -5.272,1.328 1.295,1.418 0.728,2.933 -0.256,5.404 -0.987,0.37 -3.054,1.636 -4.095,2.18 -1.123,1.435 -1.157,1.357 -1.506,2.092 -1.18,2.486 -4.373,6.148 -1.843,6.073 6.25,-0.188 4.939,5.977 4.939,5.977 0,0 2.248,-0.604 4.937,-0.293 2.555,0.296 4.725,-0.258 6.109,0.084 2.879,0.713 5.46,3.996 6.59,6.286 0.43,0.872 0.119,1.728 -0.722,2.008 -0.941,0.314 -1.987,0.816 -2.772,0.282 -1.77,-1.204 -2.065,-2.287 -3.598,-2.552 -3.557,-0.615 -10.449,-0.711 -10.449,-0.711 0,0 -0.379,4.017 -0.439,4.205 -0.61,1.89 -2.798,5.205 -3.703,6.496 -1.694,2.416 -5.603,4.265 -7.562,4.738 -9.1,2.197 -12.849,-4.326 -11.276,-13.765 0.544,-3.263 3.039,-5.241 6.109,-6.067 2.593,-0.697 7.387,-0.119 7.238,-2.552 -0.125,-2.05 -0.494,-0.925 -1.632,-2.259 -2.803,-3.286 -0.456,-4.442 1.255,-6.203 1.083,-1.114 1.059,-1.409 1.569,-2.228 0.378,-0.607 0.879,-1.834 0.973,-2.448 0.141,-0.926 -1.255,-0.533 -2.667,-0.361 -3.442,0.421 -3.687,1.757 -6.213,1.03 -1.082,-0.311 -1.956,-1.092 -1.443,-1.862 1.088,-1.632 0.947,-1.809 2.155,-2.385 1.52,-0.725 1.987,-1.004 3.964,-2.102 2.835,-1.575 3.819,-2.105 5.397,-2.228 1.15,0.426 2.719,0.956 4.283,0.675 2.92,-0.526 2.743,-0.82 5.382,-2.871 2.195,-1.706 5.488,-4.232 6.778,-5.568 0.261,-0.27 1.544,-1.072 3.024,-2.701 0.31,-0.342 0.367,-0.571 0.349,-1.255 -0.008,-0.299 0.062,-0.533 -0.11,-0.91 -0.172,-0.377 -0.891,-0.47 -1.898,-0.11 -0.659,0.235 -1.036,0.361 -1.707,0.699 -0.114,0.057 -1.81,0.947 -1.923,1.005 -0.781,0.407 -1.124,0.431 -1.877,0.806 -1.838,0.916 -1.424,0.779 -3.538,1.159 -0.418,0.075 -1.691,0.667 -3.065,1.123 -1.154,0.383 -1.712,1.633 -2.34,0.26 -0.251,-0.549 -0.471,-1.067 -0.33,-1.804 0.143,-0.747 0.298,-0.612 0.381,-1.413 0.025,-0.244 -0.034,-0.707 -0.271,-0.768 -0.397,-0.102 0.361,0.115 -0.894,-0.22 -0.883,-0.235 -2.322,0.751 -2.161,0.641 1.206,-0.826 -0.585,0.596 -2.028,0.756 -0.764,0.085 -1.191,0.802 -1.82,1.396 -0.975,0.922 -1.726,1.349 -2.699,1.491 -1.455,0.211 -1.506,-0.753 -3.138,-1.192 -1.605,-0.432 -3.303,0.463 -4.383,1.443 -0.644,0.584 -0.418,0.502 -1.925,1.046 -0.451,0.163 -1.632,0.377 -3.439,-0.26 -1.169,-0.412 -0.371,-0.68 -2.756,-0.68 -1.293,0 -1.667,0.482 -3.679,-0.231 -0.791,-0.28 -1.42,-0.936 -1.732,-1.616 M 360.689,275.363 c 3.067,-0.053 5.805,1.888 6.655,3.984 0.941,2.322 0.628,3.161 0.628,4.707 0,1.726 -0.1,3.505 -0.188,4.268 -0.147,1.26 -0.185,1.726 0,3.546 0.135,1.325 1.929,1.569 3.075,2.625 1.146,1.056 1.396,3.157 0.795,4.728 -0.556,0.973 -1.472,1.573 -2.385,1.925 -1.317,0.508 -2.56,0.767 -2.121,3.126 0.325,0.249 0.652,0.498 0.978,0.747 2.431,0.604 4.976,-0.284 6.833,-0.651 4.017,-0.795 6.408,-1.153 9.996,-1.402 1.681,-0.323 4.114,-0.563 6.071,-0.732 2.117,1.125 4.937,6.137 3.305,9.832 -2.518,5.611 -12.038,9.157 -16.108,13.807 -1.283,1.465 -2.606,2.582 -3.64,3.849 -1.569,1.922 -3.095,2.864 -5.087,4.391 -1.462,1.118 -2.967,1.756 -4.097,3.223 -0.848,0.559 -1.029,1.258 -2.051,2.387 -1.172,1.296 -1.084,9.136 -1.024,11.378 0.084,3.138 -0.126,6.286 0.094,8.922 0.046,0.549 0.565,1.541 1.004,3.044 0.143,0.49 0.263,2.398 0.251,3.075 0,0 0.324,2.322 -0.178,3.828 -0.414,1.242 -2.494,1.892 -3.473,2.761 -0.717,-0.061 -2.002,-0.148 -2.72,-0.209 -1.793,-0.82 -3.635,-2.538 -5.104,-3.64 -2.535,-1.898 -4.961,-1.485 -5.439,-4.937 -0.199,-1.436 -0.01,-1.003 0.396,-1.566 0.084,-0.117 1.838,0.045 1.969,-0.016 2.262,0.027 3.823,0.215 5.874,0.106 2.344,-0.125 1.761,-2.081 2.012,-4.005 0.201,-1.543 0,-2.008 -0.084,-4.393 -0.054,-1.529 0.111,-2.988 -0.933,-4.107 -0.066,0 -0.13,0 -0.197,0 -4.918,3.574 -14.814,13.383 -23.285,11.936 -0.066,-0.622 -0.13,-1.243 -0.197,-1.865 3.76,-1.89 6.432,-4.643 9.393,-7.272 6.348,-5.637 7.713,-6.823 13.835,-13.865 0.077,-0.088 0.108,-0.48 0.086,-1.311 -0.01,-0.384 0.11,-1.537 -0.042,-1.59 -0.818,-0.284 -0.633,-0.138 -1.255,-0.105 -1.639,0.088 -0.923,0.074 -3.243,0.272 -4.594,0.391 -10.733,3.077 -12.907,0.084 -1.113,-1.532 -0.886,-3.657 -1.213,-5.523 -0.705,-1.364 -1.23,-3.74 -2.301,-5.146 -0.887,-1.165 -3.391,-2.981 -3.918,-4.15 -0.59,-1.308 0.607,-2.107 0.978,-2.61 4.303,-1.248 6.145,0.971 9.038,2.294 1.233,0.564 3.139,0.014 4.581,-0.063 2.353,-0.126 4.234,-0.266 5.512,-0.508 4.062,-0.768 6.115,-1.318 6.036,-3.571 -0.019,-0.527 0.086,-0.28 0.063,-1.726 -0.007,-0.422 -0.021,-0.967 -0.157,-1.192 -0.071,-0.118 -0.986,-0.252 -1.381,-0.094 -1.981,0.793 -2.687,1.006 -4.362,1.13 -4.676,0.345 -8.141,0.846 -11.202,-1.82 -0.973,-0.847 -0.505,-2.389 -0.439,-2.887 0.13,-0.186 1.974,-0.362 2.197,-0.408 5.999,-1.248 4.26,-0.742 7.405,-1.381 1.341,-0.272 7.916,0.143 7.866,-2.343 -0.03,-1.504 0.336,-3.418 -0.426,-4.044 -1.669,-1.372 -1.997,-0.249 -4.145,-0.195 -2.876,0.072 -6.027,0.089 -9.04,-3.52 10e-4,-1.37 0.245,-1.515 0.784,-2.239 3.934,-0.594 7.617,-0.815 9.919,-1.152 1.74,-0.255 2.94,-0.341 3.012,-1.632 0.172,-3.074 0.075,-5.838 0.126,-7.217 0.073,-2.002 -0.004,-1.541 -3.075,-5.899 -0.215,-0.305 -0.199,-2.003 -0.199,-2.376 0.287,-0.382 0.832,-1.187 1.266,-1.452 1.839,-1.022 3.954,-0.137 5.583,-1.161 z m 161.082,20.427 c 0.011,-0.371 0.084,-7.35 0.167,-7.615 0.24,-0.759 0.24,-1.538 0.528,-1.83 l 0.31,-0.348 c 2.366,-1.141 3.406,-0.134 4.036,1.007 0.603,1.691 0.44,7.601 0.398,8.954 -0.136,4.267 -0.085,4.479 -0.167,7.615 -0.051,1.945 0.331,6.72 0.377,8.284 0.047,1.616 0.163,2.854 0.335,3.556 0.214,0.875 0.515,1.703 1.925,1.966 3.138,0.586 5.216,0.021 10.418,-2.134 4.142,-1.715 5.659,-1.693 8.159,-3.766 1.715,-1.423 1.797,-3.342 2.817,-3.483 1.743,-0.241 2.172,0.638 2.748,0.638 0.98,1.274 3.476,7.506 2.803,9.288 -0.434,0.942 -0.434,0.942 -2.106,1.344 -4.101,0.987 -5.991,1.172 -9.734,2.422 -1.539,0.514 -2.552,0.74 -4.142,1.381 -2.423,0.976 -2.702,1.256 -5.515,2.002 -4.543,1.205 -10.61,1.555 -10.676,6.115 -0.065,4.479 0.126,3.514 -0.544,7.28 -0.308,1.732 -0.72,3.837 -1.417,5.849 -0.618,1.786 -0.709,3.234 -1.596,4.903 -2.517,4.737 -3.117,5.502 -7.698,6.945 -4.694,1.479 -10.659,2.636 -13.734,0.745 -0.227,-0.782 -0.335,-1.218 -0.174,-2.112 1.958,-2.4 5.457,-3.538 8.009,-4.972 2.762,-1.55 3.954,-2.28 6.255,-5.795 1.234,-1.885 3.401,-6.647 3.975,-8.828 0.392,-1.491 1.018,-3.691 1.083,-4.974 0.079,-1.553 0.2,-1.226 -0.031,-2.903 -2.798,-1.403 -6.679,-1.254 -9.837,-2.667 -1.672,-0.75 -3.87,-2.586 -4.832,-4.268 -1.569,-2.74 -0.753,-0.146 -1.862,1.464 -0.453,0.658 -0.941,-0.6 -1.653,-1.213 -0.717,-0.617 -2.406,-0.732 -2.636,-1.297 -0.225,-0.554 -0.584,-1.836 -0.126,-2.217 1.004,-0.837 2.28,-0.92 3.326,0.251 1.271,1.423 2.313,2.247 3.954,1.13 0.924,-0.629 3.388,-0.421 4.205,-0.408 1.318,0.021 3.915,0.17 5.083,0.126 1.176,-0.045 2.464,0.154 3.64,0.073 2.185,-0.15 2.319,0.287 2.907,-1.398 1.235,-3.539 0.809,-4.548 0.733,-8.497 m -49.834,28.347 c 0.389,-1.343 0.92,-5.104 1.255,-7.071 0.327,-1.921 0.557,-4.915 0.565,-7.552 0.009,-3.126 -0.825,-3.836 -2.04,-3.87 -5.586,-0.157 -10.527,-0.85 -15.451,0.117 -2.436,0.477 -2.738,0.49 -3.784,0.741 -0.211,0.051 -0.778,0.526 -0.769,0.743 0.061,1.522 0.078,0.957 0.099,1.924 0.01,0.478 0.059,3.08 -0.366,3.3 -1.003,0.52 -4.03,1.93 -5.178,3.813 -0.499,0.819 -0.973,1.036 -0.439,2.04 0.247,0.464 1.95,-0.036 2.918,-0.628 2.317,-1.416 3.333,-2.493 6.221,-2.605 0.742,0.537 1.484,1.076 2.226,1.613 -0.061,0.301 -0.124,0.599 -0.185,0.897 -1.249,2.071 -8.042,2.087 -10.529,4.53 0.061,0.538 0.03,1.32 0.008,2.436 -0.026,1.319 -0.605,2.328 0.628,2.824 1.769,-0.237 2.029,-1.285 3.954,-1.475 0.558,0.299 1.734,0.139 2.291,0.439 0.248,0.777 0.248,0.777 -0.187,2.009 -0.624,1.768 -0.865,1.696 -1.444,1.976 -1.82,0.879 -3.532,0.416 -5.24,1.255 -0.749,4.033 0.66,9.341 -1.119,13.587 -1.297,3.096 -0.937,3.281 -3.447,6.056 -1.036,1.145 -3.24,3.029 -4.095,2.856 -0.647,-0.131 -2.584,-0.795 -2.584,-2.469 0,-1.828 0.71,-0.839 1.631,-1.717 1.394,-1.331 1.583,-2.002 2.485,-4.12 0.323,-0.758 0.417,-1.375 0.822,-2.656 0.289,-0.915 0.742,-2.151 0.681,-3.109 0.2,-0.836 -0.008,-1.088 0.072,-2.498 0.084,-1.464 -0.597,-2.857 -1.789,-2.573 -1.579,0.377 -2.671,1.006 -5.272,1.13 -1.736,0.083 -3.966,0.478 -4.895,-0.753 -0.01,-1.154 0.051,-1.081 0.439,-1.726 3.233,-0.771 5.716,-1.521 8.504,-2.291 1.267,-0.35 1.925,-0.272 2.659,-1.002 0.549,-0.546 0.249,-1.028 0.228,-1.696 -0.063,-2.029 -0.155,-4.041 -0.155,-4.041 0,0 -3.793,1.411 -5.838,2.503 -1.599,0.854 -2.391,1.24 -4.268,-0.063 -1.13,-0.784 -0.986,-1.33 -0.753,-1.883 0.502,-1.192 0.188,-1.443 0.031,-3.326 -0.329,-3.945 -2.581,-3.535 -4.362,-5.178 -0.35,-0.323 -1.035,-0.941 -0.91,-1.906 0.322,-2.472 3.734,-3.79 5.005,-5.45 1.008,-1.317 1.349,-1.867 2.306,-3.69 0.529,-1.006 1.074,-2.321 1.538,-3.358 1.091,-2.439 3.577,-6.652 3.263,-10.481 -0.089,-1.084 -1.273,-2.416 -2.071,-2.604 -2.073,-0.49 -3.004,-0.698 -4.613,-0.157 -1.71,0.575 -2.896,1.059 -4.738,-0.471 -1.507,-1.252 -2.233,-2.682 -1.088,-3.381 1.794,-0.643 5.191,-0.106 6.924,-0.102 2.988,0.008 3.947,-0.155 6.119,-0.078 0.894,0.031 0.767,-0.296 0.8,-0.973 0.11,-2.244 -0.211,-6.296 0.063,-8.347 0.061,-0.46 -0.21,-1.315 0.216,-1.59 0.486,-0.314 1.738,-1.004 2.326,-0.779 1.954,0.746 5.646,3.589 3.824,2.158 -0.137,-0.108 1.321,0.816 1.17,1.901 -0.356,2.552 -1.088,2.688 -0.962,4.853 0.108,1.866 0.48,2.362 3.577,1.464 2.548,-0.738 5.583,-2.451 7.813,-2.657 0.972,0.475 1.428,1.375 1.098,2.416 -0.973,3.075 -3.086,3.373 -6.057,4.246 -1.728,0.507 -3.251,0.708 -4.769,1.245 -1.991,0.704 -1.715,0.408 -2.604,1.255 -1.945,1.851 -1.81,3.326 -2.406,5.146 -0.743,2.269 -1.511,3.888 -2.301,5.899 -0.365,0.929 -0.863,2.739 -1.271,3.734 -0.482,1.177 -1.696,4.157 -2.139,4.822 -0.887,1.327 -0.565,0.941 -1.381,2.343 -0.325,0.558 -0.306,1.862 0.335,1.794 1.757,-0.188 1.969,-0.005 3.28,-0.882 1.05,-0.703 3.559,-2.562 3.969,-1.974 0.973,1.396 -1.089,3.12 -2.134,4.456 -0.986,1.261 -2.642,2.571 -2.981,2.981 -0.228,0.276 -0.854,3.175 0.806,2.4 l 3.678,-3.129 c 2.607,-1.672 5.507,-7.067 4.741,-9.093 -0.662,-1.337 -0.894,-1.569 -0.957,-2.934 -0.019,-0.418 0.396,-1.223 0.988,-1.726 0.518,-0.439 1.492,-0.77 1.616,-0.832 8.87,-1.667 10.41,-0.916 18.456,-2.568 1.361,0 3.839,-0.491 5.188,-0.669 4.388,-0.58 6.75,-1.522 8.117,3.054 1.799,6.025 1.853,8.076 1.255,12.886 -0.31,2.493 -0.917,5.084 -1.645,7.488 -0.701,2.313 -0.996,3.807 -1.451,5.273 -0.48,1.546 -0.879,3.012 -1.673,5.222 -0.641,1.782 -1.532,4.391 -2.636,6.827 -1.659,3.663 -3.258,8.212 -8.117,8.41 -4.112,-1.967 -7.624,-5.424 -10.339,-8.818 -0.377,-0.471 -0.634,-1.763 0.141,-1.883 2.432,-0.377 8.321,1.234 10.575,-0.282 2.194,-1.476 2.963,-3.372 4.205,-6.684 m 140.977,-47.448 c 1.192,0.983 1.674,1.32 1.674,1.946 -0.003,3.532 -0.137,8.832 -0.377,11.631 -0.105,1.221 2.729,-0.915 2.95,-1.548 0.464,-1.329 1.366,-2.285 1.485,-4.686 0.085,-1.715 0.037,-2.635 0.042,-3.849 0.005,-1.284 0.091,-2.166 -0.92,-2.217 l -1.966,-0.586 z m 18.807,2.426 c -1.177,0.722 -0.874,1.049 -2.159,2.023 -0.576,0.437 -2.395,1.876 -3.489,2.433 -1.023,0.52 -0.915,0.149 -1.412,-0.533 -1.328,-0.446 -1.822,-0.235 -1.883,1.224 -0.083,1.982 -0.22,2.134 -0.188,3.593 0.028,1.322 -0.091,1.521 -0.016,2.903 0.014,0.253 0.17,2.965 0.382,3.107 1.35,0.901 3.003,0.244 4.289,0.084 4.696,-0.586 2.708,-3.746 0.607,-3.975 -2.258,-0.246 -2.51,-0.377 -2.427,-2.761 0.002,-0.057 -0.344,-1.9 0.021,-2.526 0.668,-1.144 0.503,-1.042 1.758,-1.804 0.667,-0.406 1.838,-0.723 2.217,-0.167 0.309,0.453 0.055,1.519 0.084,2.28 0.044,1.186 -0.042,3.619 1.067,2.636 0.821,-0.728 1.527,-2.314 2.301,-4.351 0.671,-1.766 0.908,-2.247 0.811,-3.677 -0.047,-0.69 -0.516,-0.729 -0.816,-0.784 z M 373.41,310.894 c -3.519,0.471 -9.037,-1.297 -8.535,4.519 0.175,2.028 1.408,1.474 2.636,1.423 1.932,-0.081 3.847,-0.414 4.707,0.397 0.439,0.414 0.742,1.382 0.753,2.28 0.014,1.066 -0.916,2.193 -1.192,2.469 -0.481,0.481 -1.157,0.159 -1.841,0.167 -2.528,0.031 -5.142,-0.629 -4.979,1.506 0.196,2.575 0.126,5.68 3.25,3.265 3.094,-2.393 11.942,-9.892 14.005,-13.303 1.088,-1.799 0.986,-3.337 0.527,-3.601 -1.199,-0.591 -2.803,-0.293 -4.811,0.126 z m 207.396,8.116 c 1.925,-0.711 3.471,3.006 3.682,4.393 0.564,3.707 -0.273,6.287 -2.118,11.203 -1.099,2.926 -8.708,5.322 -8.927,2.814 -0.586,-6.694 2.99,-7.105 4.339,-11.153 0.767,-2.298 0.829,-3.878 1.686,-5.582 z m -227.332,5.774 c -4.958,0.471 -6.621,-0.722 -7.97,1.13 -0.658,0.903 -1.072,2.156 -1.036,2.95 0.053,1.157 -0.159,2.692 1.381,2.856 3.109,0.33 4.456,0.251 8.127,-0.126 1.895,-0.194 2.604,-0.973 2.933,-2.993 0.152,-0.933 -0.015,-1.024 0.026,-2.604 0.008,-0.291 0.157,-1.123 -0.323,-1.182 z m 60.75,0.726 c 0.62,0 1.297,-0.259 1.862,0 1.338,0.613 2.844,3.542 3.096,5.048 0.745,4.472 0.187,5.721 0.063,7.845 -0.137,2.345 0.025,2.836 0.188,4.163 0.314,2.552 1.666,3.747 1.624,5.109 -0.076,2.463 0.426,2.171 -1.54,5.392 -0.669,1.097 -1.962,-0.132 -2.427,-0.837 -1.065,-1.617 -1.065,-1.617 -2.09,-3.254 -1.402,-2.239 -3.809,-2.989 -2.805,-7.749 1.003,-4.758 1.016,-1.615 1.004,-5.23 -0.014,-4.175 -1.361,-7.791 1.025,-10.487 z m 123.765,13.805 c 0.643,-0.264 2.401,0.238 3.698,0.907 1.18,0.609 1.494,1.169 2.761,2.008 0.851,0.563 1.628,0.989 2.552,1.423 1.339,0.628 1.991,1.211 2.51,1.883 1.417,0.989 2.328,1.943 3.347,3.284 1.082,1.422 2.077,3.139 2.887,4.895 0.597,1.295 1.819,4.543 1.004,7.092 -0.135,0.422 -1.725,1.613 -2.014,1.95 -0.577,-0.057 -1.154,-0.112 -1.731,-0.169 -3.042,-1.438 -6.924,-3.286 -8.493,-6.173 -1.267,-2.332 -1.959,-6.016 -3.138,-9.477 m -167.816,-0.126 c 5.511,0.924 9.001,2.371 13.158,3.535 4.601,1.285 6.621,2.082 6.862,5.355 0.182,2.475 -0.416,3.907 -2.197,6.987 -1.601,2.771 -3.05,2.283 -4.189,1.836 -0.671,-0.264 -1.03,-0.726 -1.522,-1.365 -1.255,-1.632 -1.215,-4.463 -1.318,-4.927 -0.628,-2.824 -7.082,-4.885 -10.672,-7.066 -1.923,-1.168 -4.095,-1.969 -2.81,-4.089 0.116,-0.055 0.458,-0.473 1.788,-0.393 z m 242.499,9.644 c -1.589,-0.029 -2.489,-0.335 -4.791,0.084 -2.345,0.426 -2.992,1.214 -4.811,2.845 -3.099,2.777 0.555,10.922 5.397,9.414 2.237,-0.697 4.895,-2.594 5.439,-6.36 0.182,-1.26 0.063,-4.205 0.063,-5.92 z" />&#10;	<path
   id="大礼堂正面_4_"
   fill-rule="evenodd"
   clip-rule="evenodd"
   fill="#ffffff"
   d="m 418.931,582.136 h 3.628 v -50.362 c 49.186,0 98.377,0 147.568,0 v 50.362 l 6.244,0.042 -0.042,6.814 -160.662,-0.119 0.062,-6.746 z m -2.678,12.902 H 576.58 v 13.046 H 416.253 Z m 154.804,19.054 v 36.481 h -17.384 l 0.063,-24.674 -19.581,-0.048 v 24.721 H 506.04 l 10e-4,-24.694 -18.829,0.272 0.126,24.423 h -29.12 l -0.007,-24.666 -18.695,0.369 0.126,24.297 h -17.531 v -36.481 c 49.644,0 99.297,0 148.946,0 z m -0.665,-106.767 -73.721,-24.746 -73.721,24.746 z m -89.259,34.886 v 39.384 h 29.206 v -39.384 z m -13.373,39.384 v -39.384 h -29.206 v 39.384 z m 56.957,-39.384 v 39.384 h 29.206 V 542.211 Z M 422.95,513.836 h 147.442 v 10.977 H 422.95 Z" />&#10;	<circle
   id="左点_4_"
   fill-rule="evenodd"
   clip-rule="evenodd"
   fill="#f2f2f2"
   cx="258.40601"
   cy="730.58801"
   r="10.166" />&#10;	<g
   id="southeast_4_">&#10;		<path
   fill="#ffffff"
   d="m 159.045,626.989 17.287,-7.496 0.642,1.584 c -4.075,2.52 -6.854,5.782 -8.336,9.784 -1.481,4.002 -1.534,7.703 -0.157,11.102 1.064,2.627 2.608,4.422 4.631,5.385 2.025,0.964 3.951,1.077 5.779,0.335 1.159,-0.469 2.08,-1.157 2.761,-2.062 0.909,-1.238 1.622,-2.92 2.138,-5.048 0.36,-1.553 0.735,-4.958 1.126,-10.212 0.531,-7.35 1.702,-12.635 3.514,-15.857 1.824,-3.196 4.46,-5.493 7.911,-6.891 4.377,-1.773 8.835,-1.593 13.371,0.542 4.536,2.135 7.868,5.829 9.995,11.083 0.669,1.648 1.131,3.273 1.391,4.877 0.26,1.603 0.374,3.701 0.344,6.291 -0.015,1.444 0.14,2.566 0.464,3.364 0.271,0.671 0.815,1.274 1.633,1.811 0.818,0.538 1.846,0.827 3.091,0.862 l 0.58,1.43 -19.778,8.01 -0.58,-1.43 c 5.104,-3.385 8.463,-7.286 10.077,-11.703 1.614,-4.416 1.665,-8.489 0.153,-12.224 -1.169,-2.884 -2.884,-4.864 -5.149,-5.94 -2.263,-1.077 -4.439,-1.192 -6.525,-0.348 -1.237,0.501 -2.301,1.314 -3.194,2.441 -0.892,1.126 -1.59,2.569 -2.091,4.33 -0.5,1.763 -0.899,4.681 -1.197,8.759 -0.413,5.713 -1.022,9.946 -1.826,12.7 -0.802,2.754 -1.995,5.102 -3.576,7.047 -1.58,1.945 -3.593,3.411 -6.04,4.402 -4.172,1.691 -8.347,1.597 -12.523,-0.279 -4.177,-1.876 -7.209,-5.144 -9.097,-9.806 -0.688,-1.698 -1.149,-3.43 -1.385,-5.194 -0.181,-1.336 -0.205,-3.042 -0.073,-5.12 0.133,-2.077 0.059,-3.463 -0.223,-4.158 -0.272,-0.67 -0.69,-1.114 -1.259,-1.334 -0.569,-0.22 -1.706,-0.178 -3.412,0.123 z"
   id="path6" />&#10;		<path
   fill="#ffffff"
   d="m 144.316,566.699 c -1.826,-8.82 -0.455,-16.47 4.115,-22.948 4.571,-6.477 10.993,-10.414 19.266,-11.81 7.068,-1.193 13.636,-0.174 19.704,3.057 8.049,4.277 12.916,11.416 14.603,21.416 1.693,10.027 -0.395,18.354 -6.266,24.98 -4.638,5.234 -10.642,8.473 -18.013,9.717 -8.273,1.397 -15.646,-0.254 -22.117,-4.952 -6.469,-4.7 -10.234,-11.186 -11.292,-19.46 z m 2.547,-0.938 c 0.86,5.096 4.119,8.534 9.771,10.312 4.638,1.443 10.958,1.49 18.958,0.139 9.507,-1.604 16.252,-4.461 20.236,-8.571 2.785,-2.864 3.823,-6.393 3.116,-10.585 -0.477,-2.821 -1.558,-5.063 -3.249,-6.722 -2.159,-2.115 -5.278,-3.518 -9.353,-4.212 -4.076,-0.692 -9.21,-0.517 -15.402,0.529 -7.369,1.244 -12.766,2.859 -16.192,4.846 -3.426,1.989 -5.714,4.171 -6.862,6.547 -1.148,2.379 -1.49,4.95 -1.023,7.717 z"
   id="path7" />&#10;		<path
   fill="#ffffff"
   d="m 138.87,509.162 1.985,-29.105 1.54,0.105 -0.1,1.455 c -0.15,2.19 -0.024,3.71 0.379,4.558 0.402,0.849 0.992,1.474 1.773,1.875 0.781,0.402 2.778,0.712 5.993,0.931 l 27.608,1.883 c 5.045,0.344 8.411,0.192 10.098,-0.46 1.689,-0.65 3.131,-1.812 4.331,-3.485 1.2,-1.672 1.891,-3.839 2.072,-6.5 0.209,-3.049 -0.3,-5.695 -1.526,-7.937 -1.226,-2.241 -3.008,-3.978 -5.347,-5.21 -2.339,-1.232 -6.501,-2.052 -12.489,-2.46 l -22.992,-1.568 c -2.522,-0.172 -4.342,-0.031 -5.459,0.422 -1.117,0.453 -1.91,1.067 -2.381,1.843 -0.723,1.204 -1.162,2.943 -1.317,5.215 l -1.54,-0.105 1.332,-19.501 1.538,0.105 -0.078,1.164 c -0.109,1.58 0.121,2.919 0.686,4.016 0.565,1.097 1.47,1.925 2.712,2.482 0.863,0.421 2.445,0.71 4.745,0.867 l 21.412,1.461 c 6.625,0.452 11.377,1.214 14.255,2.288 2.879,1.074 5.436,3.386 7.673,6.935 2.236,3.551 3.155,8.25 2.755,14.098 -0.332,4.879 -1.241,8.604 -2.725,11.176 -2.022,3.512 -4.47,5.919 -7.344,7.227 -2.874,1.308 -6.653,1.802 -11.339,1.483 l -27.608,-1.884 c -3.243,-0.221 -5.272,-0.177 -6.086,0.128 -0.814,0.306 -1.488,0.887 -2.019,1.742 -0.532,0.856 -0.865,2.476 -1,4.861 z"
   id="path8" />&#10;		<path
   fill="#ffffff"
   d="m 162.563,376.556 14.648,4.396 -0.43,1.437 c -3.636,-0.162 -6.347,0.053 -8.136,0.648 -1.788,0.594 -3.394,1.665 -4.815,3.21 -0.783,0.868 -1.553,2.566 -2.311,5.094 l -1.21,4.031 41.752,12.532 c 2.768,0.831 4.544,1.197 5.328,1.098 0.783,-0.098 1.569,-0.515 2.355,-1.251 0.786,-0.735 1.411,-1.875 1.874,-3.419 l 0.54,-1.796 1.477,0.443 -8.507,28.341 -1.477,-0.443 0.539,-1.796 c 0.472,-1.569 0.571,-2.918 0.3,-4.044 -0.165,-0.804 -0.639,-1.541 -1.426,-2.212 -0.55,-0.484 -2.183,-1.134 -4.897,-1.948 l -41.753,-12.532 -1.173,3.912 c -1.094,3.646 -1.117,6.525 -0.07,8.638 1.46,2.962 4.094,5.349 7.903,7.159 l -0.455,1.517 -14.649,-4.397 z"
   id="path9" />&#10;		<path
   fill="#ffffff"
   d="m 208.895,347.356 15.151,8.765 c 2.502,1.447 4.145,2.213 4.929,2.298 0.785,0.086 1.645,-0.139 2.581,-0.674 0.935,-0.533 1.799,-1.487 2.592,-2.857 l 0.939,-1.623 1.335,0.772 -14.796,25.577 -1.335,-0.772 0.939,-1.623 c 0.82,-1.418 1.23,-2.707 1.225,-3.866 0.025,-0.82 -0.274,-1.634 -0.896,-2.444 -0.425,-0.599 -1.863,-1.608 -4.316,-3.027 l -32.179,-18.615 c -2.502,-1.447 -4.141,-2.219 -4.919,-2.316 -0.779,-0.097 -1.636,0.122 -2.571,0.656 -0.935,0.535 -1.798,1.487 -2.592,2.858 l -0.939,1.623 -1.335,-0.772 14.796,-25.577 1.336,0.773 -0.94,1.623 c -0.82,1.419 -1.228,2.707 -1.225,3.866 -0.025,0.821 0.269,1.647 0.876,2.481 0.425,0.599 1.863,1.607 4.317,3.026 l 13.853,8.013 9.995,-17.28 -13.852,-8.014 c -2.502,-1.446 -4.141,-2.218 -4.92,-2.316 -0.779,-0.097 -1.639,0.128 -2.58,0.674 -0.942,0.547 -1.81,1.505 -2.603,2.876 l -0.919,1.587 -1.334,-0.772 14.775,-25.54 1.335,0.772 -0.919,1.588 c -0.834,1.443 -1.242,2.732 -1.225,3.866 -0.025,0.821 0.268,1.647 0.876,2.481 0.425,0.599 1.863,1.607 4.316,3.026 l 32.178,18.614 c 2.503,1.447 4.142,2.22 4.92,2.316 0.779,0.098 1.639,-0.127 2.581,-0.674 0.941,-0.546 1.809,-1.505 2.602,-2.876 l 0.92,-1.587 1.335,0.772 -14.776,25.541 -1.336,-0.772 0.919,-1.588 c 0.835,-1.442 1.243,-2.731 1.225,-3.865 0.025,-0.82 -0.266,-1.647 -0.876,-2.48 -0.425,-0.599 -1.863,-1.608 -4.316,-3.027 l -15.151,-8.765 z"
   id="path10" />&#10;		<path
   fill="#ffffff"
   d="m 237.206,263.142 16.714,15.807 0.774,-0.818 c 2.462,-2.604 3.43,-5.264 2.903,-7.982 -0.529,-2.717 -2.235,-5.745 -5.119,-9.085 l 1.088,-1.151 21.499,20.332 -1.088,1.15 c -2.57,-1.972 -4.971,-3.275 -7.199,-3.912 -2.23,-0.635 -4.088,-0.682 -5.577,-0.139 -1.488,0.543 -3.159,1.794 -5.01,3.751 l 11.566,10.939 c 2.262,2.138 3.735,3.351 4.422,3.636 0.685,0.286 1.439,0.319 2.258,0.099 0.818,-0.219 1.782,-0.914 2.889,-2.085 l 2.32,-2.453 c 3.627,-3.835 5.645,-7.748 6.054,-11.74 0.409,-3.991 -0.725,-8.21 -3.404,-12.655 l 1.06,-1.121 11.302,14.189 -33.561,35.488 -1.12,-1.06 1.288,-1.363 c 1.127,-1.19 1.822,-2.35 2.085,-3.478 0.214,-0.792 0.112,-1.654 -0.308,-2.586 -0.275,-0.68 -1.441,-1.994 -3.5,-3.941 l -27.01,-25.544 c -1.857,-1.756 -3.046,-2.784 -3.564,-3.084 -0.898,-0.466 -1.796,-0.608 -2.696,-0.426 -1.29,0.233 -2.566,1.015 -3.825,2.348 l -1.29,1.363 -1.12,-1.06 32.502,-34.367 12.143,11.482 -1.089,1.15 c -3.52,-2.22 -6.428,-3.411 -8.722,-3.574 -2.294,-0.162 -4.661,0.44 -7.099,1.804 -1.433,0.787 -3.619,2.735 -6.558,5.843 z"
   id="path11" />&#10;		<path
   fill="#ffffff"
   d="m 326.668,236.039 -16.637,11.032 1.06,5.897 c 0.366,1.958 0.879,3.436 1.539,4.431 0.876,1.32 2.052,1.939 3.533,1.858 0.871,-0.044 2.595,-0.786 5.171,-2.229 l 0.852,1.285 -15.665,10.387 -0.852,-1.285 c 1.522,-1.375 2.447,-2.997 2.774,-4.865 0.329,-1.868 0.102,-5.126 -0.681,-9.774 l -8.075,-48.752 0.66,-0.438 42.596,27.361 c 4.047,2.584 6.906,4.005 8.577,4.263 1.263,0.196 2.652,-0.124 4.164,-0.961 l 0.853,1.285 -22.785,15.109 -0.852,-1.285 0.937,-0.622 c 1.829,-1.213 2.946,-2.32 3.349,-3.321 0.263,-0.708 0.165,-1.41 -0.295,-2.104 -0.277,-0.417 -0.63,-0.799 -1.061,-1.147 -0.184,-0.177 -1.107,-0.815 -2.769,-1.914 z m -2.886,-1.788 -17.771,-11.568 3.532,21.011 z"
   id="path12" />&#10;		<path
   fill="#ffffff"
   d="m 382.54,162.972 7.228,17.402 -1.593,0.617 c -2.457,-4.113 -5.675,-6.942 -9.653,-8.486 -3.979,-1.543 -7.678,-1.653 -11.098,-0.329 -2.644,1.023 -4.463,2.54 -5.457,4.548 -0.994,2.009 -1.137,3.933 -0.424,5.773 0.45,1.166 1.124,2.098 2.019,2.793 1.223,0.927 2.894,1.666 5.014,2.215 1.547,0.383 4.946,0.811 10.193,1.282 7.341,0.645 12.608,1.898 15.8,3.76 3.168,1.873 5.425,4.545 6.768,8.016 1.705,4.405 1.455,8.859 -0.749,13.362 -2.204,4.503 -5.949,7.777 -11.235,9.824 -1.659,0.642 -3.291,1.08 -4.898,1.315 -1.608,0.234 -3.707,0.317 -6.295,0.247 -1.444,-0.036 -2.569,0.101 -3.371,0.412 -0.674,0.26 -1.286,0.795 -1.837,1.604 -0.551,0.81 -0.854,1.835 -0.909,3.078 l -1.439,0.557 -7.702,-19.9 1.438,-0.556 c 3.307,5.155 7.154,8.574 11.545,10.256 4.39,1.683 8.464,1.796 12.22,0.342 2.903,-1.123 4.909,-2.809 6.021,-5.056 1.11,-2.247 1.26,-4.421 0.447,-6.52 -0.481,-1.243 -1.278,-2.321 -2.39,-3.231 -1.112,-0.91 -2.546,-1.63 -4.299,-2.158 -1.752,-0.527 -4.666,-0.971 -8.737,-1.332 -5.707,-0.502 -9.931,-1.176 -12.671,-2.022 -2.74,-0.845 -5.07,-2.074 -6.99,-3.685 -1.919,-1.61 -3.356,-3.646 -4.309,-6.108 -1.624,-4.197 -1.467,-8.369 0.473,-12.517 1.941,-4.147 5.255,-7.128 9.945,-8.944 1.71,-0.661 3.448,-1.096 5.215,-1.304 1.339,-0.16 3.046,-0.158 5.12,0.007 2.076,0.165 3.462,0.112 4.163,-0.158 0.673,-0.261 1.125,-0.673 1.352,-1.239 0.228,-0.564 0.205,-1.702 -0.071,-3.413 z"
   id="path13" />&#10;		<path
   fill="#ffffff"
   d="m 463.538,146.959 2.415,15.103 -1.482,0.237 c -1.436,-3.344 -2.809,-5.692 -4.122,-7.044 -1.314,-1.352 -2.976,-2.331 -4.986,-2.938 -1.122,-0.327 -2.986,-0.282 -5.591,0.135 l -4.157,0.664 6.884,43.045 c 0.457,2.854 0.899,4.612 1.329,5.275 0.43,0.663 1.147,1.188 2.151,1.576 1.004,0.388 2.302,0.454 3.894,0.201 l 1.851,-0.297 0.243,1.523 -29.217,4.672 -0.244,-1.522 1.852,-0.296 c 1.618,-0.258 2.875,-0.755 3.77,-1.489 0.652,-0.498 1.11,-1.247 1.372,-2.245 0.195,-0.707 0.071,-2.46 -0.378,-5.258 l -6.884,-43.045 -4.032,0.645 c -3.76,0.601 -6.362,1.834 -7.808,3.696 -2.032,2.604 -3.034,6.014 -3.007,10.231 l -1.563,0.25 -2.415,-15.103 z"
   id="path14" />&#10;	</g>&#10;	&#10;		<text
   transform="matrix(0.9759,0,0,1,650.1373,610.3026)"
   fill="#ffffff"
   font-family="AdobeHeitiStd-Regular-GBpc-EUC-H"
   font-size="49.3125px"
   id="text14">南京</text>&#10;	<g
   id="university_4_">&#10;		<path
   fill="#ffffff"
   d="m 525.983,147.522 28.726,5.082 -0.268,1.517 -1.437,-0.253 c -2.161,-0.382 -3.685,-0.42 -4.572,-0.111 -0.888,0.308 -1.573,0.829 -2.055,1.562 -0.482,0.732 -1.004,2.686 -1.565,5.86 l -4.82,27.25 c -0.882,4.98 -1.089,8.341 -0.622,10.088 0.467,1.748 1.468,3.307 3.004,4.68 1.534,1.371 3.615,2.289 6.242,2.753 3.009,0.533 5.693,0.309 8.054,-0.669 2.359,-0.98 4.277,-2.567 5.752,-4.76 1.474,-2.194 2.734,-6.246 3.779,-12.155 l 4.015,-22.694 c 0.439,-2.49 0.494,-4.314 0.165,-5.473 -0.333,-1.159 -0.859,-2.014 -1.579,-2.564 -1.121,-0.847 -2.803,-1.47 -5.045,-1.866 l 0.268,-1.519 19.247,3.405 -0.269,1.519 -1.149,-0.204 c -1.559,-0.276 -2.914,-0.19 -4.065,0.254 -1.152,0.447 -2.07,1.257 -2.758,2.433 -0.511,0.813 -0.966,2.354 -1.369,4.624 l -3.738,21.135 c -1.157,6.54 -2.422,11.182 -3.797,13.93 -1.375,2.748 -3.947,5.044 -7.715,6.888 -3.767,1.845 -8.539,2.256 -14.311,1.236 -4.816,-0.852 -8.423,-2.153 -10.822,-3.904 -3.275,-2.384 -5.409,-5.075 -6.401,-8.073 -0.993,-2.997 -1.081,-6.809 -0.264,-11.432 l 4.82,-27.249 c 0.568,-3.201 0.74,-5.223 0.524,-6.065 -0.218,-0.843 -0.724,-1.574 -1.516,-2.194 -0.794,-0.62 -2.369,-1.124 -4.727,-1.513 z"
   id="path15" />&#10;		<path
   fill="#ffffff"
   d="m 622.149,171.357 12.225,43.085 9.362,-22.422 c 1.306,-3.127 1.74,-5.43 1.302,-6.906 -0.608,-2.001 -2.373,-3.581 -5.291,-4.74 l 0.594,-1.423 17.229,7.194 -0.594,1.423 c -2.323,-0.638 -3.957,-0.891 -4.9,-0.758 -0.943,0.132 -1.839,0.617 -2.684,1.453 -0.846,0.836 -1.783,2.484 -2.81,4.946 l -18.128,43.419 -1.308,-0.546 -17.136,-58.144 -13.842,33.151 c -1.253,3.001 -1.412,5.312 -0.48,6.936 0.934,1.625 2.284,2.806 4.054,3.544 l 1.23,0.514 -0.594,1.423 -18.498,-7.723 0.595,-1.424 c 2.881,1.174 5.128,1.419 6.738,0.736 1.61,-0.682 2.993,-2.409 4.148,-5.178 l 15.368,-36.804 -0.537,-1.85 c -0.525,-1.845 -1.119,-3.162 -1.783,-3.951 -0.665,-0.789 -1.781,-1.541 -3.348,-2.256 l 0.593,-1.423 z"
   id="path16" />&#10;		<path
   fill="#ffffff"
   d="m 670.153,258.791 -0.832,1.299 -24.889,-15.926 0.831,-1.298 1.58,1.01 c 1.381,0.884 2.651,1.349 3.807,1.397 0.819,0.061 1.645,-0.201 2.483,-0.787 0.617,-0.397 1.689,-1.789 3.215,-4.176 l 20.038,-31.313 c 1.556,-2.433 2.401,-4.037 2.532,-4.811 0.132,-0.772 -0.047,-1.639 -0.539,-2.597 -0.492,-0.958 -1.404,-1.864 -2.739,-2.717 l -1.58,-1.011 0.832,-1.3 24.888,15.926 -0.831,1.298 -1.58,-1.011 c -1.381,-0.883 -2.65,-1.348 -3.807,-1.396 -0.818,-0.062 -1.657,0.193 -2.516,0.764 -0.618,0.397 -1.69,1.79 -3.216,4.176 l -20.037,31.314 c -1.558,2.434 -2.397,4.041 -2.517,4.822 -0.12,0.781 0.067,1.649 0.558,2.608 0.492,0.958 1.405,1.864 2.74,2.716 z"
   id="path17" />&#10;		<path
   fill="#ffffff"
   d="m 759.994,263.964 -1.047,1.132 c -1.736,-1.152 -3.828,-1.59 -6.274,-1.317 -1.8,0.228 -5.291,1.446 -10.474,3.655 l -43.6,18.492 -1.01,-0.934 16.268,-46.144 c 1.963,-5.563 2.975,-8.959 3.036,-10.191 0.059,-1.231 -0.631,-2.684 -2.074,-4.356 l 1.046,-1.133 19.893,18.39 -1.047,1.132 -0.673,-0.622 c -1.797,-1.66 -3.228,-2.567 -4.295,-2.722 -0.753,-0.128 -1.402,0.103 -1.949,0.696 -0.338,0.367 -0.659,0.875 -0.957,1.526 -0.299,0.652 -0.988,2.502 -2.067,5.553 l -10.253,28.832 25.203,-10.81 c 3.036,-1.318 5.014,-2.251 5.937,-2.8 0.922,-0.547 1.629,-1.086 2.119,-1.617 0.566,-0.612 0.902,-1.304 1.011,-2.074 0.106,-0.771 -0.043,-1.571 -0.449,-2.401 -0.557,-1.158 -1.559,-2.406 -3.008,-3.746 l 1.046,-1.132 z"
   id="path18" />&#10;		<path
   fill="#ffffff"
   d="m 783.136,299.471 -18.863,13.167 0.644,0.923 c 2.051,2.939 4.461,4.424 7.228,4.458 2.769,0.033 6.079,-1.024 9.933,-3.173 l 0.906,1.298 -24.262,16.937 -0.906,-1.298 c 2.451,-2.118 4.213,-4.204 5.287,-6.258 1.073,-2.053 1.495,-3.865 1.265,-5.433 -0.229,-1.567 -1.116,-3.456 -2.659,-5.666 l -13.054,9.112 c -2.552,1.782 -4.037,2.98 -4.454,3.593 -0.42,0.613 -0.605,1.345 -0.555,2.192 0.048,0.847 0.534,1.93 1.457,3.253 l 1.932,2.767 c 3.02,4.328 6.445,7.098 10.271,8.306 3.826,1.209 8.186,0.952 13.083,-0.771 l 0.883,1.264 -16.184,8.197 -27.958,-40.051 1.264,-0.882 1.073,1.537 c 0.938,1.344 1.934,2.259 2.985,2.747 0.732,0.369 1.596,0.442 2.594,0.221 0.723,-0.131 2.245,-1.008 4.569,-2.63 l 30.483,-21.278 c 2.095,-1.464 3.343,-2.419 3.742,-2.867 0.637,-0.784 0.959,-1.634 0.963,-2.553 0.033,-1.31 -0.475,-2.718 -1.525,-4.221 l -1.074,-1.537 1.265,-0.883 27.076,38.787 -13.705,9.565 -0.906,-1.298 c 2.887,-2.999 4.644,-5.605 5.266,-7.819 0.624,-2.214 0.514,-4.653 -0.33,-7.317 -0.481,-1.563 -1.945,-4.098 -4.395,-7.607 z"
   id="path19" />&#10;		<path
   fill="#ffffff"
   d="m 794.431,373.922 -14.624,6.081 c -2.822,1.174 -4.526,2.086 -5.113,2.736 -0.587,0.65 -0.919,1.502 -0.991,2.556 -0.074,1.053 0.386,2.773 1.379,5.159 l -1.424,0.592 -11.106,-26.705 1.424,-0.593 c 1.002,2.412 1.907,3.955 2.714,4.626 0.806,0.674 1.64,1.034 2.503,1.081 0.861,0.048 2.704,-0.514 5.527,-1.688 l 33.863,-14.083 c 2.821,-1.173 4.526,-2.085 5.114,-2.736 0.586,-0.649 0.916,-1.501 0.99,-2.556 0.073,-1.054 -0.386,-2.773 -1.379,-5.159 l 1.424,-0.592 10.083,24.242 c 2.624,6.312 4.108,11.11 4.452,14.397 0.343,3.288 -0.274,6.343 -1.853,9.166 -1.579,2.823 -3.946,4.891 -7.102,6.204 -3.848,1.599 -7.606,1.538 -11.271,-0.188 -2.328,-1.108 -4.55,-3.089 -6.668,-5.938 l -12.446,19.89 c -1.6,2.591 -2.539,4.351 -2.814,5.278 -0.359,1.383 -0.288,2.783 0.212,4.199 l -1.424,0.593 -6.833,-16.431 16.788,-26.706 z m 25.589,-10.641 -22.857,9.505 0.912,2.194 c 1.483,3.565 2.918,6.097 4.31,7.595 1.39,1.498 3.149,2.4 5.277,2.704 2.126,0.303 4.562,-0.115 7.307,-1.257 3.977,-1.653 6.527,-3.805 7.653,-6.454 1.124,-2.65 0.829,-6.04 -0.888,-10.17 z"
   id="path20" />&#10;		<path
   fill="#ffffff"
   d="m 851.172,454.381 -18.402,4.049 -0.327,-1.677 c 4.482,-1.693 7.834,-4.362 10.054,-8.007 2.22,-3.645 2.979,-7.267 2.279,-10.868 -0.541,-2.781 -1.714,-4.838 -3.516,-6.172 -1.802,-1.333 -3.672,-1.811 -5.608,-1.435 -1.228,0.238 -2.261,0.737 -3.105,1.496 -1.129,1.04 -2.15,2.555 -3.064,4.546 -0.65,1.456 -1.67,4.726 -3.059,9.808 -1.928,7.111 -4.089,12.075 -6.486,14.891 -2.401,2.788 -5.429,4.538 -9.082,5.249 -4.636,0.903 -8.977,-0.127 -13.02,-3.091 -4.044,-2.964 -6.607,-7.226 -7.691,-12.79 -0.34,-1.745 -0.483,-3.43 -0.432,-5.054 0.052,-1.622 0.34,-3.703 0.866,-6.24 0.29,-1.415 0.353,-2.546 0.189,-3.391 -0.138,-0.709 -0.556,-1.405 -1.256,-2.09 -0.7,-0.685 -1.655,-1.163 -2.869,-1.438 l -0.294,-1.515 20.944,-4.076 0.295,1.514 c -5.657,2.347 -9.701,5.532 -12.129,9.557 -2.43,4.025 -3.26,8.014 -2.49,11.968 0.594,3.055 1.899,5.328 3.916,6.818 2.017,1.489 4.13,2.019 6.339,1.589 1.31,-0.255 2.51,-0.849 3.603,-1.784 1.092,-0.935 2.051,-2.218 2.881,-3.85 0.828,-1.634 1.777,-4.423 2.85,-8.367 1.499,-5.529 2.907,-9.568 4.222,-12.115 1.316,-2.549 2.935,-4.626 4.86,-6.233 1.922,-1.605 4.179,-2.66 6.771,-3.165 4.418,-0.86 8.497,0.031 12.237,2.671 3.742,2.64 6.092,6.429 7.052,11.365 0.351,1.799 0.472,3.588 0.365,5.363 -0.078,1.346 -0.38,3.026 -0.908,5.038 -0.529,2.014 -0.722,3.388 -0.578,4.125 0.138,0.709 0.465,1.225 0.981,1.55 0.517,0.324 1.641,0.501 3.374,0.531 z"
   id="path21" />&#10;		<path
   fill="#ffffff"
   d="m 798.648,510.719 -1.542,0.051 -0.987,-29.531 1.541,-0.052 0.063,1.875 c 0.054,1.638 0.391,2.947 1.007,3.927 0.412,0.709 1.097,1.241 2.055,1.599 0.677,0.282 2.43,0.378 5.263,0.282 l 37.154,-1.244 c 2.888,-0.097 4.687,-0.31 5.399,-0.638 0.712,-0.331 1.324,-0.969 1.834,-1.918 0.51,-0.949 0.738,-2.213 0.685,-3.796 l -0.062,-1.875 1.541,-0.052 0.988,29.531 -1.542,0.052 -0.062,-1.874 c -0.056,-1.639 -0.39,-2.948 -1.008,-3.927 -0.414,-0.71 -1.098,-1.256 -2.056,-1.642 -0.676,-0.284 -2.431,-0.378 -5.263,-0.282 l -37.155,1.243 c -2.888,0.097 -4.687,0.316 -5.397,0.66 -0.712,0.343 -1.324,0.989 -1.834,1.939 -0.51,0.947 -0.739,2.213 -0.685,3.796 z"
   id="path22" />&#10;		<path
   fill="#ffffff"
   d="m 846.132,580.78 -15.139,-2.177 0.214,-1.485 c 3.618,-0.378 6.269,-0.993 7.949,-1.846 1.681,-0.853 3.11,-2.149 4.286,-3.888 0.644,-0.976 1.156,-2.768 1.531,-5.381 l 0.599,-4.166 -43.148,-6.205 c -2.86,-0.411 -4.671,-0.511 -5.432,-0.296 -0.761,0.214 -1.475,0.742 -2.144,1.587 -0.669,0.843 -1.118,2.063 -1.347,3.66 l -0.267,1.855 -1.526,-0.22 4.211,-29.289 1.526,0.22 -0.267,1.856 c -0.232,1.623 -0.131,2.971 0.304,4.044 0.281,0.77 0.86,1.429 1.736,1.975 0.618,0.397 2.328,0.798 5.132,1.201 l 43.149,6.204 0.582,-4.043 c 0.541,-3.767 0.137,-6.618 -1.213,-8.552 -1.884,-2.713 -4.841,-4.682 -8.876,-5.908 l 0.227,-1.568 15.139,2.176 z"
   id="path23" />&#10;		<path
   fill="#ffffff"
   d="m 819.546,658.617 -1.44,-0.551 c 0.431,-1.828 0.436,-3.358 0.016,-4.589 -0.592,-1.716 -2.779,-4.902 -6.558,-9.562 l -14.729,-18.759 -12.766,-4.887 c -2.724,-1.044 -4.472,-1.549 -5.243,-1.517 -0.771,0.031 -1.572,0.373 -2.399,1.023 -0.83,0.649 -1.512,1.675 -2.049,3.075 l -1.132,2.958 -1.44,-0.551 11.34,-29.618 1.44,0.552 -1.057,2.763 c -0.596,1.556 -0.796,2.892 -0.598,4.01 0.104,0.814 0.524,1.584 1.257,2.31 0.514,0.524 2.093,1.293 4.74,2.306 l 10.587,4.053 27.366,-3.757 c 5.406,-0.758 8.699,-1.49 9.878,-2.198 1.179,-0.709 2.104,-1.901 2.777,-3.578 l 1.44,0.552 -9.686,25.298 -1.44,-0.552 0.431,-1.128 c 0.586,-1.532 0.776,-2.687 0.569,-3.464 -0.209,-0.779 -0.559,-1.263 -1.051,-1.451 -0.934,-0.358 -3.68,-0.22 -8.237,0.417 l -21.126,2.844 12.282,15.593 c 2.988,3.851 5.118,6.019 6.39,6.506 0.701,0.269 1.413,0.154 2.139,-0.341 0.987,-0.634 1.997,-2.107 3.03,-4.418 l 1.44,0.551 z"
   id="path24" />&#10;	</g>&#10;	<circle
   id="右点_4_"
   fill-rule="evenodd"
   clip-rule="evenodd"
   fill="#f2f2f2"
   cx="733.19501"
   cy="730.58801"
   r="10.166" />&#10;	<path
   fill="#ffffff"
   d="m 496.033,218.356 c -156.931,0 -284.926,128.138 -284.926,285.246 0,152.874 121.195,278.301 272.31,284.95 l -2.713,-4.036 C 333.003,776.5 215.009,653.409 215.009,503.602 c 0,-154.956 126.241,-281.339 281.024,-281.339 154.783,0 281.024,126.383 281.024,281.339 0,150.073 -118.409,273.343 -266.477,280.964 l -1.953,3.987 C 659.753,781.915 780.96,656.483 780.96,503.602 780.959,346.494 652.965,218.356 496.033,218.356 Z"
   id="path25" />&#10;</g>&#10;</svg>
