<svg width="485.998" height="153.565" xml:space="preserve" xmlns="http://www.w3.org/2000/svg"><path fill-rule="evenodd" clip-rule="evenodd" d="M397.87 70.447c-.15-1.462-.18-1.943-.283-5.94-.068-2.653-.015-4.268-.361-6.77-1.01-7.302-.49-5.12-2.097-10.634-.213-.732-1.118-6.242-1.196-7.001-.251-2.451.85-4.312 1.822-4.84 1.508-.816 3.539 1.38 4.427 2.535 2.545 3.309 3.672 6.39 4.018 8.378.256 1.467 1.06 8.358 1.068 8.484.248 3.528.653 7.209 1.005 10.495.377 3.519-.691 4.022 1.065 6.057.864 1 2.056.548 2.414.548 2.315-.517 2.717-3.522 2.396-6.118-.917-7.42-2.121-8.581-2.922-13.118-.566-3.205-.475-3.62-.707-5.216-.181-1.25-.57-3.09-.864-9.175-.188-3.896-.047-4.003.676-7.18.57-2.507 1.56-4.02 2.653-4.45 2.956-1.16 4.827-.708 4.983.585.867 7.215.985 7.904 1.115 12.796.133 5.006.642 6.025.77 8.932.133 3.004 1.006 7.4 1.178 11.783.2 5.09 1.205 11.567 4.86 6.7 1.315-1.751.185-3.845.466-6.134.325-2.645-.097-3.176.236-6.08.564-4.931-.19-6.316.189-13.008.117-2.08 1.859-3.22 1.79-3.692-.125-.88-.111-.631-1.382-3.96-1.32-3.455.817-17.705 1.005-24.21.068-2.356-.435-7.121 1.65-9.473 1.235-1.392 3.299-.58 5.34.453l1.258 1.055c.14 1.98-3.582 6.174 6.127 1.65 1.977-.921 5.797-3.252 8.719-2.027 2.419 1.014.754 6.04.754 6.127-.088.673-6.256 2.676-8.534 4.076-4.803 2.953-11.55.836-11.026 13.315-.056 1.256-.047 3.912-.141 6.504-.07 1.9 3.12-1.415 5.043-1.414.956 0 2.742 1.732 2.899 1.838.679.46 1.98 1.79 1.532 1.296.617.682 1.029 1.229 1.084 1.626.259 1.885.306 6.18 2.922 5.208 3.642-1.353 1.91-.695 4.336-1.791 1.16-.525 3.959.047 5.892-.33 2.509-.49 3.21-4.792 3.346-7.023.25-4.148-.066-5.241-1.602-6.504-2.155-1.772-5.434-1.225-9.662 0-5.043 1.46-6.592 6.033-9.214 5.844-.201-.014-2.055-.416-2.262-.448-.092-.757.047-.966.57-2.085 2.977-6.368 22.14-17.884 28.958-8.614 3.724 5.062 2.4 10.135 1.414 14.737-.943 4.399-2.371 7.718-3.205 10.997-.732 2.878-.466 3.078-1.005 6.22-.51 2.97-.431 2.133-.942 4.676-.361 1.795-1.813 6.285-.503 6.849 2.966 1.205 7.704-.02 10.275-.613 4.695-1.086 13.294 1.422 15.239 3.535 2.314 2.514-3.41 8.69-5.404 9.803-2.068.422-8.236 5.863-10.306 6.284-4.408 2.529-4.264 2.248-8.672 4.776-4.8 1.805-11.406-1.822-7.918 1.995 1.945 2.129 1.093 4.405-.384 8.116-1.483.555-4.587 2.457-6.151 3.274-1.687 2.155-1.74 2.039-2.262 3.142-1.773 3.734-6.57 9.235-2.77 9.12 9.389-.281 7.42 8.979 7.42 8.979s3.377-.908 7.415-.44c3.838.445 7.097-.388 9.175.126 4.324 1.07 8.2 6 9.898 9.442.646 1.309.179 2.595-1.084 3.016-1.414.47-2.985 1.225-4.163.424-2.66-1.808-3.101-3.435-5.404-3.833-5.342-.924-15.695-1.068-15.695-1.068s-.57 6.033-.66 6.316c-.916 2.839-4.202 7.818-5.562 9.756-2.545 3.629-8.416 6.407-11.36 7.117-13.667 3.299-19.298-6.497-16.935-20.675.817-4.902 4.565-7.872 9.175-9.112 3.895-1.047 11.096-.18 10.872-3.833-.19-3.08-.742-1.39-2.451-3.394-4.21-4.936-.684-6.672 1.885-9.316 1.626-1.673 1.59-2.117 2.357-3.346.567-.911 1.32-2.755 1.46-3.676.213-1.39-1.884-.801-4.005-.542-5.17.632-5.538 2.639-9.332 1.548-1.625-.468-2.94-1.641-2.168-2.797 1.634-2.451 1.423-2.717 3.236-3.582 2.283-1.09 2.985-1.508 5.954-3.158 4.258-2.366 5.737-3.161 8.107-3.346 1.727.639 4.084 1.436 6.433 1.013 4.385-.79 4.12-1.231 8.083-4.312 3.296-2.563 8.243-6.357 10.18-8.363.393-.406 2.32-1.611 4.543-4.057.466-.513.552-.857.524-1.885-.012-.448.093-.801-.165-1.367s-1.338-.705-2.852-.165c-.99.354-1.555.542-2.564 1.049-.171.086-2.72 1.422-2.888 1.51-1.173.61-1.688.647-2.82 1.21-2.761 1.377-2.138 1.17-5.314 1.74-.627.114-2.54 1.003-4.604 1.688-1.733.575-2.572 2.452-3.514.39-.377-.824-.707-1.601-.495-2.71.215-1.121.448-.918.573-2.121.038-.367-.051-1.063-.408-1.154-.596-.153.542.173-1.343-.33-1.326-.354-3.488 1.128-3.246.962 1.812-1.24-.88.895-3.046 1.135-1.148.127-1.79 1.204-2.734 2.097-1.464 1.384-2.592 2.027-4.053 2.239-2.185.317-2.262-1.131-4.713-1.791-2.411-.65-4.961.695-6.583 2.168-.967.877-.628.754-2.891 1.57-.677.246-2.451.567-5.165-.39-1.755-.62-.557-1.022-4.14-1.022-1.942 0-2.502.724-5.526-.347-1.188-.421-2.133-1.406-2.601-2.428M45.21 7.315c4.607-.08 8.719 2.835 9.995 5.985 1.414 3.488.943 4.747.943 7.07 0 2.592-.15 5.265-.283 6.41-.22 1.893-.278 2.592 0 5.326.202 1.989 2.898 2.357 4.619 3.943 1.72 1.586 2.096 4.743 1.194 7.1-.836 1.462-2.21 2.363-3.582 2.892-1.98.763-3.845 1.152-3.186 4.695.488.375.98.748 1.47 1.122 3.65.907 7.475-.426 10.263-.978 6.033-1.194 9.626-1.732 15.013-2.105 2.524-.484 6.179-.845 9.118-1.1 3.18 1.69 7.416 9.218 4.965 14.768-3.782 8.428-18.082 13.754-24.194 20.738-1.927 2.2-3.914 3.878-5.467 5.782-2.356 2.886-4.648 4.302-7.64 6.596-2.195 1.68-4.457 2.638-6.154 4.84-1.273.84-1.546 1.89-3.08 3.586-1.761 1.947-1.63 13.723-1.54 17.09.127 4.713-.188 9.442.142 13.4.069.826.849 2.315 1.508 4.573.215.736.395 3.602.377 4.619 0 0 .487 3.488-.267 5.75-.622 1.865-3.746 2.842-5.216 4.148-1.077-.092-3.008-.223-4.085-.314-2.693-1.232-5.46-3.813-7.667-5.467-3.807-2.851-7.451-2.23-8.17-7.415-.3-2.158-.015-1.507.596-2.352.127-.175 2.76.068 2.957-.023 3.398.04 5.742.323 8.822.159 3.52-.188 2.645-3.125 3.022-6.016.302-2.318 0-3.016-.126-6.598-.081-2.297.166-4.488-1.401-6.17h-.296c-7.387 5.369-22.25 20.102-34.974 17.929-.1-.934-.196-1.866-.296-2.802 5.648-2.838 9.66-6.974 14.109-10.923 9.535-8.466 11.585-10.248 20.78-20.825.115-.132.162-.722.13-1.97-.015-.576.166-2.308-.063-2.387-1.228-.427-.95-.207-1.885-.157-2.461.132-1.387.112-4.87.408-6.901.588-16.121 4.62-19.387.126-1.671-2.301-1.331-5.493-1.822-8.295-1.06-2.048-1.847-5.617-3.456-7.73-1.332-1.75-5.093-4.477-5.884-6.233-.887-1.964.912-3.165 1.469-3.921 6.464-1.874 9.23 1.458 13.575 3.445 1.852.847 4.715.02 6.88-.094 3.536-.19 6.36-.4 8.28-.763 6.1-1.154 9.185-1.98 9.065-5.364-.028-.791.13-.42.094-2.592-.01-.635-.031-1.453-.236-1.791-.107-.177-1.482-.38-2.074-.141-2.975 1.192-4.036 1.51-6.551 1.697-7.023.518-12.228 1.27-16.826-2.734-1.461-1.273-.76-3.588-.66-4.336.195-.28 2.965-.543 3.299-.613 9.01-1.874 6.399-1.114 11.123-2.074 2.014-.41 11.89.215 11.814-3.52-.046-2.258.505-5.132-.64-6.073-2.506-2.061-3-.374-6.225-.293-4.32.108-9.052.134-13.58-5.287.002-2.058.369-2.276 1.178-3.363 5.909-.893 11.44-1.224 14.899-1.73 2.613-.383 4.416-.512 4.525-2.451.259-4.618.113-8.77.189-10.84.11-3.007-.006-2.315-4.62-8.861-.322-.458-.298-3.01-.298-3.57.43-.573 1.25-1.782 1.902-2.18 2.763-1.537 5.94-.208 8.386-1.746zm244.948 30.68c.016-.556.126-11.04.25-11.436.36-1.141.362-2.31.794-2.75l.465-.522c3.554-1.714 5.115-.201 6.063 1.513.905 2.54.662 11.417.597 13.448-.204 6.409-.127 6.727-.251 11.437-.077 2.92.498 10.093.566 12.443.07 2.427.245 4.286.503 5.342.32 1.315.774 2.558 2.89 2.954 4.714.88 7.836.03 15.649-3.205 6.22-2.577 8.5-2.543 12.254-5.656 2.577-2.137 2.7-5.02 4.23-5.231 2.62-.362 3.263.958 4.128.958 1.472 1.914 5.22 11.274 4.21 13.95-.652 1.415-.652 1.415-3.163 2.019-6.16 1.482-9 1.76-14.621 3.637-2.311.772-3.833 1.112-6.221 2.074-3.64 1.466-4.058 1.886-8.284 3.007-6.823 1.81-15.937 2.335-16.036 9.184-.098 6.727.189 5.279-.817 10.935-.462 2.6-1.082 5.763-2.128 8.786-.928 2.683-1.065 4.857-2.397 7.365-3.78 7.115-4.682 8.264-11.563 10.432-7.051 2.22-16.01 3.959-20.63 1.118-.34-1.175-.502-1.83-.261-3.171 2.94-3.604 8.197-5.315 12.03-7.468 4.148-2.33 5.939-3.425 9.395-8.704 1.854-2.831 5.108-9.984 5.97-13.26.589-2.24 1.529-5.543 1.626-7.47.118-2.333.3-1.842-.047-4.36-4.203-2.107-10.032-1.883-14.776-4.006-2.512-1.126-5.813-3.885-7.258-6.41-2.357-4.116-1.131-.22-2.797 2.199-.681.989-1.413-.901-2.482-1.822-1.077-.927-3.615-1.1-3.96-1.948-.337-.831-.876-2.757-.188-3.331 1.508-1.257 3.425-1.383 4.996.377 1.909 2.138 3.474 3.376 5.939 1.697 1.388-.945 5.089-.632 6.316-.613 1.98.03 5.88.256 7.635.189 1.767-.067 3.7.23 5.467.11 3.282-.225 3.483.43 4.366-2.1 1.855-5.315 1.215-6.832 1.1-12.762m-78.845 42.575c.585-2.018 1.383-7.667 1.885-10.62.49-2.886.837-7.383.848-11.343.014-4.695-1.238-5.762-3.064-5.813-8.39-.236-15.812-1.276-23.208.175-3.66.717-4.113.736-5.684 1.113-.317.076-1.168.789-1.155 1.115.092 2.286.118 1.438.149 2.89.016.718.088 4.626-.55 4.957-1.507.782-6.053 2.899-7.777 5.727-.75 1.23-1.461 1.555-.66 3.064.37.697 2.929-.054 4.383-.943 3.48-2.126 5.006-3.744 9.343-3.912l3.344 2.423-.278 1.348c-1.876 3.11-12.08 3.135-15.815 6.804.092.808.045 1.982.012 3.659-.04 1.98-.91 3.497.943 4.242 2.657-.356 3.048-1.93 5.939-2.215.838.448 2.605.209 3.44.66.373 1.168.373 1.168-.28 3.018-.938 2.655-1.3 2.548-2.17 2.968-2.734 1.32-5.305.625-7.871 1.885-1.125 6.058.99 14.03-1.681 20.408-1.948 4.65-1.408 4.928-5.177 9.096-1.555 1.72-4.867 4.549-6.151 4.289-.972-.197-3.881-1.194-3.881-3.708 0-2.746 1.067-1.26 2.45-2.58 2.094-2 2.378-3.007 3.732-6.188.485-1.14.626-2.066 1.234-3.99.434-1.374 1.114-3.231 1.023-4.67.3-1.255-.012-1.634.109-3.751.126-2.2-.897-4.292-2.687-3.865-2.372.566-4.011 1.51-7.918 1.697-2.607.124-5.956.717-7.353-1.131-.016-1.733.076-1.624.66-2.592 4.856-1.158 8.585-2.284 12.773-3.441 1.904-.526 2.89-.408 3.993-1.506.825-.821.374-1.543.343-2.548a458.77 458.77 0 0 0-.233-6.07s-5.697 2.12-8.77 3.76c-2.401 1.284-3.59 1.864-6.41-.093-1.696-1.178-1.48-1.998-1.13-2.828.754-1.791.283-2.168.047-4.996-.494-5.925-3.877-5.31-6.551-7.777-.526-.486-1.555-1.414-1.367-2.862.483-3.713 5.609-5.692 7.518-8.186 1.514-1.978 2.026-2.805 3.464-5.542.794-1.511 1.613-3.486 2.309-5.043 1.638-3.663 5.373-9.992 4.902-15.742-.133-1.63-1.912-3.63-3.111-3.912-3.113-.735-4.511-1.05-6.928-.236-2.568.864-4.35 1.59-7.117-.707-2.264-1.88-3.355-4.03-1.634-5.08 2.695-.965 7.797-.16 10.4-.152 4.488.01 5.928-.232 9.19-.118 1.344.047 1.153-.444 1.203-1.461.165-3.37-.316-9.457.094-12.537.092-.691-.316-1.975.324-2.388.73-.471 2.61-1.508 3.493-1.171 2.935 1.12 8.48 5.39 5.744 3.24-.206-.161 1.985 1.226 1.758 2.856-.534 3.833-1.634 4.038-1.445 7.29.163 2.803.72 3.547 5.373 2.199 3.827-1.11 8.386-3.682 11.736-3.991 1.46.713 2.144 2.065 1.65 3.629-1.461 4.619-4.635 5.066-9.097 6.378-2.596.762-4.882 1.064-7.163 1.87-2.991 1.057-2.576.613-3.912 1.885-2.922 2.78-2.718 4.996-3.613 7.73-1.116 3.408-2.27 5.839-3.456 8.86-.55 1.397-1.296 4.114-1.91 5.61-.724 1.768-2.546 6.244-3.212 7.243-1.332 1.993-.848 1.414-2.074 3.519-.488.838-.46 2.797.503 2.694 2.639-.283 2.957-.007 4.926-1.325 1.578-1.056 5.346-3.848 5.96-2.964 1.462 2.097-1.635 4.687-3.204 6.693-1.482 1.895-3.968 3.862-4.478 4.478-.343.414-1.283 4.769 1.21 3.605l5.526-4.7c3.916-2.511 8.272-10.615 7.12-13.658-.993-2.01-1.342-2.357-1.437-4.407-.03-.627.595-1.837 1.485-2.592.778-.66 2.24-1.157 2.427-1.25 13.323-2.502 15.636-1.376 27.722-3.856 2.044 0 5.766-.738 7.793-1.005 6.59-.871 10.139-2.286 12.192 4.588 2.702 9.049 2.783 12.13 1.885 19.356-.465 3.745-1.377 7.636-2.471 11.247-1.053 3.474-1.496 5.718-2.18 7.92-.72 2.322-1.32 4.525-2.512 7.844-.963 2.677-2.302 6.596-3.96 10.254-2.491 5.502-4.893 12.335-12.19 12.63-6.177-2.954-11.452-8.146-15.53-13.243-.566-.707-.952-2.648.212-2.828 3.653-.566 12.498 1.853 15.884-.424 3.296-2.216 4.45-5.064 6.316-10.04M426.133 39.16c1.79 1.477 2.514 1.983 2.514 2.922-.004 5.305-.205 13.266-.566 17.47-.157 1.834 4.098-1.374 4.43-2.325.697-1.996 2.05-3.432 2.23-7.038.129-2.577.056-3.958.064-5.782.008-1.93.136-3.253-1.383-3.331l-2.954-.88zm28.248 3.645c-1.767 1.084-1.313 1.575-3.243 3.039-.865.656-3.597 2.818-5.241 3.654-1.536.78-1.374.224-2.121-.801-1.994-.67-2.736-.353-2.828 1.838-.124 2.977-.33 3.205-.283 5.397.043 1.986-.137 2.284-.024 4.36.02.38.256 4.454.573 4.666 2.027 1.353 4.51.366 6.44.126 7.055-.88 4.069-5.626.912-5.97-3.392-.37-3.771-.566-3.645-4.148.003-.085-.517-2.854.03-3.794 1.004-1.72.756-1.564 2.64-2.71 1.003-.61 2.76-1.086 3.33-.252.466.68.084 2.282.127 3.425.066 1.782-.063 5.436 1.602 3.959 1.233-1.094 2.293-3.476 3.456-6.536 1.008-2.652 1.364-3.376 1.218-5.522-.071-1.037-.774-1.096-1.225-1.178zM64.317 60.683c-5.286.707-13.574-1.948-12.82 6.787.263 3.047 2.114 2.214 3.959 2.137 2.902-.122 5.779-.622 7.07.597.659.622 1.114 2.075 1.13 3.425.02 1.6-1.375 3.293-1.79 3.708-.723.723-1.738.239-2.765.25-3.797.047-7.723-.944-7.478 2.263.295 3.868.19 8.532 4.88 4.904 4.648-3.594 17.938-14.857 21.036-19.982 1.634-2.702 1.48-5.012.79-5.41-1.8-.887-4.21-.44-7.226.19zm317.512 12.19c2.89-1.067 5.213 4.516 5.53 6.599.847 5.568-.41 9.443-3.182 16.826-1.651 4.396-13.08 7.993-13.41 4.226-.88-10.055 4.492-10.671 6.518-16.753 1.153-3.451 1.245-5.825 2.533-8.385zM34.373 81.547c-7.447.707-9.945-1.084-11.972 1.697-.99 1.357-1.61 3.238-1.555 4.43.079 1.737-.24 4.043 2.074 4.289 4.669.496 6.693.377 12.207-.19 2.847-.291 3.912-1.46 4.406-4.494.228-1.402-.023-1.538.039-3.911.01-.438.235-1.687-.486-1.775zm90.248 1.09c.93 0 1.948-.39 2.797 0 2.01.92 4.272 5.32 4.65 7.583 1.12 6.717.28 8.594.094 11.783-.205 3.522.038 4.259.283 6.253.47 3.833 2.502 5.628 2.439 7.674-.114 3.7.64 3.26-2.314 8.099-1.006 1.647-2.947-.198-3.645-1.257-1.6-2.43-1.6-2.43-3.14-4.888-2.104-3.364-5.72-4.49-4.213-11.64 1.507-7.146 1.526-2.425 1.508-7.854-.02-6.272-2.044-11.703 1.54-15.753zm189.896 20.736c.966-.397 3.606.357 5.554 1.363 1.773.915 2.244 1.756 4.148 3.016a28.716 28.716 0 0 0 3.833 2.137c2.01.943 2.99 1.818 3.77 2.828 2.13 1.486 3.497 2.918 5.028 4.933 1.625 2.136 3.12 4.715 4.336 7.353.897 1.945 2.733 6.823 1.508 10.652-.203.633-2.591 2.422-3.025 2.928l-2.601-.254c-4.568-2.16-10.4-4.936-12.756-9.272-1.904-3.503-2.942-9.037-4.713-14.234m-255.062-.19c8.278 1.388 13.519 3.563 19.764 5.31 6.91 1.93 9.944 3.128 10.306 8.045.274 3.717-.625 5.868-3.3 10.495-2.404 4.16-4.58 3.43-6.291 2.757-1.008-.396-1.547-1.09-2.286-2.05-1.885-2.451-1.825-6.703-1.98-7.4-.943-4.242-10.637-7.337-16.03-10.613-2.887-1.755-6.15-2.957-4.22-6.142.175-.083.689-.711 2.686-.59zm370.237 14.486c-2.387-.044-3.74-.503-7.195.126-3.523.64-4.494 1.824-7.227 4.273-4.654 4.17.833 16.405 8.107 14.14 3.36-1.047 7.353-3.896 8.17-9.552.273-1.893.094-6.316.094-8.892z" style="fill:#fff"/><path clip-rule="evenodd" fill="none" d="M.249 152.781h492.487v89H.249z"/></svg>