<svg width="1000" height="1000" xml:space="preserve" xmlns="http://www.w3.org/2000/svg"><g style="opacity:.1"><circle fill="#FFF" cx="500.957" cy="498.996" r="396.066"/><path d="M500 892.034c215.009 0 390.372-175.362 390.372-390.371S715.009 111.292 500 111.292 109.628 286.654 109.628 501.663 284.991 892.034 500 892.034zm0 14.216c-222.84 0-404.588-181.748-404.588-404.587S277.16 97.076 500 97.076s404.588 181.748 404.588 404.587S722.84 906.25 500 906.25z"/><circle fill="#FC0" cx="496.403" cy="501.585" r="376.487"/><path fill="#FFE610" stroke="#000" stroke-width="4" stroke-miterlimit="10" d="M500 877.74c205.954 0 373.93-168.941 373.93-376.077S705.953 125.586 500 125.586 126.07 294.527 126.07 501.663 294.047 877.74 500 877.74zm0 2.758c-207.464 0-376.672-170.18-376.672-378.835S292.536 122.828 500 122.828s376.672 170.18 376.672 378.835S707.464 880.498 500 880.498z"/><circle clip-rule="evenodd" fill="none" cx="500" cy="499.5" r="404.588"/><circle clip-rule="evenodd" fill="none" stroke="#E6B800" stroke-width=".216" stroke-miterlimit="2.414" cx="500" cy="499.5" r="286.465"/><path clip-rule="evenodd" fill="none" d="M271.7 390.584h460.161L500.654 791.046 271.7 390.584z"/><path clip-rule="evenodd" fill="none" d="M496.866 401.44v8.419l-21.76 5.83v11.691l4.625 2.67v3.787s-63.171 7.755-77.419 76.404l-12.953 1.295v9.067l-35.62 1.295-3.886 5.829 77.068 132.764 150.898 1.295 79.011-132.764-5.829-7.124h-34.324l-.648-9.714h-11.657s-12.953-66.058-80.306-78.363v-5.829h7.772l-1.943-11.01-20.077-6.476-1.295-7.124-5.181-5.181-6.476 3.239z"/><path fill-rule="evenodd" clip-rule="evenodd" d="M621.312 770.506c2.364.074 8.782 4.414 7.433 7.789-1.069 2.485-3.415 4.675-5.915 5.616.113 1.209.019 1.189-.505 1.993-.452.122-.903.243-1.351.362-.282-.24-.564-.482-.846-.724v-.363c-.612-2.651 1.556-3.449 1.351-5.436-.166-1.615-2.061-6.972-2.026-7.247.339-1.227 1.018-1.343 1.859-1.99zm-9.976 12.96c.394.122.786.243 1.18.362-.056 2.176-.11 4.35-.167 6.523-.676.785-1.351 1.571-2.029 2.356-3.964.049-5.564-3.273-7.263-5.616.126-.808.211-.762.505-1.27h.169c2.181.104 2.827 1.259 5.069 1.449.312-1.778 1.586-2.694 2.536-3.804zm17.052 2.342h1.519c.509.483 1.014.964 1.522 1.449l-.17 1.448c-.718 1.489-6.908 4.14-8.952 4.712l-.338.724c.219 1.283.774 2.363 1.352 3.259 2.535.172 5.051-1.86 6.757-3.259 1.557.092 2.765 1 1.858 2.535-2.133 3.608-7.642 2.718-8.278 8.334.71 1.896 1.27 2.159 2.363 3.442-.498 2.858-11.267 9.478-13.853 12.141-2.197.043-3.354-.672-4.56-1.632.057-.484.114-.968.168-1.449.394-.304.788-.606 1.183-.907 1.35-.373 1.917.386 3.043.724 1.305-3.865 7.531-2.46 7.771-7.609-.577-1.24-1.258-1.884-2.196-2.718-2.746.496-4.92 4.51-8.108 3.263-.338-.243-.676-.484-1.014-.725.036-.819.117-.979.338-1.452 1.888-.067 9.099-5.486 9.797-6.884-.221-1.487-.991-1.622-1.688-2.536-.508-.06-1.013-.121-1.522-.179-1.786 1.424-3.588 2.958-5.068 4.708-1.952.05-2.92-.502-4.053-1.266-.092-2.674 3.562-3.04 5.236-4.348 1.436-1.124 3.388-1.737 4.898-2.899 3.085-2.374 5.733-6.166 9.125-8.153.956-.24 1.911-.484 2.87-.723zm-285.776-5.669 1.258.325c.668 1.885 3.053 2.56 3.373 4.705 1.492 10.076-8.851 10.91-10.266 16.618.122.013 3.21 1.223 3.326 1.255 3.465.965 3.389.753 6.213 1.443 4.102 1.003 12.642 5.754 16.505 5.46 2.543-.195 3.7-.946 6.398-.869 2.04 1.198 7.95 7.154 6.281 10.305-1.419 2.569-4.834 1.352-6.832.025-5.933-3.942-14.563-7.149-21.915-10.847-4.336-2.179-14.85-.131-16.67-1.216-1.886-.954-2.664-4.434-1.084-7.107l6.58-6.282c1.367-1.497 1.681-3.139 2.932-4.976 1.051-1.21 2.105-2.418 3.155-3.629l-.51-3.832 1.256-1.378zm48.237 8.622c4.853.668 4.608 4.226 5.635 8.135.299 1.14 1.33 2.344.756 3.65-2.42 4.322-11.235.68-11.095-3.568 1.02-1.212 2.043-2.422 3.066-3.633.733-2.131.028-2.99 1.238-4.426l.4-.158zm38.22 38.185c-5.789 1.139-13.398 15.598-20.225 14.577l-.991-.348-.074-1.409c1.357-2.347 4.72-2.643 7.144-4.342 1.895-1.326 11.758-13.629 12.273-15.589l-.223-1.203-.987-.348c-4.889.922-5.98 2.956-7.141 3.709-.381.247-3.727 1.956-3.169 1.632-1.799 1.046-2.178.963-3.431 1.82-1.59 1.088-2.053.79-3.114.59-.362-.068-1.623.49-1.99.498-.9 1.357-1.097 1.252-3.18 1.883-.492-.323-.889-.513-1.381-.837-.302-2.446 1.351-5.31 3.012-6.694 1.506-1.255 2.093-1.501 3.389-1.506 1.663-.006 1.816-1.003 2.698-1.462 1.443-.753 2.121.523 5.461.123 1.443-.173 2.521-.564 3.724-1.381 1.155-.385 1.553-.064 2.205-.143 4.535-.552 7.121-5.831 8.771-8.55-.397-2.352-.877-10.088-.28-11.489.006-.15.073-.743-.266-.749-1.658-.031-3.032-1.428-2.807-1.876.028-3.871 7.241-1.655 8.215.432 2.478 5.326-.816 10.02-.644 14.499 1.077 1.184 1.947 1.563 2.372 3.824-.391 1.439-.894 2.339-3.015 2.688.596.794.999 2.045 2.233 2.071 2.287-1.568 11.173-14.387 10.819-17.449-1.593-1.737-1.494-2.278-.407-4.188l.181-.034c3.544-.557 9.358 4.683 7.646 8.35-2.46 5.279-6.144 10.483-10.644 14.402-2.352 2.047-6.726 2.57-7.961 5.913-.835 2.249-.711 4.132-1.212 6.438-.284 1.305-1.792 2.849-2.04 3.985-.551 2.525-.12 1.085-.572 4.805-.084.69-.186 1.844-.101 2.3.112.497.014.288.1.759.232 3.318-.48 6.116-2.844 7.756-3.349 2.325-6.658-.627-8.017-1.777.544.46-.299-.377-.79-.859-.113-.274-.327-.771-.439-1.046.205-.747.37-.64.987-1.13 1.558-.858 3.491-.459 4.667-1.752 1.316-1.449 2.667-13.687 2.048-16.893zm208.271-29.923c1.246 0 1.504.251 2.196.724l.171 1.812c-1.469 3.103-6.482 2.954-8.616 6.704l-3.38-.183c-.225-.118-.449-.24-.676-.362l.171-1.087c.925-2.134 7.673-6.099 10.134-7.608zm-276.098-10.546 2.106.425c1.105 1.293 1.374 1.605 2.61 3.055 3.111 1.581 4.915-.715 7.292 1.378l-.021.194c-.176 1.089-.32 1.126-.768 1.703-3.187 1.056-4.436 5.29-7.49 5.942-2.802.597-7.27-6.972-5.723-10.528.662-.723 1.329-1.447 1.994-2.169zm203.597 6.966c1.966.102 2.95.995 3.775 2.171l-.19 1.446c-3.451 1.772-19.026 4.114-20.187 6.148a2063.16 2063.16 0 0 1 1.509 4.158c-4.679 5.542-14.154 7.98-16.789 15.188.063.061.123.121.187.181 5.123.044 8.19-2.369 12.831-3.074.063.058.127.119.187.18v.905c-3.996 2.86-13.185 6.26-19.055 6.871-.557-.68-1.276-1.004-2.073-1.447-.261-1.123-.792-2.973-.377-3.978.941-1.763 3.56-1.714 5.093-2.892 3.151-2.419 9.702-7.303 11.319-10.85-.103-.895-.163-1.047-.754-1.445-1.642-.985-3.746-.146-5.661 0-3.109.233-5.498-1.07-7.547-2.532.042-.817.134-.977.378-1.448 4.394-.502 7.781-1.611 11.51-2.35h3.019c1.278-.303 1.897-1.088 3.585-1.264.606-.136.711.067 1.077-.066.202-.074.354-.095.532-.245 3.364-2.834 13.703-3.871 17.631-5.657zm88.195 8.013c2.449-.053 3.737 1.46 4.391 3.259v1.269c-.785 1.24-1.421 2.314-3.379 2.356-4.737-1.835-11.62 2.285-13.684 1.449v-.907c2.704-4.229 9-4.284 12.672-7.426zm-20.094 6.175c1.701-.149 2.954.216 2.702 1.631l.507 3.622c-.748 2.277-3.356 4.48-5.405 4.891l-.171 1.815c-.338-.122-.675-.244-1.013-.363a38.23 38.23 0 0 1-.168-.363c.145-3.384 2.508-5.422 3.209-8.153.38-1.473-.243-2.008.339-3.08zm-9.471 9.965c.337.061.675.121 1.013.179.337.304.675.606 1.013.907-.056.484-.11.966-.167 1.449-1.849.512-1.876 3.596-3.548 4.35l-2.872-.183c-.614.19-1.19.736-2.196.907.641 1.734-.183 2.504-1.184 3.442-1.237 0-4.446-.896-4.728-.724-.216.129-.555 1.559-.846 1.811-1.239.907-2.478 1.81-3.718 2.718h-1.351c-3.535 2.516-7.347 9.447-13.177 5.253l-.167-1.269c2.822-3.137 3.027-.86 6.082-1.266 1.053-3.221 3.336-2.65 6.082-3.987 5.631-2.743 9.294-8.394 14.528-11.414.505.183 1.014.362 1.519.545.959-1.209 2.728-1.486 3.717-2.718zm18.584-.198 1.857.183c.398.05.557.427 1.226.412.462-.01.909-.034 1.645.491v5.798c-.562.663-1.124 1.33-1.69 1.994v5.798c-1.173 2.953-2.528 1.075-3.547 1.628-1.344.73-3.486 2.638-5.068 3.08l-3.04.183c-1.625.589-2.033 2.185-4.056 2.356-3.088-1.736-4.766-6.436-6.924-9.241-.932-1.208-2.679-.533-3.719-1.632 0-1.146.147-1.374.509-1.993 8.822-.222 7.641 3.927 11.993 8.516 3.731-.036 7.507-3.221 9.462-5.436-.169-.785-.34-1.57-.507-2.355-.189-1.824.637-3.04.168-4.892-.449-.118-.9-.24-1.352-.363-1.718.785-2.678 2.398-4.39 2.901l-.171-.182c-.177-1.822-.081-2.362.676-3.442 2.529-.872 1.35-1.804 2.872-2.897 1.351-.303 2.705-.606 4.056-.907zm-84.694-4.165c7.341-.043 10.863.564 14.716 4.52-.063.483-.126.963-.186 1.446-.378.76-.748.9-1.512 1.267-3.511-.6-6.174-3.263-9.243-4.158-1.729-.505-3.954-.153-5.284-.906v-.179c.154-1.364.634-1.396 1.509-1.99zm-90.309-4.093c3.885-.877 10.116 1.411 8.907 6.161-.166.801-.289 1.001-1.03 1.435-2.069 1.34-7.454-.118-11.554-.286-3.851-.157-7.571.654-10.2-1.367l-.127-.686 1.031-1.435c1.86-.309 11.253-1.25 12.238-2.798.242-.342.488-.683.735-1.024zm85.716 14.198c4.148.318 2.458 5.254 5.093 6.872 2.242 1.781 4.646-1.257 7.17-.723.298.066.494-.047.769-.013.124-.061.492-.121.618-.18.176-.106.357-.136.498-.169l1.508.179 1.321 1.087c-.031 1.247-.255 1.314-.754 1.988-3.911 1.45-11.047 2.124-11.886 6.509-.332 1.733-.007 3.57-.568 5.426-.486 1.61-1.744 2.296-1.886 4.34.251.42.504.842.754 1.264 6.914 1.843 16.333-7.62 23.394-.54-.062.479-.122.962-.186 1.446-.377.24-.754.483-1.132.723-1.047.508-3.169.477-4.152 0-.274-.274-.595-.493-.937-.444-3.545.516-5.327.066-8.873.082-.811.002-2.46 1.364-3.585 1.629-2.427.565-4.913-.022-7.36.54l-5.28 2.352c-3.776 1.39-8.593 2.726-12.076 3.797-3.291 1.011-6.485-1.045-7.736-3.074.062-.179.125-.362.19-.541.338-.744.741-1.113 1.508-1.448 2.229-1.073 4.237.94 6.605.723 4.628-.42 9.932-2.183 13.204-4.159.734-2.219 1.245-8.958-.564-10.485-3.629-1.678-9.7 1.919-14.152-.906.056-1.011.193-1.055.568-1.625 4.403-.86 13.27-1.636 15.47-5.246 1.831-2.999.006-7.077 2.457-9.404zm-100.916 1.578c4.043-.901 9.464.688 10.493 3.738.938 2.777-5.774 10.205-8.37 9.718-2.701-.783.615-5.028 1.244-6.267-1.225-2.186-2.721-2.246-4.37-3.629-.286-1.182-.526-1.779-.299-2.608.436-.318.87-.633 1.302-.952zm-1.991 18.186c.487-.03.976-.062 1.464-.094.786 1.232 1.979 2.642 3.086 3.689 1.651 1.563 6.83 1.098 5.972 5.286-.2 1-.734 1.85-1.585 2.423-1.114.574-3.323 1.456-4.436 1.002-1.354-.554-.701-1.904-1.468-2.925-1.862-2.477-6.678-5.308-3.033-9.381z"/><circle fill="#FFF" cx="500.082" cy="499.582" r="281.934"/><path stroke="#000" stroke-width="4" stroke-miterlimit="10" d="M500.619 781.778c154.783 0 281.024-126.383 281.024-281.339S655.402 219.1 500.619 219.1 219.595 345.482 219.595 500.439s126.241 281.339 281.024 281.339zm0 3.907c-156.931 0-284.926-128.138-284.926-285.246s127.995-285.246 284.926-285.246 284.926 128.138 284.926 285.246S657.55 785.685 500.619 785.685z"/><path fill="#3D6016" d="M501.888 388.104h239.207L621.491 595.263 501.888 802.421 382.285 595.263 262.682 388.104z"/><path fill="#FC0" d="m498.509 406.01-.047 8.504-3.514.377-19.52 7.217v4.268l4.407.088-.158 11.627-2.427.335c-2.05.213-56.357 4.017-75.31 64.39l-.628 2.887-26.066-.502-.084 27.446-24.427.013 1.768 2.938 72.686 122.607 74.786-.132 73.419.426 77.151-124.978-4.184-1.041-20.501.084V506.08l-25.857-.565-.439-1.946c-17.384-58.867-73.876-65.18-74.055-65.206l-3.452-.251-.251-11.924 4.268.063-.188-3.577-19.256-7.419-3.462-.677.146-16.234-2.594-4.268-2.212 4.184v7.75z"/><path d="m498.188 406.314-.047 8.504-3.514.377-19.52 7.217v4.268l4.407.088-.158 11.627-2.427.335c-2.05.213-56.357 4.017-75.31 64.39l-.628 2.887-26.066-.502-.084 27.446-24.427.013 1.768 2.938 72.686 122.607 74.786-.132 73.419.426 77.151-124.978-4.184-1.041-20.501.084v-26.484l-25.857-.565-.439-1.946c-17.384-58.867-73.876-65.18-74.055-65.206l-3.452-.251-.251-11.924 4.268.063-.188-3.577-19.256-7.419-3.462-.677.146-16.234-2.594-4.268-2.212 4.184v7.75zm-5.486-2.192.084-7.525 1.339-.711 6.276-4.184 4.77 3.096 2.72 1.423-.067 6.778-.076 7.552 12.422 5.303 10.962 5.868-.073 3.012.067 6.741-5.475.016-.008 2.631c16.663 2.428 57.557 9.628 77.807 67.542h27.739l-.126 25.576 19.079.042 7.468.063 1.381 2.134-1.019 1.857-1.244 2.089-78.716 135.505-.853 1.433-1.668.013-75.812.592h-.047l-75.812-.592-1.669-.013-.853-1.433-78.716-135.505-1.244-2.089 1.799-1.625 3.588-1.362 3.582.162 19.555.006v-26.526l27.488-.326c17.572-59.044 65.249-63.922 77.319-66.407l.084-3.933-5.104-.126-.126-9.1v-2.134l1.284-.727 21.616-8.148.258-5.998.021-.97zm-21.895 15.114 21.968-8.436-.22 1.412"/><path stroke="#000" stroke-miterlimit="10" d="m758.228 378.453-11.222 19.251L511.08 802.423 500 821.429l-11.08-19.006-235.925-404.718-11.223-19.251h516.456v-.001zm-31.36 20.779-451.771-1.03 225.136 391.472 217.626-374.836 9.009-15.606z"/><path fill-rule="evenodd" clip-rule="evenodd" d="m259.658 568.639-.063 36.902h-5.46l.102-29.379-9.269 6.661v-5.146c6.213-4.662 7.212-5.454 10.706-8.981h3.608l.376-.057zm9.614 28.292h4.292c.391 4.168 2.408 6.257 6.058 6.257 4.426.283 7.228-4.527 8.403-14.448h-.201c-1.432 2.872-4.099 4.382-8.009 4.53-7.027-.296-10.677-4.464-10.936-12.517.393-8.484 4.169-12.938 11.327-13.369 7.945.148 12.053 6.109 12.312 17.906-.525 14.09-4.817 21.274-12.895 21.56-6.511-.287-9.96-3.59-10.351-9.919zm11.327-7.977c4.3-.148 6.508-3.092 6.642-8.846-.257-5.316-2.609-8.05-7.035-8.198-4.426.296-6.7 3.165-6.834 8.632-.134 5.75 2.277 8.556 7.227 8.412zm33.324-1.51c-.134-10.205-2.656-15.386-7.56-15.534-5.04 0-7.492 5.181-7.356 15.534 0 10.353 2.452 15.524 7.356 15.524s7.427-5.172 7.56-15.524zm4.854 0c-.401 12.652-4.541 19.12-12.426 19.406-8.149-.286-12.289-6.754-12.426-19.406.137-13.086 4.278-19.774 12.426-20.06 7.885.286 12.025 6.973 12.426 20.06zm6.527-8.011-5.188-.125c.293-8.995 4.383-11.895 12.51-12.175 6.944.567 10.58 4.617 11.107 11.653.261 5.352-3.285 8.69-8.764 13.366l-3.473 2.971c-3.389 2.893-3.791 3.14-4.184 5.816l16.421.015v4.431h-23.701c.293-7.039 3.075-9.29 8.368-13.859l5.021-4.142c4.007-3.096 5.859-5.29 5.592-8.813-.388-4.36-1.901-6.105-6.22-6.25-4.589-.001-7.071.711-7.489 7.112zM595.761 314.231c-.099-.974-.12-1.293-.188-3.954-.045-1.767-.01-2.842-.241-4.508-.672-4.862-.326-3.409-1.396-7.08-.142-.487-.744-4.156-.796-4.661-.167-1.632.566-2.871 1.213-3.222 1.004-.544 2.356.918 2.948 1.687 1.695 2.203 2.445 4.255 2.675 5.578.17.977.705 5.565.711 5.648.165 2.349.435 4.8.669 6.987.251 2.343-.46 2.678.709 4.032.576.667 1.369.365 1.607.365 1.541-.344 1.809-2.345 1.595-4.073-.611-4.94-1.412-5.713-1.945-8.734-.377-2.134-.316-2.41-.471-3.473-.121-.832-.379-2.057-.575-6.108-.126-2.594-.031-2.665.45-4.78.38-1.669 1.039-2.677 1.766-2.962 1.968-.772 3.214-.472 3.317.389.578 4.804.656 5.262.743 8.519.089 3.333.427 4.011.513 5.946.088 2 .67 4.927.784 7.845.133 3.389.802 7.701 3.235 4.46.875-1.166.123-2.56.31-4.084.217-1.761-.064-2.115.157-4.048.376-3.283-.125-4.205.126-8.661.078-1.385 1.237-2.143 1.192-2.458-.084-.586-.074-.42-.92-2.636-.879-2.301.544-11.788.669-16.118.045-1.569-.29-4.742 1.098-6.307.822-.927 2.197-.385 3.556.302l.837.702c.094 1.318-2.385 4.111 4.079 1.098 1.316-.613 3.86-2.165 5.805-1.349 1.611.675.502 4.022.502 4.079-.059.448-4.165 1.782-5.681 2.714-3.198 1.966-7.69.556-7.341 8.865-.037.836-.031 2.604-.094 4.33-.046 1.265 2.078-.942 3.358-.941.636 0 1.825 1.153 1.93 1.224.452.307 1.318 1.192 1.02.863.411.454.685.818.722 1.083.173 1.255.204 4.114 1.945 3.467 2.425-.9 1.272-.463 2.887-1.192.773-.349 2.636.031 3.922-.22 1.67-.326 2.138-3.191 2.228-4.676.167-2.761-.044-3.489-1.067-4.33-1.435-1.18-3.618-.816-6.433 0-3.358.973-4.389 4.017-6.135 3.891-.134-.01-1.368-.277-1.506-.298-.061-.504.031-.643.379-1.388 1.982-4.24 14.74-11.906 19.28-5.735 2.479 3.37 1.598 6.748.941 9.811-.628 2.929-1.579 5.138-2.134 7.322-.487 1.916-.31 2.049-.669 4.142-.339 1.977-.287 1.419-.627 3.113-.24 1.195-1.207 4.184-.335 4.56 1.975.802 5.129-.013 6.841-.408 3.126-.723 8.851.946 10.146 2.353 1.541 1.674-2.27 5.786-3.598 6.527-1.377.281-5.484 3.904-6.862 4.184-2.935 1.683-2.839 1.497-5.774 3.18-3.196 1.202-7.594-1.213-5.272 1.328 1.295 1.418.728 2.933-.256 5.404-.987.37-3.054 1.636-4.095 2.18-1.123 1.435-1.157 1.357-1.506 2.092-1.18 2.486-4.373 6.148-1.843 6.073 6.25-.188 4.939 5.977 4.939 5.977s2.248-.604 4.937-.293c2.555.296 4.725-.258 6.109.084 2.879.713 5.46 3.996 6.59 6.286.43.872.119 1.728-.722 2.008-.941.314-1.987.816-2.772.282-1.77-1.204-2.065-2.287-3.598-2.552-3.557-.615-10.449-.711-10.449-.711s-.379 4.017-.439 4.205c-.61 1.89-2.798 5.205-3.703 6.496-1.694 2.416-5.603 4.265-7.562 4.738-9.1 2.197-12.849-4.326-11.276-13.765.544-3.263 3.039-5.241 6.109-6.067 2.593-.697 7.387-.119 7.238-2.552-.126-2.05-.494-.925-1.632-2.259-2.803-3.286-.456-4.442 1.255-6.203 1.083-1.114 1.059-1.409 1.569-2.228.378-.606.879-1.834.973-2.448.141-.926-1.255-.533-2.667-.361-3.442.421-3.687 1.757-6.213 1.03-1.082-.311-1.956-1.092-1.443-1.862 1.088-1.632.947-1.809 2.155-2.385 1.52-.725 1.987-1.004 3.964-2.102 2.835-1.575 3.819-2.105 5.397-2.228 1.15.426 2.719.956 4.283.675 2.92-.526 2.743-.82 5.382-2.871 2.195-1.706 5.488-4.232 6.778-5.568.261-.27 1.544-1.072 3.024-2.701.31-.342.367-.571.349-1.255-.008-.299.062-.533-.11-.91s-.891-.47-1.898-.11c-.659.235-1.036.361-1.707.699-.114.057-1.81.947-1.923 1.005-.781.407-1.124.431-1.877.806-1.838.916-1.424.779-3.538 1.159-.418.075-1.691.667-3.065 1.123-1.154.383-1.712 1.633-2.34.26-.251-.549-.471-1.067-.329-1.804.143-.747.298-.612.381-1.413.025-.244-.034-.707-.271-.768-.397-.102.361.115-.894-.22-.883-.235-2.322.751-2.161.641 1.206-.826-.585.596-2.028.756-.764.085-1.191.802-1.82 1.396-.975.922-1.726 1.349-2.699 1.491-1.455.211-1.506-.753-3.138-1.192-1.605-.432-3.303.463-4.383 1.443-.644.584-.418.502-1.925 1.046-.451.163-1.632.377-3.439-.26-1.169-.412-.371-.68-2.756-.68-1.293 0-1.667.482-3.679-.231-.791-.28-1.42-.936-1.732-1.616m-231.145-43.962c3.067-.053 5.805 1.888 6.655 3.984.941 2.322.628 3.161.628 4.707 0 1.726-.1 3.505-.188 4.268-.147 1.26-.185 1.726 0 3.546.135 1.325 1.929 1.569 3.075 2.625 1.146 1.056 1.396 3.157.795 4.728-.556.973-1.472 1.573-2.385 1.925-1.317.508-2.56.767-2.121 3.126l.978.747c2.431.604 4.976-.284 6.833-.651 4.017-.795 6.408-1.153 9.996-1.401 1.681-.323 4.114-.563 6.071-.732 2.117 1.125 4.937 6.137 3.305 9.832-2.518 5.611-12.038 9.157-16.108 13.807-1.283 1.465-2.606 2.582-3.64 3.849-1.569 1.922-3.095 2.864-5.087 4.391-1.462 1.118-2.967 1.756-4.097 3.223-.848.559-1.029 1.258-2.051 2.387-1.172 1.296-1.084 9.136-1.024 11.378.084 3.138-.126 6.286.094 8.922.046.549.565 1.541 1.004 3.044.143.49.263 2.398.251 3.075 0 0 .324 2.322-.178 3.828-.414 1.242-2.494 1.892-3.473 2.761-.717-.061-2.002-.148-2.72-.209-1.793-.82-3.635-2.538-5.104-3.64-2.535-1.898-4.961-1.485-5.439-4.937-.199-1.436-.01-1.003.396-1.566.084-.117 1.838.045 1.969-.016 2.262.027 3.823.215 5.874.106 2.344-.125 1.761-2.081 2.012-4.005.201-1.543 0-2.008-.084-4.393-.054-1.529.111-2.988-.933-4.107h-.197c-4.918 3.574-14.814 13.383-23.285 11.936-.066-.622-.13-1.243-.197-1.865 3.76-1.89 6.432-4.643 9.393-7.272 6.348-5.637 7.713-6.823 13.835-13.865.077-.088.108-.48.086-1.311-.01-.384.11-1.537-.042-1.59-.818-.284-.633-.138-1.255-.105-1.639.088-.923.074-3.243.272-4.594.391-10.733 3.077-12.907.084-1.113-1.532-.886-3.657-1.213-5.523-.705-1.364-1.23-3.74-2.301-5.146-.887-1.165-3.391-2.981-3.918-4.15-.59-1.308.607-2.107.978-2.61 4.303-1.248 6.145.971 9.038 2.294 1.233.564 3.139.014 4.581-.063 2.353-.126 4.234-.266 5.512-.508 4.062-.768 6.115-1.318 6.036-3.571-.019-.527.086-.28.063-1.726-.007-.422-.021-.967-.157-1.192-.071-.118-.986-.252-1.381-.094-1.981.793-2.687 1.006-4.362 1.13-4.676.345-8.141.846-11.202-1.82-.973-.847-.505-2.389-.439-2.887.13-.186 1.974-.362 2.197-.408 5.999-1.248 4.26-.742 7.405-1.381 1.341-.272 7.916.143 7.866-2.343-.03-1.504.336-3.418-.426-4.044-1.669-1.372-1.997-.249-4.145-.195-2.876.072-6.027.089-9.04-3.52.001-1.37.245-1.515.784-2.239 3.934-.594 7.617-.815 9.919-1.152 1.74-.255 2.94-.341 3.012-1.632.172-3.074.075-5.838.126-7.217.073-2.002-.004-1.541-3.075-5.899-.215-.305-.199-2.003-.199-2.376.287-.382.832-1.187 1.266-1.452 1.839-1.022 3.955-.137 5.583-1.162zm161.082 20.428c.011-.371.084-7.35.167-7.615.24-.759.24-1.538.528-1.83l.31-.348c2.366-1.141 3.406-.134 4.036 1.007.603 1.691.44 7.601.397 8.954-.136 4.267-.085 4.479-.167 7.615-.051 1.945.331 6.719.377 8.284.047 1.616.163 2.854.335 3.556.214.875.515 1.703 1.925 1.966 3.138.586 5.216.021 10.418-2.134 4.142-1.715 5.659-1.693 8.159-3.766 1.715-1.423 1.797-3.342 2.817-3.483 1.743-.241 2.172.638 2.748.638.98 1.274 3.476 7.506 2.803 9.288-.434.942-.434.942-2.106 1.344-4.101.987-5.991 1.172-9.734 2.422-1.539.514-2.552.74-4.142 1.381-2.423.976-2.702 1.256-5.515 2.002-4.543 1.205-10.61 1.555-10.676 6.115-.065 4.479.126 3.514-.544 7.28-.308 1.732-.72 3.837-1.417 5.849-.618 1.786-.709 3.234-1.596 4.903-2.517 4.737-3.117 5.502-7.698 6.945-4.694 1.479-10.659 2.636-13.734.745-.227-.782-.335-1.218-.174-2.111 1.958-2.4 5.457-3.538 8.009-4.972 2.762-1.55 3.954-2.28 6.255-5.795 1.234-1.885 3.401-6.647 3.975-8.828.392-1.491 1.018-3.691 1.083-4.974.079-1.553.2-1.226-.031-2.903-2.798-1.403-6.679-1.254-9.837-2.667-1.672-.75-3.87-2.586-4.832-4.268-1.569-2.74-.753-.146-1.862 1.464-.453.658-.941-.6-1.653-1.213-.717-.617-2.406-.732-2.636-1.297-.225-.554-.584-1.836-.126-2.217 1.004-.837 2.28-.92 3.326.251 1.271 1.423 2.313 2.247 3.954 1.13.924-.629 3.388-.421 4.205-.408 1.318.021 3.915.17 5.083.126 1.176-.045 2.464.154 3.64.073 2.185-.15 2.319.287 2.907-1.398 1.235-3.539.809-4.548.733-8.497m-49.833 28.346c.389-1.343.92-5.104 1.255-7.071.327-1.921.557-4.916.565-7.552.009-3.126-.825-3.836-2.04-3.87-5.586-.157-10.527-.85-15.451.117-2.436.477-2.738.49-3.784.741-.211.051-.778.526-.769.743.061 1.522.078.957.099 1.924.01.478.059 3.08-.366 3.3-1.003.52-4.03 1.93-5.178 3.813-.499.819-.973 1.036-.439 2.04.247.464 1.95-.036 2.918-.628 2.317-1.416 3.333-2.493 6.221-2.605l2.226 1.613c-.061.301-.124.599-.185.897-1.249 2.071-8.042 2.087-10.529 4.53.061.538.03 1.319.008 2.436-.026 1.319-.605 2.328.628 2.824 1.769-.237 2.029-1.285 3.954-1.475.558.299 1.734.139 2.291.439.248.777.248.777-.187 2.009-.624 1.768-.865 1.696-1.444 1.976-1.82.879-3.532.416-5.24 1.255-.749 4.033.66 9.341-1.119 13.587-1.297 3.096-.937 3.281-3.447 6.056-1.036 1.145-3.24 3.029-4.095 2.855-.647-.131-2.584-.795-2.584-2.469 0-1.828.71-.839 1.631-1.717 1.394-1.331 1.583-2.002 2.485-4.12.323-.758.417-1.375.822-2.656.289-.915.742-2.151.681-3.109.2-.836-.008-1.088.072-2.498.084-1.464-.597-2.857-1.789-2.573-1.579.377-2.671 1.006-5.272 1.13-1.736.083-3.966.478-4.895-.753-.01-1.154.051-1.081.439-1.726 3.233-.771 5.716-1.521 8.504-2.291 1.267-.35 1.925-.272 2.659-1.002.549-.546.249-1.028.228-1.696-.063-2.029-.155-4.041-.155-4.041s-3.793 1.411-5.838 2.503c-1.599.854-2.391 1.24-4.268-.063-1.13-.784-.986-1.33-.753-1.883.502-1.192.188-1.443.031-3.326-.329-3.945-2.581-3.535-4.362-5.178-.351-.323-1.036-.941-.91-1.906.322-2.472 3.734-3.79 5.005-5.45 1.008-1.317 1.349-1.867 2.306-3.69.529-1.006 1.074-2.321 1.538-3.358 1.091-2.439 3.577-6.652 3.263-10.481-.089-1.084-1.273-2.416-2.071-2.604-2.072-.49-3.004-.698-4.613-.157-1.71.575-2.896 1.059-4.738-.471-1.507-1.252-2.233-2.682-1.088-3.381 1.794-.643 5.191-.106 6.924-.102 2.988.008 3.947-.155 6.119-.078.894.031.767-.296.8-.973.11-2.244-.211-6.296.063-8.347.061-.46-.21-1.315.216-1.59.486-.314 1.738-1.004 2.326-.779 1.954.746 5.646 3.589 3.824 2.158-.137-.108 1.321.816 1.17 1.901-.356 2.552-1.088 2.688-.962 4.853.108 1.866.48 2.362 3.577 1.464 2.548-.738 5.583-2.451 7.813-2.657.972.475 1.428 1.375 1.098 2.416-.973 3.075-3.086 3.373-6.057 4.246-1.728.507-3.251.708-4.769 1.245-1.991.704-1.715.408-2.604 1.255-1.946 1.851-1.81 3.326-2.406 5.146-.743 2.269-1.511 3.888-2.301 5.899-.365.929-.863 2.739-1.271 3.734-.483 1.177-1.696 4.157-2.139 4.822-.887 1.327-.565.941-1.381 2.343-.325.558-.306 1.862.335 1.794 1.757-.188 1.969-.005 3.28-.882 1.05-.703 3.559-2.562 3.969-1.974.973 1.396-1.089 3.12-2.134 4.456-.986 1.261-2.642 2.571-2.981 2.981-.228.276-.854 3.175.806 2.4l3.678-3.129c2.607-1.672 5.507-7.067 4.741-9.093-.662-1.337-.894-1.569-.957-2.934-.019-.418.396-1.223.988-1.726.518-.439 1.492-.77 1.616-.832 8.87-1.667 10.41-.916 18.456-2.568 1.361 0 3.839-.491 5.188-.669 4.388-.58 6.75-1.522 8.117 3.054 1.799 6.025 1.853 8.076 1.255 12.886-.31 2.493-.917 5.084-1.645 7.488-.701 2.313-.996 3.807-1.451 5.273-.48 1.546-.879 3.012-1.673 5.222-.641 1.782-1.532 4.391-2.636 6.827-1.659 3.663-3.258 8.212-8.117 8.41-4.112-1.967-7.624-5.424-10.339-8.818-.377-.471-.634-1.763.141-1.883 2.432-.377 8.321 1.234 10.575-.282 2.194-1.476 2.963-3.372 4.205-6.684m140.978-47.447c1.192.983 1.674 1.32 1.674 1.946-.003 3.532-.137 8.832-.377 11.631-.105 1.221 2.729-.915 2.95-1.548.464-1.329 1.366-2.285 1.485-4.686.085-1.715.037-2.635.042-3.849.005-1.284.091-2.166-.92-2.217l-1.966-.586-2.888-.691zm18.806 2.426c-1.177.722-.874 1.049-2.159 2.023-.576.437-2.395 1.876-3.489 2.433-1.023.52-.915.149-1.412-.533-1.328-.446-1.822-.235-1.883 1.224-.083 1.982-.22 2.134-.188 3.593.028 1.322-.091 1.521-.016 2.903.014.253.17 2.965.382 3.107 1.35.901 3.003.244 4.288.084 4.696-.586 2.708-3.746.607-3.975-2.258-.246-2.51-.377-2.427-2.761.002-.057-.344-1.9.021-2.526.668-1.144.503-1.042 1.758-1.804.667-.406 1.838-.723 2.217-.167.309.453.055 1.519.084 2.28.044 1.186-.042 3.619 1.067 2.636.821-.728 1.527-2.314 2.301-4.351.671-1.766.908-2.247.811-3.677-.047-.69-.516-.729-.816-.784l-1.146.295zM377.686 307.73c-3.519.471-9.037-1.297-8.535 4.519.175 2.028 1.408 1.474 2.636 1.423 1.932-.081 3.847-.414 4.707.397.439.414.742 1.382.753 2.28.014 1.066-.916 2.193-1.192 2.469-.481.481-1.157.159-1.841.167-2.528.031-5.142-.629-4.979 1.506.196 2.575.126 5.68 3.25 3.265 3.094-2.393 11.942-9.892 14.005-13.303 1.088-1.799.986-3.337.527-3.601-1.199-.591-2.803-.293-4.811.126l-4.52.752zm207.396 8.117c1.925-.711 3.471 3.006 3.682 4.393.564 3.707-.273 6.287-2.118 11.203-1.099 2.926-8.708 5.322-8.927 2.813-.586-6.694 2.99-7.105 4.339-11.153.767-2.298.829-3.878 1.686-5.582l1.338-1.674zm-227.332 5.774c-4.958.471-6.621-.722-7.97 1.13-.658.903-1.072 2.156-1.036 2.95.053 1.157-.159 2.692 1.381 2.855 3.109.33 4.456.251 8.127-.126 1.895-.194 2.604-.973 2.933-2.993.152-.933-.015-1.024.026-2.604.008-.291.157-1.123-.323-1.182l-3.138-.03zm60.75.725c.62 0 1.297-.259 1.862 0 1.338.613 2.844 3.542 3.096 5.048.745 4.472.187 5.721.063 7.845-.137 2.345.025 2.836.188 4.163.314 2.552 1.666 3.747 1.624 5.109-.076 2.463.426 2.171-1.54 5.392-.669 1.097-1.962-.132-2.427-.837-1.065-1.617-1.065-1.617-2.09-3.254-1.402-2.239-3.809-2.989-2.805-7.749 1.003-4.758 1.016-1.615 1.004-5.23-.014-4.174-1.361-7.79 1.025-10.487zm123.765 13.806c.643-.264 2.401.238 3.698.907 1.18.609 1.494 1.169 2.761 2.008.851.563 1.628.989 2.552 1.423 1.339.628 1.991 1.211 2.51 1.883 1.417.989 2.328 1.943 3.347 3.284 1.082 1.422 2.077 3.139 2.887 4.895.597 1.295 1.82 4.543 1.004 7.092-.135.422-1.725 1.613-2.014 1.95l-1.731-.169c-3.042-1.438-6.924-3.286-8.493-6.173-1.267-2.332-1.959-6.016-3.138-9.477m-167.815-.126c5.511.924 9.001 2.371 13.158 3.535 4.601 1.285 6.621 2.082 6.862 5.355.182 2.475-.416 3.907-2.197 6.987-1.601 2.771-3.05 2.283-4.189 1.836-.671-.264-1.03-.726-1.522-1.365-1.255-1.632-1.215-4.463-1.318-4.927-.628-2.824-7.082-4.885-10.672-7.066-1.923-1.168-4.095-1.969-2.81-4.089.116-.055.458-.473 1.788-.393l.9.127zm242.498 9.644c-1.589-.029-2.489-.335-4.791.084-2.345.426-2.992 1.214-4.811 2.845-3.099 2.777.555 10.922 5.397 9.414 2.237-.697 4.895-2.594 5.439-6.36.182-1.26.063-4.205.063-5.92l-1.297-.063zM423.207 578.973h3.628v-50.362h147.568v50.362l6.244.042-.042 6.814-160.662-.119.062-6.746 3.202.009zm-2.678 12.902h160.327v13.046H420.529v-13.046zm154.805 19.054v36.481H557.95l.063-24.674-19.581-.048v24.721h-28.116l.002-24.694-18.829.272.126 24.423h-29.12l-.007-24.666-18.695.369.126 24.297h-17.531v-36.481h148.946zm-.666-106.767-73.721-24.746-73.721 24.746h147.442zm-89.259 34.885v39.384h29.206v-39.384h-29.206zm-13.373 39.385v-39.384H442.83v39.384h29.206zm56.957-39.385v39.384h29.206v-39.384h-29.206zm-101.767-28.374h147.442v10.977H427.226v-10.977z"/><circle fill-rule="evenodd" clip-rule="evenodd" cx="262.682" cy="727.425" r="10.166"/><path d="m163.321 623.826 17.287-7.496.642 1.584c-4.075 2.52-6.854 5.782-8.336 9.783-1.481 4.002-1.534 7.703-.157 11.102 1.064 2.627 2.608 4.423 4.631 5.385 2.025.964 3.951 1.077 5.779.335 1.159-.469 2.08-1.157 2.761-2.062.909-1.237 1.622-2.92 2.138-5.048.36-1.553.735-4.958 1.126-10.212.531-7.35 1.702-12.635 3.514-15.857 1.824-3.196 4.46-5.493 7.911-6.891 4.377-1.773 8.835-1.593 13.371.542s7.868 5.829 9.995 11.083a22.547 22.547 0 0 1 1.391 4.877c.26 1.603.374 3.701.344 6.291-.015 1.444.14 2.566.464 3.364.271.671.815 1.274 1.633 1.811.818.538 1.846.827 3.091.862l.58 1.43-19.778 8.01-.58-1.43c5.104-3.385 8.463-7.286 10.077-11.703 1.614-4.416 1.665-8.489.153-12.224-1.169-2.884-2.884-4.864-5.149-5.94-2.263-1.077-4.439-1.192-6.525-.348-1.237.501-2.301 1.314-3.194 2.441-.892 1.126-1.59 2.569-2.091 4.33-.5 1.763-.899 4.681-1.197 8.759-.413 5.713-1.022 9.946-1.826 12.7-.802 2.754-1.995 5.102-3.576 7.047-1.58 1.945-3.593 3.411-6.04 4.402-4.172 1.691-8.347 1.597-12.523-.279-4.177-1.876-7.209-5.144-9.097-9.806a21.312 21.312 0 0 1-1.385-5.194c-.181-1.336-.205-3.042-.073-5.12.133-2.077.059-3.463-.223-4.158-.272-.67-.69-1.114-1.259-1.334-.569-.22-1.706-.178-3.412.123l-.467-1.159zM148.592 563.535c-1.826-8.82-.455-16.47 4.115-22.948 4.571-6.477 10.993-10.414 19.266-11.81 7.068-1.193 13.636-.174 19.704 3.057 8.049 4.277 12.916 11.416 14.603 21.416 1.693 10.027-.395 18.354-6.266 24.98-4.638 5.234-10.642 8.473-18.013 9.717-8.273 1.397-15.646-.254-22.117-4.952-6.469-4.699-10.234-11.185-11.292-19.46zm2.547-.937c.86 5.096 4.119 8.534 9.771 10.312 4.638 1.443 10.958 1.49 18.958.139 9.507-1.604 16.252-4.461 20.236-8.571 2.785-2.864 3.823-6.393 3.116-10.585-.477-2.821-1.558-5.063-3.249-6.722-2.159-2.115-5.278-3.518-9.353-4.212-4.076-.692-9.21-.517-15.402.529-7.369 1.244-12.766 2.859-16.192 4.846-3.426 1.989-5.714 4.171-6.862 6.547-1.148 2.379-1.49 4.95-1.023 7.717zM143.146 505.999l1.985-29.105 1.54.105-.1 1.455c-.15 2.19-.024 3.71.379 4.558.402.849.992 1.474 1.773 1.875.781.402 2.778.712 5.993.931l27.608 1.883c5.045.344 8.411.192 10.098-.46 1.689-.65 3.131-1.812 4.331-3.485 1.2-1.672 1.891-3.839 2.072-6.5.209-3.049-.3-5.695-1.526-7.937-1.226-2.241-3.008-3.978-5.347-5.21-2.339-1.232-6.501-2.052-12.489-2.46l-22.992-1.568c-2.522-.172-4.342-.031-5.459.422-1.117.453-1.91 1.067-2.381 1.843-.723 1.204-1.162 2.943-1.317 5.215l-1.54-.105 1.332-19.501 1.538.105-.078 1.164c-.109 1.58.121 2.919.686 4.016.566 1.097 1.47 1.925 2.712 2.482.863.421 2.445.71 4.745.867l21.412 1.461c6.625.452 11.377 1.214 14.255 2.288 2.879 1.074 5.436 3.386 7.673 6.935 2.236 3.551 3.155 8.25 2.755 14.098-.332 4.879-1.241 8.604-2.725 11.176-2.022 3.512-4.47 5.919-7.344 7.227-2.874 1.308-6.653 1.802-11.339 1.483l-27.608-1.884c-3.243-.221-5.272-.177-6.086.128-.814.306-1.488.887-2.019 1.742-.532.856-.865 2.476-1 4.861l-1.537-.105zM166.839 373.393l14.648 4.396-.43 1.437c-3.636-.162-6.347.053-8.136.648-1.788.594-3.394 1.665-4.815 3.211-.783.868-1.553 2.566-2.311 5.094l-1.21 4.031 41.752 12.532c2.768.831 4.544 1.197 5.328 1.098.784-.098 1.569-.515 2.355-1.251.786-.735 1.411-1.875 1.874-3.419l.54-1.796 1.477.443-8.507 28.341-1.477-.443.539-1.796c.472-1.569.571-2.918.3-4.044-.165-.804-.639-1.541-1.426-2.212-.55-.484-2.183-1.134-4.897-1.948l-41.753-12.532-1.173 3.912c-1.094 3.646-1.117 6.525-.07 8.638 1.46 2.962 4.094 5.349 7.903 7.159l-.455 1.517-14.649-4.397 14.593-48.619zM213.171 344.193l15.151 8.765c2.502 1.447 4.145 2.213 4.929 2.298.785.086 1.645-.139 2.581-.674.935-.533 1.799-1.487 2.592-2.857l.939-1.623 1.335.772-14.796 25.577-1.335-.772.939-1.623c.82-1.418 1.23-2.707 1.225-3.866.025-.82-.274-1.634-.896-2.444-.425-.599-1.863-1.608-4.316-3.027l-32.179-18.615c-2.502-1.447-4.141-2.219-4.919-2.316-.779-.097-1.636.122-2.571.656-.935.535-1.798 1.487-2.592 2.858l-.939 1.623-1.335-.772 14.796-25.577 1.336.773-.94 1.623c-.82 1.419-1.228 2.707-1.225 3.866-.025.821.269 1.647.876 2.481.425.599 1.863 1.607 4.317 3.026l13.853 8.013 9.995-17.28-13.852-8.014c-2.502-1.446-4.141-2.218-4.92-2.316-.779-.097-1.639.128-2.58.674-.942.547-1.81 1.505-2.603 2.876l-.919 1.587-1.334-.772 14.775-25.54 1.335.772-.919 1.588c-.834 1.443-1.242 2.732-1.225 3.866-.025.821.268 1.647.876 2.481.425.599 1.863 1.607 4.316 3.026l32.178 18.614c2.503 1.447 4.142 2.22 4.92 2.316.779.098 1.639-.127 2.581-.674.941-.546 1.809-1.505 2.602-2.876l.92-1.587 1.335.772-14.776 25.541-1.336-.772.919-1.588c.834-1.442 1.243-2.731 1.225-3.865.025-.82-.266-1.647-.876-2.48-.425-.599-1.863-1.608-4.316-3.027l-15.151-8.765-9.996 17.278zM241.482 259.978l16.714 15.807.774-.818c2.462-2.604 3.43-5.264 2.903-7.982-.529-2.717-2.235-5.745-5.119-9.085l1.088-1.151 21.499 20.332-1.088 1.15c-2.57-1.972-4.971-3.275-7.199-3.912-2.23-.635-4.088-.682-5.577-.139-1.488.543-3.159 1.794-5.01 3.751l11.566 10.939c2.262 2.138 3.735 3.351 4.422 3.636.685.286 1.439.319 2.258.099.818-.219 1.782-.914 2.889-2.085l2.32-2.453c3.627-3.835 5.645-7.748 6.054-11.74.409-3.991-.725-8.21-3.404-12.655l1.06-1.121 11.302 14.189-33.561 35.488-1.12-1.06 1.288-1.363c1.127-1.19 1.822-2.35 2.085-3.478.214-.792.112-1.654-.308-2.586-.275-.68-1.44-1.994-3.5-3.941l-27.01-25.544c-1.857-1.756-3.046-2.784-3.564-3.084-.898-.466-1.796-.608-2.696-.426-1.29.233-2.566 1.015-3.825 2.348l-1.289 1.363-1.12-1.06 32.502-34.367 12.143 11.482-1.089 1.15c-3.52-2.22-6.428-3.411-8.722-3.574-2.294-.162-4.661.44-7.099 1.804-1.433.787-3.619 2.735-6.558 5.843l-4.009 4.243zM330.944 232.876l-16.637 11.032 1.06 5.897c.366 1.958.879 3.436 1.539 4.431.876 1.32 2.052 1.939 3.533 1.858.871-.044 2.595-.786 5.171-2.229l.852 1.285-15.664 10.388-.852-1.285c1.522-1.375 2.447-2.997 2.774-4.865.328-1.868.102-5.126-.681-9.774l-8.075-48.752.66-.438 42.596 27.361c4.047 2.584 6.906 4.005 8.577 4.263 1.263.196 2.652-.124 4.164-.961l.853 1.285-22.785 15.109-.852-1.285.937-.622c1.829-1.213 2.946-2.32 3.349-3.321.263-.708.165-1.41-.295-2.104a5.116 5.116 0 0 0-1.061-1.147c-.184-.177-1.107-.815-2.769-1.914l-6.394-4.212zm-2.886-1.788-17.771-11.568 3.532 21.011 14.239-9.443zM386.816 159.809l7.228 17.402-1.593.617c-2.457-4.113-5.675-6.942-9.653-8.486-3.979-1.543-7.678-1.653-11.098-.329-2.644 1.023-4.463 2.54-5.457 4.548-.994 2.009-1.137 3.933-.424 5.773.45 1.166 1.124 2.098 2.019 2.793 1.223.927 2.894 1.666 5.014 2.215 1.547.383 4.946.811 10.193 1.282 7.341.645 12.608 1.898 15.8 3.76 3.168 1.873 5.425 4.545 6.768 8.016 1.705 4.405 1.455 8.859-.749 13.362s-5.949 7.777-11.235 9.824c-1.659.642-3.291 1.08-4.898 1.315-1.608.234-3.707.317-6.295.247-1.444-.036-2.569.101-3.371.412-.674.26-1.286.795-1.837 1.604-.551.81-.854 1.835-.909 3.078l-1.439.557-7.702-19.9 1.438-.556c3.307 5.155 7.154 8.574 11.545 10.256 4.39 1.683 8.464 1.796 12.22.342 2.903-1.123 4.909-2.809 6.021-5.056 1.11-2.247 1.26-4.421.447-6.52-.481-1.243-1.278-2.321-2.39-3.231-1.112-.91-2.546-1.63-4.299-2.158-1.752-.527-4.666-.971-8.737-1.332-5.707-.502-9.931-1.176-12.671-2.022-2.74-.845-5.07-2.074-6.99-3.685-1.919-1.61-3.356-3.646-4.309-6.108-1.624-4.197-1.467-8.369.473-12.517 1.941-4.147 5.255-7.128 9.945-8.944a21.333 21.333 0 0 1 5.215-1.304c1.339-.16 3.046-.158 5.12.007 2.076.165 3.463.112 4.163-.158.673-.261 1.125-.673 1.352-1.239.228-.564.205-1.702-.071-3.413l1.166-.452zM467.815 143.796l2.415 15.103-1.482.237c-1.436-3.344-2.809-5.692-4.122-7.044-1.314-1.352-2.976-2.331-4.986-2.938-1.122-.327-2.986-.282-5.591.135l-4.157.664 6.884 43.045c.457 2.854.899 4.612 1.329 5.275s1.147 1.188 2.151 1.576c1.004.388 2.302.454 3.894.201l1.851-.297.243 1.523-29.217 4.672-.244-1.522 1.852-.296c1.618-.258 2.875-.755 3.77-1.489.652-.498 1.11-1.247 1.372-2.245.195-.707.071-2.46-.378-5.258l-6.884-43.045-4.032.645c-3.76.601-6.362 1.834-7.808 3.696-2.032 2.604-3.034 6.014-3.007 10.231l-1.563.25-2.415-15.103 50.125-8.016z"/><text transform="matrix(.9759 0 0 1 654.413 607.14)" font-family="'AdobeHeitiStd-Regular-GBpc-EUC-H'" font-size="49.313">南京</text><g><path d="m530.259 144.359 28.726 5.082-.268 1.517-1.437-.253c-2.161-.382-3.685-.42-4.572-.111-.888.308-1.573.829-2.055 1.562-.482.732-1.004 2.686-1.565 5.86l-4.82 27.25c-.882 4.98-1.089 8.341-.622 10.088.467 1.748 1.468 3.307 3.004 4.68 1.534 1.371 3.615 2.289 6.242 2.753 3.009.533 5.693.309 8.054-.669 2.359-.98 4.277-2.567 5.752-4.76 1.474-2.194 2.734-6.246 3.779-12.155l4.015-22.694c.439-2.49.494-4.314.165-5.473-.333-1.159-.859-2.014-1.579-2.564-1.121-.847-2.803-1.47-5.045-1.866l.268-1.519 19.247 3.405-.269 1.519-1.149-.204c-1.559-.276-2.914-.19-4.065.254-1.152.447-2.07 1.257-2.758 2.433-.511.813-.966 2.354-1.369 4.624l-3.738 21.135c-1.157 6.54-2.422 11.182-3.797 13.93-1.375 2.748-3.947 5.044-7.715 6.888-3.767 1.845-8.539 2.256-14.311 1.236-4.816-.852-8.423-2.153-10.822-3.904-3.275-2.384-5.409-5.075-6.401-8.073-.993-2.997-1.081-6.809-.264-11.432l4.82-27.249c.568-3.201.74-5.223.524-6.065-.218-.843-.724-1.574-1.516-2.194-.794-.62-2.369-1.124-4.727-1.513l.268-1.518zM626.425 168.194l12.225 43.085 9.362-22.422c1.306-3.127 1.74-5.43 1.302-6.906-.608-2.001-2.373-3.581-5.291-4.74l.594-1.423 17.229 7.194-.594 1.423c-2.323-.638-3.957-.891-4.9-.758-.943.132-1.839.617-2.684 1.453-.846.836-1.783 2.484-2.81 4.946l-18.128 43.419-1.308-.546-17.136-58.144-13.842 33.151c-1.253 3.001-1.412 5.312-.48 6.936.934 1.625 2.284 2.806 4.054 3.544l1.23.514-.594 1.423-18.498-7.723.595-1.424c2.881 1.174 5.128 1.419 6.738.736 1.61-.682 2.993-2.409 4.148-5.178l15.368-36.804-.537-1.85c-.525-1.845-1.119-3.162-1.783-3.951-.665-.789-1.781-1.541-3.348-2.256l.593-1.423 18.495 7.724zM674.429 255.627l-.832 1.299L648.708 241l.831-1.298 1.58 1.01c1.381.884 2.651 1.349 3.807 1.397.819.061 1.645-.201 2.483-.787.617-.397 1.689-1.789 3.215-4.176l20.038-31.313c1.556-2.433 2.401-4.037 2.532-4.811.132-.772-.047-1.639-.539-2.597-.492-.958-1.404-1.864-2.739-2.717l-1.58-1.011.832-1.3 24.888 15.926-.831 1.298-1.58-1.011c-1.381-.883-2.65-1.348-3.807-1.396-.818-.062-1.657.193-2.516.764-.618.397-1.69 1.79-3.216 4.176l-20.037 31.314c-1.558 2.434-2.397 4.041-2.517 4.822-.12.781.067 1.649.558 2.608.492.958 1.405 1.864 2.74 2.716l1.579 1.013zM764.27 260.801l-1.047 1.132c-1.736-1.152-3.828-1.59-6.274-1.317-1.8.228-5.291 1.446-10.474 3.655l-43.601 18.492-1.01-.934 16.268-46.144c1.963-5.563 2.975-8.959 3.036-10.191.059-1.231-.632-2.684-2.074-4.356l1.046-1.133 19.893 18.39-1.047 1.132-.673-.622c-1.797-1.66-3.228-2.567-4.295-2.722-.753-.128-1.402.103-1.949.696-.338.367-.659.875-.957 1.526-.299.652-.988 2.502-2.067 5.553l-10.253 28.832 25.203-10.81c3.036-1.318 5.014-2.251 5.937-2.8.922-.547 1.629-1.086 2.119-1.617.566-.612.902-1.304 1.011-2.074.106-.771-.043-1.571-.449-2.401-.557-1.158-1.559-2.406-3.008-3.746l1.046-1.132 13.619 12.591zM787.412 296.308l-18.863 13.167.644.923c2.051 2.939 4.461 4.424 7.228 4.458 2.769.033 6.079-1.024 9.933-3.173l.906 1.298-24.262 16.937-.906-1.298c2.451-2.118 4.213-4.204 5.287-6.258 1.073-2.053 1.495-3.865 1.265-5.433-.229-1.567-1.116-3.456-2.659-5.666l-13.054 9.112c-2.552 1.782-4.037 2.98-4.454 3.593-.42.613-.605 1.345-.555 2.192.048.847.534 1.93 1.457 3.253l1.932 2.767c3.02 4.328 6.445 7.098 10.271 8.306 3.826 1.209 8.186.952 13.083-.771l.883 1.264-16.184 8.197-27.958-40.051 1.264-.882 1.073 1.537c.938 1.344 1.934 2.259 2.985 2.747.732.369 1.596.442 2.594.221.723-.131 2.245-1.008 4.569-2.63l30.483-21.278c2.095-1.464 3.343-2.419 3.742-2.867.637-.784.959-1.634.963-2.552.033-1.31-.475-2.718-1.525-4.221l-1.074-1.537 1.265-.883 27.076 38.787-13.705 9.565-.906-1.298c2.887-2.999 4.644-5.605 5.266-7.819.624-2.214.514-4.653-.329-7.317-.482-1.563-1.946-4.098-4.395-7.607l-3.34-4.783zM798.707 370.759l-14.624 6.081c-2.822 1.174-4.526 2.086-5.113 2.736-.587.65-.919 1.502-.991 2.556-.074 1.053.386 2.773 1.379 5.159l-1.424.592-11.106-26.705 1.424-.593c1.002 2.412 1.907 3.955 2.714 4.626.806.674 1.64 1.034 2.503 1.081.861.048 2.704-.514 5.527-1.688l33.863-14.083c2.821-1.173 4.526-2.085 5.114-2.736.586-.649.916-1.501.99-2.556.073-1.054-.386-2.773-1.379-5.159l1.424-.592 10.083 24.242c2.624 6.312 4.108 11.11 4.452 14.397.343 3.288-.274 6.343-1.853 9.166-1.579 2.823-3.946 4.891-7.102 6.204-3.848 1.599-7.606 1.538-11.271-.188-2.328-1.108-4.55-3.089-6.668-5.938l-12.446 19.89c-1.6 2.591-2.539 4.351-2.814 5.278-.359 1.383-.288 2.783.212 4.199l-1.424.593-6.833-16.431 16.788-26.706-1.425-3.425zm25.589-10.642-22.857 9.505.912 2.194c1.483 3.565 2.918 6.097 4.31 7.595 1.389 1.498 3.149 2.4 5.277 2.704 2.126.303 4.562-.115 7.307-1.257 3.977-1.653 6.527-3.805 7.653-6.454 1.124-2.65.829-6.04-.888-10.17l-1.714-4.117zM855.448 451.218l-18.402 4.049-.327-1.677c4.482-1.694 7.834-4.362 10.054-8.007 2.22-3.645 2.979-7.267 2.279-10.868-.541-2.781-1.714-4.838-3.516-6.172-1.802-1.333-3.672-1.811-5.608-1.435-1.228.238-2.261.737-3.105 1.496-1.129 1.04-2.15 2.555-3.064 4.546-.65 1.456-1.67 4.726-3.059 9.808-1.928 7.111-4.089 12.075-6.486 14.891-2.401 2.788-5.429 4.538-9.082 5.249-4.636.903-8.977-.127-13.02-3.091-4.044-2.964-6.607-7.226-7.691-12.79a22.61 22.61 0 0 1-.431-5.054c.052-1.622.34-3.703.866-6.24.29-1.415.353-2.546.189-3.391-.138-.709-.556-1.405-1.256-2.09-.7-.685-1.655-1.163-2.869-1.438l-.294-1.515 20.944-4.076.295 1.514c-5.657 2.347-9.701 5.532-12.129 9.557-2.43 4.025-3.26 8.014-2.49 11.968.594 3.055 1.899 5.328 3.916 6.818 2.017 1.489 4.13 2.019 6.339 1.589 1.31-.255 2.51-.849 3.603-1.784 1.092-.935 2.051-2.218 2.881-3.85.828-1.634 1.777-4.423 2.85-8.367 1.499-5.529 2.907-9.568 4.222-12.115 1.316-2.549 2.935-4.626 4.86-6.233 1.922-1.605 4.179-2.66 6.771-3.165 4.418-.86 8.497.031 12.237 2.671 3.742 2.64 6.092 6.429 7.052 11.365.351 1.799.472 3.588.365 5.363-.077 1.346-.38 3.026-.908 5.038-.529 2.014-.722 3.388-.578 4.125.138.709.465 1.225.981 1.55.517.324 1.641.501 3.374.531l.237 1.23zM802.924 507.556l-1.542.051-.987-29.531 1.541-.052.063 1.875c.054 1.638.391 2.947 1.007 3.927.412.709 1.097 1.241 2.055 1.599.677.282 2.43.378 5.263.282l37.154-1.244c2.888-.097 4.687-.31 5.399-.638.712-.331 1.324-.969 1.834-1.918s.738-2.213.685-3.796l-.062-1.875 1.541-.052.988 29.531-1.542.052-.062-1.874c-.056-1.639-.39-2.948-1.008-3.927-.414-.71-1.098-1.256-2.056-1.642-.676-.284-2.431-.378-5.263-.282l-37.155 1.243c-2.888.097-4.687.316-5.397.66-.712.343-1.324.989-1.834 1.939-.51.947-.739 2.213-.685 3.796l.063 1.876zM850.408 577.617l-15.139-2.177.214-1.485c3.618-.378 6.269-.993 7.949-1.846 1.681-.853 3.11-2.149 4.286-3.888.644-.976 1.156-2.768 1.531-5.381l.599-4.166-43.148-6.205c-2.86-.411-4.671-.511-5.432-.296-.761.214-1.475.742-2.144 1.587-.669.843-1.118 2.063-1.347 3.66l-.267 1.855-1.526-.22 4.211-29.289 1.526.22-.267 1.856c-.232 1.623-.131 2.971.304 4.044.281.77.86 1.429 1.736 1.975.618.397 2.328.798 5.132 1.201l43.149 6.204.581-4.043c.541-3.767.137-6.618-1.213-8.552-1.884-2.713-4.841-4.682-8.876-5.908l.227-1.568 15.139 2.176-7.225 50.246zM823.822 655.454l-1.44-.551c.431-1.828.436-3.358.016-4.589-.592-1.716-2.779-4.902-6.558-9.562l-14.729-18.759-12.766-4.887c-2.724-1.044-4.472-1.549-5.243-1.517-.771.031-1.572.373-2.4 1.023-.83.649-1.512 1.675-2.049 3.075l-1.132 2.958-1.44-.551 11.34-29.618 1.44.552-1.057 2.763c-.596 1.556-.796 2.892-.598 4.01.104.814.524 1.584 1.257 2.31.514.524 2.093 1.293 4.74 2.306l10.587 4.053 27.366-3.757c5.406-.758 8.699-1.49 9.878-2.199 1.179-.709 2.104-1.901 2.777-3.578l1.44.552-9.686 25.298-1.44-.552.431-1.128c.586-1.532.776-2.687.569-3.464-.209-.779-.559-1.263-1.051-1.451-.934-.358-3.68-.22-8.237.417l-21.126 2.844 12.282 15.593c2.988 3.851 5.118 6.019 6.39 6.506.701.269 1.413.154 2.139-.341.987-.634 1.997-2.107 3.03-4.418l1.44.551-6.17 16.111z"/></g><circle fill-rule="evenodd" clip-rule="evenodd" cx="737.471" cy="727.425" r="10.166"/></g></svg>