<svg width="485.998" height="184.105" xml:space="preserve" xmlns="http://www.w3.org/2000/svg"><path fill-rule="evenodd" clip-rule="evenodd" d="M780.49 211.559c-.149-1.462-.18-1.943-.283-5.939-.068-2.653-.015-4.269-.361-6.771-1.01-7.302-.489-5.12-2.097-10.634-.213-.732-1.118-6.242-1.196-7.001-.251-2.451.85-4.312 1.822-4.839 1.508-.817 3.539 1.379 4.427 2.534 2.545 3.309 3.672 6.39 4.018 8.378.256 1.467 1.06 8.358 1.068 8.484.248 3.528.653 7.209 1.005 10.495.377 3.519-.691 4.022 1.065 6.057.864 1.001 2.056.548 2.414.548 2.315-.517 2.717-3.522 2.396-6.118-.917-7.42-2.121-8.581-2.922-13.118-.566-3.205-.475-3.62-.707-5.216-.181-1.249-.57-3.09-.864-9.175-.188-3.896-.047-4.003.676-7.18.57-2.507 1.561-4.02 2.653-4.449 2.956-1.16 4.827-.709 4.983.584.867 7.215.985 7.904 1.115 12.796.133 5.006.642 6.025.77 8.932.133 3.004 1.006 7.401 1.178 11.783.2 5.09 1.205 11.567 4.86 6.7 1.315-1.751.185-3.845.466-6.134.325-2.645-.097-3.176.236-6.08.564-4.931-.189-6.316.189-13.008.117-2.08 1.859-3.22 1.791-3.692-.126-.88-.112-.631-1.383-3.959-1.32-3.456.817-17.706 1.005-24.21.068-2.357-.435-7.122 1.65-9.474 1.235-1.392 3.299-.579 5.341.453l1.257 1.055c.141 1.98-3.582 6.174 6.127 1.65 1.977-.921 5.797-3.252 8.719-2.027 2.419 1.014.754 6.041.754 6.127-.088.673-6.256 2.676-8.534 4.076-4.803 2.953-11.55.836-11.026 13.315-.056 1.256-.047 3.912-.141 6.504-.069 1.901 3.12-1.415 5.043-1.414.956.001 2.742 1.732 2.899 1.838.679.461 1.98 1.791 1.532 1.296.617.682 1.029 1.229 1.084 1.626.259 1.885.306 6.18 2.922 5.208 3.642-1.353 1.911-.695 4.336-1.791 1.161-.525 3.959.047 5.892-.33 2.509-.49 3.211-4.792 3.346-7.023.251-4.148-.066-5.241-1.602-6.504-2.155-1.772-5.434-1.225-9.662 0-5.043 1.461-6.592 6.033-9.214 5.844-.201-.014-2.055-.416-2.262-.448-.092-.757.047-.966.57-2.085 2.977-6.368 22.14-17.884 28.958-8.614 3.724 5.062 2.4 10.135 1.414 14.737-.943 4.399-2.371 7.718-3.205 10.997-.732 2.878-.466 3.078-1.005 6.221-.51 2.97-.431 2.132-.942 4.675-.361 1.795-1.813 6.285-.503 6.849 2.966 1.205 7.704-.019 10.275-.613 4.695-1.086 13.294 1.422 15.239 3.535 2.314 2.514-3.409 8.691-5.404 9.803-2.068.422-8.236 5.864-10.306 6.284-4.408 2.529-4.264 2.248-8.672 4.776-4.8 1.805-11.406-1.822-7.918 1.995 1.945 2.129 1.093 4.405-.384 8.116-1.483.555-4.587 2.457-6.151 3.274-1.687 2.155-1.739 2.039-2.262 3.142-1.773 3.734-6.569 9.235-2.769 9.121 9.388-.282 7.419 8.978 7.419 8.978s3.377-.908 7.415-.44c3.838.445 7.097-.388 9.175.126 4.324 1.071 8.201 6.001 9.898 9.442.646 1.309.179 2.595-1.084 3.016-1.414.471-2.985 1.225-4.163.424-2.659-1.808-3.101-3.435-5.404-3.833-5.342-.924-15.695-1.068-15.695-1.068s-.569 6.033-.66 6.316c-.916 2.839-4.202 7.818-5.562 9.756-2.545 3.629-8.416 6.407-11.359 7.117-13.668 3.299-19.299-6.497-16.936-20.675.817-4.902 4.565-7.872 9.175-9.112 3.895-1.047 11.096-.179 10.872-3.833-.189-3.079-.742-1.39-2.451-3.394-4.21-4.936-.684-6.672 1.885-9.316 1.626-1.673 1.591-2.117 2.357-3.346.567-.911 1.321-2.755 1.461-3.676.212-1.39-1.885-.801-4.006-.542-5.17.632-5.538 2.639-9.332 1.548-1.625-.468-2.939-1.641-2.168-2.796 1.634-2.451 1.423-2.717 3.236-3.582 2.283-1.089 2.985-1.508 5.954-3.158 4.258-2.366 5.737-3.161 8.107-3.346 1.727.639 4.084 1.436 6.433 1.013 4.385-.79 4.12-1.231 8.083-4.312 3.296-2.563 8.243-6.357 10.181-8.363.392-.406 2.32-1.611 4.542-4.057.466-.513.552-.857.524-1.885-.012-.449.093-.801-.165-1.367s-1.338-.705-2.852-.165c-.99.353-1.555.542-2.564 1.049-.171.086-2.719 1.422-2.888 1.51-1.173.611-1.688.647-2.82 1.211-2.761 1.376-2.138 1.17-5.314 1.74-.627.113-2.539 1.002-4.604 1.687-1.733.575-2.572 2.452-3.514.391-.377-.825-.707-1.602-.495-2.71.215-1.122.448-.919.573-2.122.038-.367-.051-1.063-.408-1.154-.596-.153.542.173-1.343-.33-1.326-.354-3.488 1.128-3.246.962 1.812-1.24-.879.895-3.046 1.135-1.148.127-1.789 1.204-2.734 2.097-1.464 1.384-2.592 2.027-4.053 2.239-2.185.317-2.262-1.131-4.713-1.791-2.411-.649-4.961.695-6.583 2.168-.967.877-.628.754-2.891 1.571-.677.245-2.451.566-5.165-.391-1.755-.619-.557-1.022-4.139-1.022-1.943 0-2.503.724-5.527-.347-1.188-.421-2.133-1.406-2.601-2.428m-353.185-66.03c4.607-.08 8.719 2.835 9.995 5.985 1.414 3.488.943 4.747.943 7.07 0 2.592-.15 5.265-.283 6.41-.22 1.893-.278 2.592 0 5.326.202 1.989 2.898 2.357 4.619 3.943 1.721 1.586 2.096 4.743 1.194 7.101-.836 1.461-2.21 2.362-3.582 2.891-1.979.763-3.845 1.152-3.186 4.695.488.375.98.748 1.47 1.122 3.651.907 7.475-.426 10.263-.978 6.033-1.194 9.626-1.732 15.013-2.105 2.524-.484 6.179-.845 9.118-1.1 3.18 1.69 7.416 9.218 4.965 14.768-3.782 8.428-18.082 13.754-24.194 20.738-1.927 2.201-3.914 3.878-5.467 5.782-2.356 2.886-4.648 4.302-7.64 6.596-2.195 1.68-4.457 2.638-6.154 4.841-1.273.84-1.546 1.889-3.08 3.585-1.76 1.947-1.629 13.723-1.539 17.09.126 4.713-.189 9.442.141 13.401.069.825.849 2.314 1.508 4.572.215.736.395 3.602.377 4.619 0 0 .487 3.488-.267 5.75-.622 1.865-3.746 2.842-5.216 4.148-1.077-.092-3.008-.223-4.085-.314-2.693-1.232-5.46-3.813-7.667-5.467-3.807-2.851-7.451-2.23-8.17-7.415-.299-2.158-.015-1.507.596-2.352.127-.175 2.761.068 2.957-.023 3.398.041 5.742.323 8.822.159 3.52-.188 2.645-3.125 3.022-6.016.302-2.318 0-3.016-.126-6.598-.081-2.297.166-4.488-1.401-6.169h-.296c-7.387 5.368-22.25 20.101-34.974 17.928-.099-.934-.196-1.866-.296-2.802 5.647-2.838 9.661-6.974 14.109-10.923 9.535-8.466 11.585-10.248 20.78-20.825.115-.132.162-.722.13-1.969-.015-.577.166-2.309-.063-2.388-1.228-.427-.95-.207-1.885-.157-2.461.132-1.387.112-4.87.408-6.901.588-16.121 4.621-19.387.126-1.671-2.301-1.331-5.493-1.822-8.295-1.059-2.048-1.847-5.617-3.456-7.73-1.332-1.749-5.093-4.477-5.884-6.233-.887-1.964.912-3.165 1.469-3.921 6.464-1.874 9.23 1.458 13.575 3.445 1.852.847 4.715.021 6.881-.094 3.535-.189 6.36-.4 8.279-.763 6.101-1.154 9.185-1.98 9.065-5.364-.028-.791.13-.42.094-2.592-.01-.635-.031-1.453-.236-1.791-.107-.177-1.482-.379-2.074-.141-2.975 1.192-4.036 1.511-6.551 1.697-7.023.518-12.228 1.271-16.826-2.734-1.461-1.273-.759-3.588-.66-4.336.195-.28 2.965-.543 3.299-.613 9.011-1.874 6.399-1.114 11.123-2.074 2.014-.409 11.89.215 11.814-3.519-.046-2.259.505-5.133-.64-6.074-2.506-2.061-3-.374-6.225-.293-4.32.108-9.052.134-13.579-5.287.001-2.058.368-2.276 1.177-3.363 5.909-.893 11.44-1.224 14.899-1.73 2.613-.383 4.416-.512 4.525-2.451.259-4.618.113-8.769.189-10.84.11-3.007-.006-2.315-4.619-8.861-.323-.458-.299-3.009-.299-3.569.431-.574 1.25-1.783 1.902-2.181 2.763-1.536 5.94-.207 8.386-1.746zm244.948 30.682c.016-.557.126-11.04.251-11.437.36-1.141.361-2.31.793-2.749l.465-.523c3.554-1.714 5.115-.201 6.063 1.513.905 2.54.662 11.417.597 13.448-.204 6.409-.127 6.727-.251 11.437-.077 2.921.498 10.093.566 12.443.07 2.427.245 4.286.503 5.342.321 1.314.774 2.558 2.891 2.954 4.713.88 7.835.031 15.648-3.205 6.221-2.577 8.5-2.543 12.254-5.656 2.577-2.137 2.7-5.02 4.231-5.231 2.619-.362 3.262.958 4.127.958 1.472 1.914 5.221 11.274 4.21 13.951-.652 1.414-.652 1.414-3.163 2.018-6.16 1.482-8.999 1.76-14.621 3.637-2.311.772-3.833 1.112-6.221 2.074-3.639 1.466-4.058 1.886-8.284 3.007-6.823 1.81-15.937 2.335-16.036 9.184-.098 6.727.189 5.279-.817 10.935-.462 2.601-1.082 5.763-2.128 8.786-.928 2.683-1.065 4.857-2.397 7.365-3.78 7.115-4.682 8.264-11.563 10.432-7.051 2.221-16.01 3.959-20.629 1.118-.341-1.175-.503-1.829-.262-3.171 2.941-3.604 8.197-5.315 12.03-7.468 4.148-2.329 5.939-3.425 9.395-8.704 1.854-2.831 5.108-9.984 5.97-13.26.589-2.239 1.529-5.543 1.626-7.47.118-2.333.301-1.842-.047-4.36-4.203-2.107-10.032-1.883-14.776-4.006-2.512-1.126-5.813-3.885-7.258-6.41-2.357-4.116-1.131-.22-2.797 2.199-.681.989-1.413-.901-2.482-1.822-1.076-.927-3.615-1.099-3.959-1.948-.338-.831-.877-2.757-.189-3.331 1.508-1.257 3.425-1.383 4.996.377 1.909 2.138 3.474 3.376 5.939 1.697 1.388-.945 5.089-.632 6.316-.613 1.98.031 5.881.256 7.635.189 1.767-.067 3.701.231 5.467.11 3.282-.225 3.483.431 4.366-2.1 1.855-5.315 1.215-6.832 1.101-12.762m-78.846 42.575c.585-2.018 1.383-7.667 1.885-10.62.491-2.886.837-7.383.848-11.343.014-4.695-1.239-5.762-3.064-5.813-8.39-.236-15.812-1.276-23.208.175-3.659.717-4.113.736-5.684 1.113-.317.076-1.168.789-1.155 1.115.092 2.286.118 1.438.149 2.89.016.718.088 4.626-.55 4.957-1.506.782-6.053 2.899-7.777 5.727-.75 1.23-1.461 1.555-.66 3.064.37.697 2.929-.054 4.383-.943 3.481-2.126 5.006-3.744 9.343-3.912l3.344 2.423-.278 1.348c-1.876 3.111-12.079 3.135-15.815 6.804.092.808.045 1.982.012 3.659-.039 1.981-.909 3.497.943 4.242 2.657-.356 3.048-1.929 5.939-2.215.838.449 2.605.209 3.441.66.372 1.168.372 1.168-.281 3.018-.938 2.655-1.299 2.548-2.17 2.968-2.734 1.32-5.305.625-7.871 1.885-1.125 6.058.991 14.03-1.681 20.408-1.948 4.65-1.408 4.928-5.177 9.097-1.555 1.72-4.867 4.549-6.151 4.289-.972-.197-3.881-1.194-3.881-3.708 0-2.746 1.067-1.26 2.45-2.58 2.094-1.999 2.378-3.007 3.732-6.188.485-1.139.626-2.066 1.234-3.99.434-1.374 1.114-3.231 1.023-4.669.301-1.256-.012-1.635.109-3.752.126-2.2-.897-4.292-2.687-3.865-2.372.566-4.011 1.511-7.918 1.697-2.607.124-5.956.717-7.353-1.131-.016-1.733.076-1.624.66-2.592 4.856-1.158 8.585-2.284 12.773-3.441 1.904-.526 2.891-.408 3.993-1.506.825-.821.374-1.543.343-2.548a458.77 458.77 0 0 0-.233-6.069s-5.697 2.119-8.769 3.76c-2.402 1.283-3.591 1.863-6.41-.094-1.697-1.178-1.481-1.998-1.131-2.828.754-1.791.283-2.168.047-4.996-.494-5.925-3.877-5.31-6.551-7.777-.526-.486-1.555-1.414-1.367-2.862.483-3.713 5.609-5.692 7.518-8.186 1.514-1.978 2.026-2.805 3.464-5.542.794-1.511 1.613-3.486 2.309-5.043 1.638-3.663 5.373-9.992 4.902-15.742-.133-1.629-1.912-3.629-3.111-3.912-3.113-.735-4.511-1.049-6.928-.236-2.568.864-4.35 1.591-7.117-.707-2.264-1.88-3.355-4.029-1.634-5.079 2.695-.966 7.797-.16 10.4-.153 4.488.011 5.928-.232 9.191-.118 1.343.047 1.152-.444 1.202-1.461.165-3.37-.316-9.457.094-12.537.092-.691-.316-1.975.324-2.388.731-.471 2.61-1.508 3.493-1.171 2.935 1.121 8.481 5.391 5.744 3.241-.206-.162 1.985 1.225 1.758 2.855-.534 3.833-1.634 4.038-1.445 7.29.163 2.803.721 3.547 5.373 2.2 3.827-1.109 8.386-3.682 11.736-3.991 1.46.713 2.145 2.065 1.65 3.629-1.461 4.619-4.635 5.066-9.097 6.378-2.596.762-4.882 1.064-7.163 1.87-2.991 1.057-2.576.613-3.912 1.885-2.922 2.781-2.718 4.996-3.613 7.73-1.116 3.408-2.269 5.839-3.456 8.861-.549 1.396-1.296 4.113-1.909 5.609-.725 1.768-2.547 6.244-3.213 7.243-1.332 1.993-.848 1.414-2.074 3.519-.488.838-.459 2.797.503 2.694 2.639-.283 2.957-.007 4.926-1.325 1.578-1.056 5.346-3.848 5.961-2.964 1.461 2.097-1.636 4.687-3.205 6.693-1.482 1.895-3.968 3.862-4.478 4.478-.343.414-1.283 4.769 1.211 3.605l5.525-4.7c3.916-2.511 8.272-10.615 7.121-13.658-.994-2.009-1.343-2.357-1.438-4.407-.029-.627.595-1.837 1.485-2.592.778-.66 2.241-1.157 2.427-1.249 13.323-2.503 15.636-1.377 27.722-3.857 2.044 0 5.766-.738 7.792-1.005 6.591-.871 10.139-2.286 12.192 4.588 2.702 9.049 2.783 12.13 1.885 19.356-.465 3.745-1.377 7.636-2.471 11.247-1.053 3.474-1.496 5.718-2.179 7.92-.721 2.322-1.32 4.525-2.513 7.844-.963 2.677-2.302 6.596-3.959 10.255-2.492 5.502-4.894 12.335-12.192 12.631-6.177-2.955-11.452-8.147-15.53-13.244-.566-.707-.952-2.648.212-2.828 3.653-.566 12.498 1.853 15.884-.424 3.296-2.216 4.45-5.064 6.316-10.039m218.749-71.28c1.791 1.477 2.514 1.983 2.514 2.922-.004 5.305-.205 13.266-.566 17.47-.157 1.834 4.098-1.374 4.43-2.325.697-1.996 2.051-3.432 2.231-7.038.128-2.577.055-3.958.063-5.782.008-1.929.136-3.253-1.383-3.331l-2.954-.88zm28.248 3.645c-1.767 1.084-1.313 1.575-3.243 3.039-.865.656-3.597 2.818-5.241 3.654-1.536.781-1.374.224-2.121-.801-1.994-.67-2.736-.353-2.828 1.838-.124 2.977-.33 3.205-.283 5.397.043 1.986-.137 2.284-.024 4.36.021.38.256 4.454.573 4.666 2.027 1.353 4.511.366 6.441.126 7.054-.88 4.068-5.626.911-5.97-3.392-.37-3.771-.566-3.645-4.148.003-.085-.517-2.854.031-3.794 1.003-1.719.755-1.564 2.64-2.71 1.002-.609 2.76-1.086 3.33-.252.465.681.083 2.282.126 3.425.066 1.782-.063 5.436 1.602 3.959 1.233-1.094 2.293-3.476 3.456-6.536 1.008-2.652 1.364-3.376 1.218-5.522-.071-1.037-.774-1.096-1.225-1.178zm-390.064 17.878c-5.286.707-13.574-1.948-12.82 6.787.263 3.047 2.114 2.214 3.959 2.137 2.902-.122 5.779-.622 7.07.597.659.622 1.114 2.075 1.131 3.425.02 1.601-1.376 3.293-1.791 3.708-.723.723-1.738.239-2.765.251-3.797.046-7.723-.945-7.478 2.262.295 3.868.19 8.532 4.882 4.904 4.647-3.594 17.937-14.857 21.035-19.982 1.634-2.702 1.48-5.012.791-5.409-1.801-.888-4.21-.44-7.227.189zm317.512 12.192c2.891-1.068 5.213 4.515 5.53 6.598.847 5.568-.409 9.443-3.182 16.826-1.651 4.396-13.079 7.993-13.409 4.226-.88-10.055 4.491-10.671 6.517-16.753 1.153-3.451 1.245-5.825 2.533-8.385zm-347.456 8.672c-7.447.707-9.945-1.084-11.972 1.697-.989 1.357-1.61 3.238-1.555 4.43.079 1.737-.238 4.043 2.074 4.289 4.669.496 6.693.377 12.207-.189 2.847-.292 3.912-1.461 4.406-4.495.228-1.402-.023-1.538.039-3.911.011-.438.235-1.687-.486-1.775zm90.248 1.09c.931 0 1.948-.389 2.797 0 2.01.921 4.272 5.32 4.65 7.583 1.119 6.717.28 8.594.094 11.783-.205 3.522.038 4.259.283 6.253.471 3.833 2.502 5.628 2.439 7.674-.114 3.7.64 3.26-2.314 8.099-1.006 1.647-2.947-.198-3.645-1.257-1.599-2.429-1.599-2.429-3.139-4.888-2.105-3.364-5.721-4.489-4.214-11.639 1.507-7.147 1.526-2.426 1.508-7.855-.02-6.272-2.044-11.703 1.541-15.753zm189.896 20.736c.966-.397 3.606.357 5.554 1.363 1.773.915 2.244 1.756 4.148 3.016a28.716 28.716 0 0 0 3.833 2.137c2.011.943 2.991 1.818 3.771 2.828 2.129 1.486 3.496 2.918 5.027 4.933 1.625 2.136 3.12 4.715 4.336 7.353.897 1.945 2.733 6.823 1.508 10.652-.203.633-2.591 2.422-3.025 2.928l-2.601-.254c-4.568-2.159-10.399-4.936-12.756-9.272-1.904-3.503-2.942-9.037-4.713-14.234m-255.062-.189c8.278 1.387 13.519 3.562 19.764 5.31 6.91 1.93 9.944 3.127 10.306 8.044.274 3.717-.625 5.868-3.299 10.495-2.405 4.161-4.581 3.43-6.292 2.757-1.008-.396-1.547-1.09-2.286-2.05-1.885-2.451-1.825-6.703-1.98-7.4-.943-4.242-10.637-7.337-16.029-10.613-2.888-1.755-6.151-2.957-4.22-6.142.174-.083.688-.711 2.685-.59zm370.237 14.485c-2.387-.044-3.739-.503-7.195.126-3.523.641-4.494 1.824-7.227 4.273-4.654 4.171.833 16.405 8.107 14.14 3.361-1.047 7.353-3.896 8.17-9.552.273-1.893.094-6.316.094-8.892z" style="fill:#fff" transform="translate(-382.62 -141.112)"/><path style="font-size:38.3333px;font-family:'Times New Roman PS';-inkscape-font-specification:'Times New Roman PS';fill:#fff" d="M18.208-25.952h-.69c-.191.805-.268 1.725-1.303 1.725-.613 0-1.188-.306-1.725-.575-1.61-.805-2.798-1.15-4.638-1.15-4.102 0-7.782 2.99-7.782 7.284 0 8.586 13.532 8.356 13.532 14.221 0 2.415-2.415 3.719-4.6 3.719-4.409 0-7.629-4.179-8.204-8.28h-.69V.575h.69C3.067-.192 3.833-.92 4.715-.92c.422 0 1.035.192 1.418.345C7.897.192 9.162.575 11.155.575c4.523 0 8.702-3.028 8.702-7.82 0-8.472-13.724-8.702-13.724-13.877 0-2.338 2.147-3.373 4.255-3.373 3.642 0 6.709 3.565 7.13 6.977h.69zM36.225.575c7.743 0 13.493-5.405 13.493-13.263 0-7.859-5.75-13.264-13.493-13.264s-13.493 5.405-13.493 13.264c0 7.858 5.75 13.263 13.493 13.263zm0-1.457c-5.903 0-6.747-7.321-6.747-11.806 0-4.485.844-11.807 6.747-11.807s6.747 7.322 6.747 11.807S42.128-.882 36.225-.882zm33.273-23.805c3.412 0 3.565 1.227 3.565 4.37v11.424c0 3.45-1.456 7.59-6.286 7.59-4.37 0-5.29-2.684-5.29-5.52v-13.762c0-3.105 0-4.102 3.603-4.102v-.69H51.788v.69c3.604 0 3.604.997 3.604 4.102v12.458c0 5.674 3.028 8.702 9.391 8.702 8.894 0 9.89-6.172 9.89-9.775v-11.117c0-3.143.154-4.37 3.565-4.37v-.69h-8.74zm27.217.767c2.913 0 4.523.92 5.558 5.405h.69v-6.862H80.232v6.862h.69C81.957-23 83.567-23.92 86.48-23.92h2.07v19.128c0 3.105 0 4.102-3.603 4.102V0h13.301v-.69c-3.603 0-3.603-.997-3.603-4.102V-23.92zm18.132 11.73h8.893v7.398c0 3.105 0 4.102-3.603 4.102V0h13.301v-.69c-3.603 0-3.603-.997-3.603-4.102v-15.793c0-3.105 0-4.102 3.603-4.102v-.69h-13.301v.69c3.603 0 3.603.997 3.603 4.102v6.747h-8.893v-6.747c0-3.105 0-4.102 3.603-4.102v-.69h-13.302v.69c3.604 0 3.604.997 3.604 4.102v15.793c0 3.105 0 4.102-3.604 4.102V0h13.302v-.69c-3.603 0-3.603-.997-3.603-4.102zm29.823-11.73h2.108c5.022 0 7.629.383 8.74 6.057h.69v-7.514h-21.236v.69c3.603 0 3.603.997 3.603 4.102v15.793c0 3.105 0 4.102-3.603 4.102V0h21.926l1.15-8.05h-.69c-1.916 6.593-6.44 6.593-10.043 6.593-2.645 0-2.645-.69-2.645-3.91v-6.823c4.408 0 4.792 2.53 5.405 6.018h.69v-13.416h-.69c-.613 3.488-.997 6.018-5.405 6.018zm31.05 16.675 1.687 3.833c.23.575.383.844.383 1.495 0 1.227-1.917 1.227-2.99 1.227V0h12.305v-.69c-2.147 0-3.067-2.377-3.795-4.025l-9.315-21.198h-.384l-8.854 19.856c-.92 2.032-2.032 5.175-4.639 5.367V0h8.472v-.69c-1.917-.115-3.373-.268-3.373-2.108 0-.729.345-1.495.728-2.415l.882-2.032zm-.575-1.38h-7.667l3.872-8.702zm30.513-17.327h-.69c-.192.805-.268 1.725-1.303 1.725-.614 0-1.189-.306-1.725-.575-1.61-.805-2.799-1.15-4.639-1.15-4.101 0-7.781 2.99-7.781 7.284 0 8.586 13.531 8.356 13.531 14.221 0 2.415-2.415 3.719-4.6 3.719-4.408 0-7.628-4.179-8.203-8.28h-.69V.575h.69c.268-.767 1.035-1.495 1.917-1.495.421 0 1.035.192 1.418.345 1.763.767 3.028 1.15 5.022 1.15 4.523 0 8.701-3.028 8.701-7.82 0-8.472-13.723-8.702-13.723-13.877 0-2.338 2.147-3.373 4.255-3.373 3.642 0 6.708 3.565 7.13 6.977h.69zm21.007 2.032c2.913 0 4.523.92 5.558 5.405h.69v-6.862h-22.732v6.862h.69c1.035-4.485 2.645-5.405 5.559-5.405h2.07v19.128c0 3.105 0 4.102-3.604 4.102V0h13.302v-.69c-3.603 0-3.603-.997-3.603-4.102V-23.92zm35.611-.767c3.412 0 3.565 1.227 3.565 4.37v11.424c0 3.45-1.456 7.59-6.286 7.59-4.37 0-5.29-2.684-5.29-5.52v-13.762c0-3.105 0-4.102 3.603-4.102v-.69h-13.302v.69c3.604 0 3.604.997 3.604 4.102v12.458c0 5.674 3.028 8.702 9.391 8.702 8.894 0 9.89-6.172 9.89-9.775v-11.117c0-3.143.154-4.37 3.565-4.37v-.69h-8.74zm18.86-.69h-8.97v.69c1.84 0 2.454.767 3.68 2.339v18.515c0 2.108-1.035 3.143-3.603 3.143V0h8.625v-.69c-2.568 0-3.603-1.035-3.603-3.143V-20.47h.076L294.438.575h.613v-22.118c0-2.109 1.035-3.144 3.604-3.144v-.69h-8.625v.69c2.568 0 3.603 1.035 3.603 3.144v11.73h-.077zm28.635 4.792c0-3.105 0-4.102 3.604-4.102v-.69h-13.302v.69c3.603 0 3.603.997 3.603 4.102v15.793c0 3.105 0 4.102-3.603 4.102V0h13.302v-.69c-3.604 0-3.604-.997-3.604-4.102zm31.779-4.792h-8.357v.69c1.38 0 3.335.23 3.335 1.917 0 .767-.307 1.725-.882 2.99l-5.443 12.228-5.827-13.531c-.23-.575-.766-1.687-.766-2.3 0-1.304 1.571-1.304 3.105-1.304v-.69h-12.19v.69c1.878.115 2.453 1.265 2.798 2.07L327.366.575h.614l8.931-19.78c1.687-3.718 2.53-5.175 4.639-5.482zm10.771 1.457h2.109c5.021 0 7.628.383 8.74 6.057h.69v-7.514h-21.237v.69c3.603 0 3.603.997 3.603 4.102v15.793c0 3.105 0 4.102-3.603 4.102V0h21.927l1.15-8.05h-.69c-1.917 6.593-6.44 6.593-10.044 6.593-2.645 0-2.645-.69-2.645-3.91v-6.823c4.409 0 4.792 2.53 5.405 6.018h.69v-13.416h-.69c-.613 3.488-.996 6.018-5.405 6.018zm25.377 0h2.453c3.527 0 5.29 1.687 5.29 5.712 0 3.105-1.38 5.328-5.903 5.328h-1.84zm0 12.343h1.725L387.588 0h7.973v-.69c-1.495 0-2.031-.767-3.028-2.185l-6.555-9.123c3.143-.614 5.75-2.952 5.75-6.249 0-4.906-3.757-7.13-9.507-7.13h-14.03v.69c3.604 0 3.604.997 3.604 4.102v15.793c0 3.105 0 4.102-3.604 4.102V0h13.11v-.69c-3.603 0-3.603-.997-3.603-4.102zm35.612-14.375h-.69c-.192.805-.269 1.725-1.304 1.725-.613 0-1.188-.306-1.725-.575-1.61-.805-2.798-1.15-4.638-1.15-4.102 0-7.782 2.99-7.782 7.284 0 8.586 13.532 8.356 13.532 14.221 0 2.415-2.415 3.719-4.6 3.719-4.408 0-7.628-4.179-8.203-8.28h-.69V.575h.69c.268-.767 1.035-1.495 1.916-1.495.422 0 1.035.192 1.419.345 1.763.767 3.028 1.15 5.021 1.15 4.524 0 8.702-3.028 8.702-7.82 0-8.472-13.723-8.702-13.723-13.877 0-2.338 2.146-3.373 4.255-3.373 3.641 0 6.708 3.565 7.13 6.977h.69zm13.608 5.367c0-3.105 0-4.102 3.603-4.102v-.69H417.22v.69c3.603 0 3.603.997 3.603 4.102v15.793c0 3.105 0 4.102-3.603 4.102V0h13.301v-.69c-3.603 0-3.603-.997-3.603-4.102zm22.31-3.335c2.913 0 4.523.92 5.558 5.405h.69v-6.862h-22.731v6.862h.69c1.035-4.485 2.645-5.405 5.558-5.405h2.07v19.128c0 3.105 0 4.102-3.603 4.102V0h13.301v-.69c-3.603 0-3.603-.997-3.603-4.102V-23.92zM473.8-10.503l5.865-9.775c1.303-2.185 2.3-4.409 4.485-4.409v-.69h-7.705v.69c1.111 0 2.798.23 2.798 1.534 0 .766-.805 2.07-1.188 2.721l-5.06 8.51-4.945-9.046c-.307-.537-1.112-1.917-1.112-2.53 0-1.189 1.265-1.189 2.492-1.189v-.69h-12.152v.69c1.878 0 2.377.69 4.063 3.757l6.364 11.5v4.638c0 3.45 0 4.102-4.102 4.102V0H477.9v-.69c-4.101 0-4.101-.652-4.101-4.102z" transform="translate(.249 183.53)" aria-label="SOUTHEAST UNIVERSITY"/></svg>